{
.appName = FontCreator;
.appVersion = "15.0.0.2992";
.formatVersion = 3;
axes = (
{
name = Weight;
tag = wght;
},
{
name = "Dots Style";
tag = DSTY;
}
);
customParameters = (
{
name = fsType;
value = (
);
},
{
name = "Use Typo Metrics";
value = 1;
},
{
name = "Variable Font Origin";
value = m000;
}
);
date = "2024-04-26 18:30:00";
familyName = "Arad-FD-VF";
featurePrefixes = (
{
automatic = 1;
code = "languagesystem DFLT dflt;
languagesystem arab dflt; # Arabic default
languagesystem arab FAR;  # Arabic Persian
languagesystem arab KUR;  # Arabic Kurdish
languagesystem arab URD;  # Arabic Urdu
";
name = Languagesystems;
},
{
code = "
#
# Global glyph class definitions
#

@CG_1 = [alefhamzabelow-arab alefhamzabelow-arab.fina peh-arab.init peh-arab.medi peh-arab.init.1 peh-arab.medi.1 reh-arab reh-arab.fina zain-arab zain-arab.fina jeh-arab jeh-arab.fina farsiyeh-arab.init farsiyeh-arab.medi farsiyeh-arab.init.1 farsiyeh-arab.medi.1 farsiyeh-arab.init.2 farsiyeh-arab.medi.2 reh-arab.calt reh-arab.fina.1 zain-arab.calt zain-arab.fina.1 jeh-arab.calt jeh-arab.fina.1 rreh-arab.calt rreh-arab.fina.1 rehsmallvbelow-arab.calt rehsmallvbelow-arab.fina.1];
@CG_2 = [beh-arab.init beh-arab.medi peh-arab.init peh-arab.medi tcheh-arab.init farsiyeh-arab.init farsiyeh-arab.medi];
@CG_3 = [alefhamzabelow-arab.fina hah-arab.fina jeem-arab.fina tcheh-arab.fina khah-arab.fina reh-arab reh-arab.fina zain-arab zain-arab.fina jeh-arab jeh-arab.fina ain-arab.fina ghain-arab.fina glyph261 qaf-arab.fina lam-arab.fina noonghunna-arab.fina noon-arab.fina waw-arab.fina heh-arab.medi hehgoal-arab.medi farsiyeh-arab.fina yeh-arab.fina yehhamzaabove-arab.fina yehsmallv-arab.fina];
@CG_4 = [peh-arab.init peh-arab.medi farsiyeh-arab.init farsiyeh-arab.medi yehsmallv-arab.init yehsmallv-arab.medi];

glyphs = (
{
glyphname = .notdef;
layers = (
{
anchors = (
{
name = "top-arab";
pos = (650,1400);
},
{
name = "bottom-arab";
pos = (650,0);
}
);
layerId = m000;
shapes = (
{
closed = 1;
nodes = (
(1150,0,l),
(1150,1400,l),
(150,1400,l),
(150,0,l)
);
},
{
closed = 1;
nodes = (
(250,1300,l),
(1050,1300,l),
(1050,100,l),
(250,100,l)
);
}
);
width = 1300;
},
{
anchors = (
{
name = "top-arab";
pos = (650,1400);
},
{
name = "bottom-arab";
pos = (650,0);
}
);
layerId = m001;
shapes = (
{
closed = 1;
nodes = (
(1200,0,l),
(1200,1400,l),
(100,1400,l),
(100,0,l)
);
},
{
closed = 1;
nodes = (
(350,1150,l),
(950,1150,l),
(950,250,l),
(350,250,l)
);
}
);
width = 1300;
}
);
},
{
glyphname = exclam;
layers = (
{
layerId = m000;
shapes = (
{
closed = 1;
nodes = (
(191,309,l),
(202,1101,l),
(202,1432,l),
(140,1432,l),
(140,1101,l),
(153,309,l)
);
},
{
closed = 1;
nodes = (
(206,0,l),
(206,71,l),
(133,71,l),
(133,0,l)
);
}
);
width = 340;
},
{
layerId = m001;
shapes = (
{
closed = 1;
nodes = (
(449,401,l),
(463,1054,l),
(463,1432,l),
(74,1432,l),
(74,1054,l),
(88,401,l)
);
},
{
closed = 1;
nodes = (
(470,0,l),
(470,277,l),
(65,277,l),
(65,0,l)
);
}
);
width = 534;
}
);
unicode = 33;
},
{
glyphname = question;
layers = (
{
layerId = m000;
shapes = (
{
closed = 1;
nodes = (
(475,314,l),
(475,365,l),
(475,480,o),
(638,659,o),
(718,721,qs),
(831,812,o),
(943,961,o),
(943,1074,qs),
(943,1259,o),
(722,1454,o),
(502,1454,qs),
(271,1454,o),
(133,1379,q),
(133,1321,l),
(293,1399,o),
(498,1399,qs),
(882,1399,o),
(882,1074,qs),
(882,965,o),
(778,832,o),
(665,745,qs),
(555,661,o),
(413,489,o),
(413,369,qs),
(413,314,l)
);
},
{
closed = 1;
nodes = (
(482,0,l),
(482,71,l),
(409,71,l),
(409,0,l)
);
}
);
width = 1076;
},
{
layerId = m001;
shapes = (
{
closed = 1;
nodes = (
(653,403,l),
(653,431,l),
(653,492,o),
(770,607,o),
(859,677,qs),
(966,763,o),
(1052,921,o),
(1052,1037,qs),
(1052,1236,o),
(775,1454,o),
(514,1454,qs),
(249,1454,o),
(65,1361,q),
(65,1087,l),
(191,1171,o),
(404,1173,qs),
(655,1173,o),
(655,993,qs),
(655,921,o),
(574,834,o),
(487,762,qs),
(410,699,o),
(296,569,o),
(298,442,qs),
(298,403,l)
);
},
{
closed = 1;
nodes = (
(679,0,l),
(679,277,l),
(274,277,l),
(274,0,l)
);
}
);
width = 1116;
}
);
unicode = 63;
},
{
glyphname = quotedbl;
layers = (
{
layerId = m000;
shapes = (
{
closed = 1;
nodes = (
(451,1092,l),
(475,1432,l),
(402,1432,l),
(402,1092,l)
);
},
{
closed = 1;
nodes = (
(182,1092,l),
(206,1432,l),
(133,1432,l),
(133,1092,l)
);
}
);
width = 609;
},
{
layerId = m001;
shapes = (
{
closed = 1;
nodes = (
(781,945,l),
(812,1432,l),
(493,1432,l),
(493,945,l)
);
},
{
closed = 1;
nodes = (
(351,945,l),
(384,1432,l),
(65,1432,l),
(65,945,l)
);
}
);
width = 877;
}
);
unicode = 34;
},
{
glyphname = quotedblbase;
layers = (
{
layerId = m000;
shapes = (
{
closed = 1;
nodes = (
(440,-280,l),
(560,73,l),
(487,73,l),
(391,-280,l)
);
},
{
closed = 1;
nodes = (
(182,-280,l),
(302,73,l),
(229,73,l),
(133,-280,l)
);
}
);
width = 694;
},
{
layerId = m001;
shapes = (
{
closed = 1;
nodes = (
(708,-231,l),
(877,266,l),
(581,266,l),
(447,-231,l)
);
},
{
closed = 1;
nodes = (
(327,-231,l),
(495,266,l),
(199,266,l),
(65,-231,l)
);
}
);
width = 942;
}
);
unicode = 8222;
},
{
glyphname = quotedblleft;
layers = (
{
layerId = m000;
shapes = (
{
closed = 1;
nodes = (
(464,1101,l),
(560,1454,l),
(511,1454,l),
(391,1101,l)
);
},
{
closed = 1;
nodes = (
(206,1101,l),
(302,1454,l),
(253,1454,l),
(133,1101,l)
);
}
);
width = 694;
},
{
layerId = m001;
shapes = (
{
closed = 1;
nodes = (
(743,957,l),
(877,1454,l),
(616,1454,l),
(447,957,l)
);
},
{
closed = 1;
nodes = (
(361,957,l),
(495,1454,l),
(234,1454,l),
(65,957,l)
);
}
);
width = 942;
}
);
unicode = 8220;
},
{
glyphname = quotedblright;
layers = (
{
layerId = m000;
shapes = (
{
closed = 1;
nodes = (
(440,1101,l),
(560,1454,l),
(487,1454,l),
(391,1101,l)
);
},
{
closed = 1;
nodes = (
(182,1101,l),
(302,1454,l),
(229,1454,l),
(133,1101,l)
);
}
);
width = 694;
},
{
layerId = m001;
shapes = (
{
closed = 1;
nodes = (
(708,957,l),
(877,1454,l),
(581,1454,l),
(447,957,l)
);
},
{
closed = 1;
nodes = (
(327,957,l),
(495,1454,l),
(199,1454,l),
(65,957,l)
);
}
);
width = 942;
}
);
unicode = 8221;
},
{
glyphname = quoteleft;
layers = (
{
layerId = m000;
shapes = (
{
closed = 1;
nodes = (
(206,1101,l),
(302,1454,l),
(253,1454,l),
(133,1101,l)
);
}
);
width = 436;
},
{
layerId = m001;
shapes = (
{
closed = 1;
nodes = (
(392,957,l),
(526,1454,l),
(234,1454,l),
(65,957,l)
);
}
);
width = 590;
}
);
unicode = 8216;
},
{
glyphname = quoteright;
layers = (
{
layerId = m000;
shapes = (
{
closed = 1;
nodes = (
(182,1101,l),
(302,1454,l),
(229,1454,l),
(133,1101,l)
);
}
);
width = 436;
},
{
layerId = m001;
shapes = (
{
closed = 1;
nodes = (
(357,957,l),
(526,1454,l),
(199,1454,l),
(65,957,l)
);
}
);
width = 590;
}
);
unicode = 8217;
},
{
glyphname = quotesinglbase;
layers = (
{
layerId = m000;
shapes = (
{
closed = 1;
nodes = (
(182,-280,l),
(302,73,l),
(229,73,l),
(133,-280,l)
);
}
);
width = 436;
},
{
layerId = m001;
shapes = (
{
closed = 1;
nodes = (
(357,-424,l),
(526,73,l),
(199,73,l),
(65,-424,l)
);
}
);
width = 590;
}
);
unicode = 8218;
},
{
glyphname = numbersign;
layers = (
{
layerId = m000;
shapes = (
{
closed = 1;
nodes = (
(286,0,l),
(422,434,l),
(929,434,l),
(794,0,l),
(854,0,l),
(989,434,l),
(1287,434,l),
(1287,489,l),
(1007,489,l),
(1149,941,l),
(1398,941,l),
(1398,999,l),
(1167,999,l),
(1305,1432,l),
(1243,1432,l),
(1105,999,l),
(600,999,l),
(738,1432,l),
(676,1432,l),
(538,999,l),
(244,999,l),
(244,941,l),
(520,941,l),
(380,489,l),
(133,489,l),
(133,434,l),
(362,434,l),
(226,0,l)
);
},
{
closed = 1;
nodes = (
(582,941,l),
(1087,941,l),
(947,489,l),
(440,489,l)
);
}
);
width = 1532;
},
{
layerId = m001;
shapes = (
{
closed = 1;
nodes = (
(437,0,l),
(545,344,l),
(814,344,l),
(708,0,l),
(1040,0,l),
(1146,344,l),
(1427,344,l),
(1427,595,l),
(1225,595,l),
(1303,840,l),
(1518,840,l),
(1518,1094,l),
(1382,1094,l),
(1489,1432,l),
(1157,1432,l),
(1049,1094,l),
(781,1094,l),
(889,1432,l),
(554,1432,l),
(447,1094,l),
(158,1094,l),
(158,840,l),
(368,840,l),
(291,595,l),
(65,595,l),
(65,344,l),
(211,344,l),
(104,0,l)
);
},
{
closed = 1;
nodes = (
(701,840,l),
(970,840,l),
(893,595,l),
(624,595,l)
);
}
);
width = 1583;
}
);
unicode = 35;
},
{
glyphname = dollar;
layers = (
{
layerId = m000;
shapes = (
{
closed = 1;
nodes = (
(716,678,o),
(1035,531,o),
(1031,356,qs),
(1028,35,o),
(603,31,qs),
(375,29,o),
(173,91,q),
(173,36,l),
(335,-23,o),
(576,-22,q),
(576,-191,l),
(638,-191,l),
(638,-20,l),
(1092,4,o),
(1092,356,qs),
(1092,460,o),
(1005,607,o),
(789,712,o),
(576,763,qs),
(360,814,o),
(193,947,o),
(193,1079,qs),
(195,1388,o),
(610,1398,qs),
(839,1404,o),
(1003,1348,q),
(1003,1403,l),
(887,1446,o),
(638,1454,q),
(638,1624,l),
(576,1624,l),
(576,1452,l),
(132,1419,o),
(133,1079,qs),
(133,927,o),
(331,761,o),
(576,707,qs)
);
}
);
width = 1225;
},
{
layerId = m001;
shapes = (
{
closed = 1;
nodes = (
(579,563,o),
(777,487,o),
(775,405,qs),
(775,258,o),
(544,259,qs),
(313,264,o),
(87,359,q),
(87,65,l),
(237,-2,o),
(464,-16,q),
(464,-191,l),
(804,-191,l),
(804,6,l),
(1174,87,o),
(1175,406,qs),
(1175,521,o),
(1107,694,o),
(917,821,o),
(728,870,qs),
(584,907,o),
(461,971,o),
(461,1033,qs),
(461,1165,o),
(710,1171,qs),
(875,1175,o),
(1094,1096,q),
(1094,1391,l),
(985,1427,o),
(804,1442,q),
(804,1624,l),
(464,1624,l),
(464,1438,l),
(65,1375,o),
(65,1030,qs),
(65,867,o),
(229,670,o),
(456,601,qs)
);
}
);
width = 1239;
}
);
unicode = 36;
},
{
glyphname = percent;
layers = (
{
layerId = m000;
shapes = (
{
closed = 1;
nodes = (
(564,836,o),
(711,999,o),
(711,1132,qs),
(711,1285,o),
(567,1454,o),
(422,1454,qs),
(278,1454,o),
(133,1285,o),
(133,1132,qs),
(133,999,o),
(280,836,o),
(422,836,qs)
);
},
{
closed = 1;
nodes = (
(395,0,l),
(1163,1432,l),
(1103,1432,l),
(335,0,l)
);
},
{
closed = 1;
nodes = (
(193,892,o),
(193,1132,qs),
(193,1270,o),
(304,1399,o),
(422,1399,qs),
(540,1399,o),
(651,1270,o),
(651,1132,qs),
(651,1014,o),
(542,892,o),
(422,892,qs)
);
},
{
closed = 1;
nodes = (
(1225,-22,o),
(1372,140,o),
(1372,274,qs),
(1372,427,o),
(1227,596,o),
(1083,596,qs),
(938,596,o),
(794,427,o),
(794,274,qs),
(794,140,o),
(940,-22,o),
(1083,-22,qs)
);
},
{
closed = 1;
nodes = (
(854,33,o),
(854,274,qs),
(854,411,o),
(965,540,o),
(1083,540,qs),
(1201,540,o),
(1312,411,o),
(1312,274,qs),
(1312,156,o),
(1203,33,o),
(1083,33,qs)
);
}
);
width = 1506;
},
{
layerId = m001;
shapes = (
{
closed = 1;
nodes = (
(559,772,o),
(735,953,o),
(735,1098,qs),
(735,1265,o),
(562,1454,o),
(400,1454,qs),
(239,1454,o),
(65,1265,o),
(65,1098,qs),
(65,953,o),
(241,772,o),
(400,772,qs)
);
},
{
closed = 1;
nodes = (
(660,0,l),
(1412,1432,l),
(1044,1432,l),
(293,0,l)
);
},
{
closed = 1;
nodes = (
(270,970,o),
(270,1106,qs),
(270,1183,o),
(335,1257,o),
(400,1257,qs),
(464,1257,o),
(529,1183,o),
(529,1106,qs),
(529,1038,o),
(465,970,o),
(400,970,qs)
);
},
{
closed = 1;
nodes = (
(1466,-22,o),
(1642,158,o),
(1642,305,qs),
(1642,471,o),
(1468,660,o),
(1307,660,qs),
(1145,660,o),
(972,471,o),
(972,305,qs),
(972,158,o),
(1147,-22,o),
(1307,-22,qs)
);
},
{
closed = 1;
nodes = (
(1177,175,o),
(1177,312,qs),
(1177,388,o),
(1243,462,o),
(1307,462,qs),
(1372,462,o),
(1437,388,o),
(1437,312,qs),
(1437,245,o),
(1372,175,o),
(1307,175,qs)
);
}
);
width = 1706;
}
);
unicode = 37;
},
{
glyphname = ampersand;
layers = (
{
layerId = m000;
shapes = (
{
closed = 1;
nodes = (
(754,-22,o),
(1009,96,o),
(1085,202,q),
(1285,0,l),
(1323,33,l),
(1112,245,l),
(1178,365,o),
(1178,523,qs),
(1178,574,l),
(1118,574,l),
(1118,516,l),
(1118,391,o),
(1072,287,q),
(596,772,l),
(745,874,o),
(878,1041,o),
(878,1159,qs),
(878,1294,o),
(725,1454,o),
(580,1454,qs),
(277,1456,o),
(271,1159,qs),
(271,1065,o),
(411,882,o),
(511,785,q),
(141,604,o),
(135,340,qs),
(124,-15,o),
(578,-22,qs)
);
},
{
closed = 1;
nodes = (
(818,1039,o),
(685,890,o),
(558,812,q),
(456,909,o),
(331,1074,o),
(331,1159,qs),
(331,1265,o),
(456,1399,o),
(580,1399,qs),
(702,1399,o),
(818,1270,o),
(818,1159,qs)
);
},
{
closed = 1;
nodes = (
(194,43,o),
(193,318,qs),
(190,552,o),
(551,745,q),
(1045,242,l),
(911,33,o),
(578,33,q)
);
}
);
width = 1434;
},
{
layerId = m001;
shapes = (
{
closed = 1;
nodes = (
(765,-22,o),
(1000,49,o),
(1076,115,q),
(1226,-37,l),
(1464,180,l),
(1345,303,l),
(1443,428,o),
(1441,615,qs),
(1441,666,l),
(1153,666,l),
(1153,626,l),
(1154,553,o),
(1129,512,q),
(885,761,l),
(985,839,o),
(1077,992,o),
(1077,1098,qs),
(1077,1268,o),
(830,1459,o),
(641,1454,qs),
(211,1445,o),
(210,1098,qs),
(210,1011,o),
(292,874,o),
(361,805,q),
(69,657,o),
(65,383,qs),
(56,-23,o),
(627,-22,qs)
);
},
{
closed = 1;
nodes = (
(766,1024,o),
(700,948,o),
(638,910,q),
(584,954,o),
(521,1034,o),
(521,1081,qs),
(521,1132,o),
(583,1200,o),
(646,1200,qs),
(705,1200,o),
(766,1135,o),
(766,1081,qs)
);
},
{
closed = 1;
nodes = (
(438,247,o),
(438,385,qs),
(437,500,o),
(596,572,q),
(840,323,l),
(771,242,o),
(627,242,q)
);
}
);
width = 1529;
}
);
unicode = 38;
},
{
glyphname = quotesingle;
layers = (
{
layerId = m000;
shapes = (
{
closed = 1;
nodes = (
(182,1092,l),
(206,1432,l),
(133,1432,l),
(133,1092,l)
);
}
);
width = 340;
},
{
layerId = m001;
shapes = (
{
closed = 1;
nodes = (
(351,945,l),
(384,1432,l),
(65,1432,l),
(65,945,l)
);
}
);
width = 449;
}
);
unicode = 39;
},
{
glyphname = parenleft;
layers = (
{
layerId = m000;
shapes = (
{
closed = 1;
nodes = (
(520,-160,l),
(193,111,o),
(193,674,qs),
(193,1243,o),
(520,1508,q),
(447,1508,l),
(278,1377,o),
(133,916,o),
(133,674,qs),
(133,431,o),
(278,-29,o),
(447,-160,q)
);
}
);
width = 609;
},
{
layerId = m001;
shapes = (
{
closed = 1;
nodes = (
(791,-160,l),
(461,142,o),
(461,674,qs),
(461,1212,o),
(791,1508,q),
(350,1508,l),
(207,1368,o),
(65,931,o),
(65,674,qs),
(65,414,o),
(207,-17,o),
(350,-160,q)
);
}
);
width = 811;
}
);
unicode = 40;
},
{
glyphname = parenright;
layers = (
{
layerId = m000;
shapes = (
{
closed = 1;
nodes = (
(162,-160,l),
(331,-29,o),
(476,431,o),
(476,674,qs),
(476,916,o),
(331,1377,o),
(162,1508,q),
(89,1508,l),
(416,1243,o),
(416,674,qs),
(416,111,o),
(89,-160,q)
);
}
);
width = 609;
},
{
layerId = m001;
shapes = (
{
closed = 1;
nodes = (
(461,-160,l),
(604,-17,o),
(746,414,o),
(746,674,qs),
(746,931,o),
(604,1368,o),
(461,1508,q),
(20,1508,l),
(350,1212,o),
(350,674,qs),
(350,142,o),
(20,-160,q)
);
}
);
width = 811;
}
);
unicode = 41;
},
{
glyphname = asterisk;
layers = (
{
layerId = m000;
shapes = (
{
closed = 1;
nodes = (
(460,1068,l),
(673,796,l),
(720,834,l),
(498,1090,l),
(787,1208,l),
(762,1261,l),
(484,1134,l),
(491,1432,l),
(429,1432,l),
(435,1134,l),
(157,1261,l),
(133,1208,l),
(420,1092,l),
(200,834,l),
(246,796,l)
);
}
);
width = 921;
},
{
layerId = m001;
shapes = (
{
closed = 1;
nodes = (
(494,866,l),
(648,655,l),
(869,817,l),
(691,998,l),
(924,1095,l),
(809,1328,l),
(625,1229,l),
(639,1432,l),
(350,1432,l),
(362,1229,l),
(179,1328,l),
(65,1095,l),
(297,999,l),
(120,817,l),
(340,655,l)
);
}
);
width = 988;
}
);
unicode = 42;
},
{
glyphname = plus;
layers = (
{
layerId = m000;
shapes = (
{
closed = 1;
nodes = (
(571,158,l),
(571,520,l),
(949,520,l),
(949,576,l),
(571,576,l),
(571,954,l),
(509,954,l),
(509,576,l),
(133,576,l),
(133,520,l),
(509,520,l),
(509,158,l)
);
}
);
width = 1083;
},
{
layerId = m001;
shapes = (
{
closed = 1;
nodes = (
(667,202,l),
(667,476,l),
(968,476,l),
(968,775,l),
(667,775,l),
(667,1053,l),
(366,1053,l),
(366,775,l),
(65,775,l),
(65,476,l),
(366,476,l),
(366,202,l)
);
}
);
width = 1033;
}
);
unicode = 43;
},
{
glyphname = comma;
layers = (
{
layerId = m000;
shapes = (
{
closed = 1;
nodes = (
(182,-267,l),
(260,73,l),
(186,73,l),
(133,-267,l)
);
}
);
width = 394;
},
{
layerId = m001;
shapes = (
{
closed = 1;
nodes = (
(342,-267,l),
(466,220,l),
(138,220,l),
(65,-267,l)
);
}
);
width = 530;
}
);
unicode = 44;
},
{
glyphname = hyphenminus;
layers = (
{
layerId = m000;
shapes = (
{
closed = 1;
nodes = (
(949,520,l),
(949,576,l),
(133,576,l),
(133,520,l)
);
}
);
width = 1083;
},
{
layerId = m001;
shapes = (
{
closed = 1;
nodes = (
(938,476,l),
(938,775,l),
(65,775,l),
(65,476,l)
);
}
);
width = 1002;
}
);
unicode = 45;
},
{
glyphname = period;
layers = (
{
layerId = m000;
shapes = (
{
closed = 1;
nodes = (
(206,0,l),
(206,73,l),
(133,73,l),
(133,0,l)
);
}
);
width = 340;
},
{
layerId = m001;
shapes = (
{
closed = 1;
nodes = (
(372,0,l),
(372,281,l),
(65,281,l),
(65,0,l)
);
}
);
width = 437;
}
);
unicode = 46;
},
{
glyphname = slash;
layers = (
{
layerId = m000;
shapes = (
{
closed = 1;
nodes = (
(193,0,l),
(713,1472,l),
(653,1472,l),
(133,0,l)
);
}
);
width = 847;
},
{
layerId = m001;
shapes = (
{
closed = 1;
nodes = (
(463,0,l),
(983,1472,l),
(585,1472,l),
(65,0,l)
);
}
);
width = 1048;
}
);
unicode = 47;
},
{
glyphname = zero;
layers = (
{
layerId = m000;
shapes = (
{
closed = 1;
nodes = (
(157,372,o),
(249,216,o),
(405,124,o),
(498,124,qs),
(590,124,o),
(747,216,o),
(839,372,o),
(839,465,qs),
(839,557,o),
(747,714,o),
(590,805,o),
(498,805,qs),
(405,805,o),
(249,714,o),
(157,557,o),
(157,465,qs)
);
},
{
closed = 1;
nodes = (
(216,541,o),
(292,671,o),
(422,747,o),
(498,746,qs),
(575,746,o),
(704,670,o),
(779,541,o),
(779,465,qs),
(779,388,o),
(704,259,o),
(574,183,o),
(498,183,qs),
(421,183,o),
(292,259,o),
(216,388,o),
(216,465,qs)
);
}
);
width = 995;
},
{
layerId = m001;
shapes = (
{
closed = 1;
nodes = (
(109,415,o),
(222,222,o),
(415,108,o),
(531,108,qs),
(646,108,o),
(840,222,o),
(953,415,o),
(953,531,qs),
(953,645,o),
(840,839,o),
(646,951,o),
(531,951,qs),
(415,951,o),
(222,839,o),
(109,645,o),
(109,531,qs)
);
},
{
closed = 1;
nodes = (
(410,563,o),
(444,618,o),
(502,650,o),
(537,650,qs),
(567,650,o),
(619,617,o),
(650,562,o),
(650,531,qs),
(650,498,o),
(619,443,o),
(563,410,o),
(531,410,qs),
(499,410,o),
(443,443,o),
(410,498,o),
(410,531,qs)
);
}
);
width = 1062;
}
);
unicode = 48;
},
{
glyphname = one;
layers = (
{
layerId = m000;
shapes = (
{
closed = 1;
nodes = (
(300,591,l),
(300,730,o),
(267,1079,o),
(237,1209,qs),
(230,1239,l),
(170,1225,l),
(177,1195,l),
(207,1069,o),
(238,728,o),
(238,591,qs),
(238,0,l),
(300,0,l)
);
}
);
width = 471;
},
{
layerId = m001;
shapes = (
{
closed = 1;
nodes = (
(520,672,l),
(520,804,o),
(490,1119,o),
(462,1239,qs),
(424,1402,l),
(99,1326,l),
(137,1164,l),
(161,1065,o),
(186,776,o),
(186,672,qs),
(186,0,l),
(520,0,l)
);
}
);
width = 639;
}
);
unicode = 49;
},
{
glyphname = two;
layers = (
{
layerId = m000;
shapes = (
{
closed = 1;
nodes = (
(272,1057,o),
(237,1209,qs),
(230,1239,l),
(170,1225,l),
(177,1195,l),
(207,1069,o),
(238,728,o),
(238,591,qs),
(238,0,l),
(300,0,l),
(300,586,l),
(300,659,o),
(295,746,q),
(317,699,o),
(442,645,o),
(513,654,qs),
(641,670,o),
(793,829,o),
(796,952,qs),
(799,1024,o),
(787,1141,o),
(772,1219,qs),
(770,1229,o),
(767,1246,q),
(707,1235,l),
(707,1231,o),
(708,1225,qs),
(711,1209,o),
(713,1201,q),
(726,1133,o),
(737,1022,o),
(735,954,qs),
(732,854,o),
(610,727,o),
(504,715,qs),
(424,705,o),
(325,774,o),
(289,837,q)
);
}
);
width = 963;
},
{
layerId = m001;
shapes = (
{
closed = 1;
nodes = (
(487,1130,o),
(462,1239,qs),
(424,1402,l),
(99,1326,l),
(137,1164,l),
(161,1065,o),
(186,776,o),
(186,672,qs),
(186,0,l),
(520,0,l),
(520,593,l),
(520,599,o),
(520,618,q),
(539,597,o),
(609,580,o),
(663,587,qs),
(829,611,o),
(1033,822,o),
(1040,979,qs),
(1043,1062,o),
(1026,1197,o),
(997,1348,qs),
(990,1384,o),
(986,1403,q),
(659,1341,l),
(660,1330,o),
(662,1319,qs),
(665,1301,o),
(672,1269,qs),
(696,1146,o),
(709,1048,o),
(707,992,qs),
(706,960,o),
(662,923,o),
(619,919,q),
(573,913,o),
(511,950,o),
(503,980,q)
);
}
);
width = 1139;
}
);
unicode = 50;
},
{
glyphname = three;
layers = (
{
layerId = m000;
shapes = (
{
closed = 1;
nodes = (
(1109,675,o),
(1270,837,o),
(1274,956,qs),
(1276,1027,o),
(1264,1141,o),
(1249,1222,q),
(1249,1227,o),
(1247,1235,q),
(1245,1245,o),
(1244,1250,q),
(1183,1239,l),
(1184,1233,o),
(1186,1223,q),
(1189,1210,o),
(1190,1204,qs),
(1204,1131,o),
(1215,1027,o),
(1213,959,qs),
(1209,863,o),
(1077,732,o),
(970,719,qs),
(906,711,o),
(800,767,o),
(767,829,q),
(795,887,o),
(796,952,qs),
(798,1024,o),
(786,1141,o),
(771,1219,qs),
(769,1230,o),
(766,1246,q),
(706,1235,l),
(706,1232,o),
(708,1226,q),
(711,1209,o),
(712,1201,q),
(725,1133,o),
(737,1022,o),
(734,954,qs),
(731,854,o),
(609,727,o),
(504,715,qs),
(423,705,o),
(325,774,o),
(289,837,q),
(272,1056,o),
(237,1209,qs),
(230,1239,l),
(170,1225,l),
(177,1195,l),
(207,1069,o),
(238,728,o),
(238,591,qs),
(238,0,l),
(300,0,l),
(300,586,l),
(300,659,o),
(295,746,q),
(317,699,o),
(442,645,o),
(512,654,qs),
(661,675,o),
(735,774,q),
(777,708,o),
(906,649,o),
(978,658,qs)
);
}
);
width = 1440;
},
{
layerId = m001;
shapes = (
{
closed = 1;
nodes = (
(1340,615,o),
(1545,826,o),
(1553,983,q),
(1555,1064,o),
(1538,1200,o),
(1509,1349,q),
(1506,1367,o),
(1504,1376,q),
(1501,1393,o),
(1498,1407,q),
(1170,1346,l),
(1172,1330,o),
(1176,1313,qs),
(1179,1300,o),
(1183,1276,q),
(1208,1147,o),
(1221,1050,o),
(1220,995,q),
(1218,964,o),
(1174,927,o),
(1132,922,qs),
(1104,919,o),
(1057,934,o),
(1028,959,q),
(1030,969,o),
(1030,979,qs),
(1032,1062,o),
(1015,1197,o),
(985,1348,q),
(979,1384,o),
(975,1403,q),
(648,1341,l),
(649,1331,o),
(652,1321,q),
(655,1302,o),
(661,1269,qs),
(685,1146,o),
(698,1048,o),
(696,991,qs),
(695,960,o),
(651,923,o),
(610,919,q),
(563,913,o),
(511,949,o),
(503,979,q),
(487,1130,o),
(462,1239,qs),
(424,1402,l),
(99,1326,l),
(137,1164,l),
(161,1064,o),
(186,776,o),
(186,672,qs),
(186,0,l),
(520,0,l),
(520,606,l),
(520,609,o),
(520,613,q),
(539,594,o),
(605,581,o),
(651,587,qs),
(775,604,o),
(868,672,q),
(933,632,o),
(1095,581,o),
(1173,591,qs)
);
}
);
width = 1652;
}
);
unicode = 51;
},
{
glyphname = four;
layers = (
{
layerId = m000;
shapes = (
{
closed = 1;
nodes = (
(272,1060,o),
(237,1209,qs),
(230,1239,l),
(170,1225,l),
(177,1195,l),
(207,1069,o),
(238,728,o),
(238,591,qs),
(238,0,l),
(300,0,l),
(300,587,l),
(300,662,o),
(295,752,q),
(329,698,o),
(453,607,o),
(680,545,o),
(851,545,qs),
(939,545,o),
(1112,615,o),
(1187,682,q),
(1157,731,l),
(1086,670,o),
(927,606,o),
(850,606,qs),
(784,607,o),
(651,656,o),
(556,779,o),
(556,883,qs),
(558,1017,o),
(719,1187,o),
(854,1192,q),
(901,1192,o),
(993,1165,o),
(1039,1136,q),
(1066,1189,l),
(1018,1222,o),
(909,1253,o),
(856,1252,qs),
(753,1252,o),
(589,1156,o),
(496,989,o),
(497,884,qs),
(497,787,o),
(575,656,o),
(640,619,q),
(489,641,o),
(330,769,o),
(288,844,q)
);
}
);
width = 1329;
},
{
layerId = m001;
shapes = (
{
closed = 1;
nodes = (
(479,1171,o),
(462,1239,qs),
(424,1402,l),
(99,1326,l),
(137,1164,l),
(161,1065,o),
(186,786,o),
(186,672,qs),
(186,0,l),
(520,0,l),
(520,621,l),
(520,630,o),
(520,636,q),
(554,608,o),
(674,561,o),
(874,531,o),
(1016,531,qs),
(1109,531,o),
(1242,566,o),
(1336,606,q),
(1283,923,l),
(1165,888,o),
(1058,863,o),
(1018,864,q),
(981,866,o),
(929,883,o),
(899,931,o),
(901,975,qs),
(904,1026,o),
(960,1087,o),
(1011,1091,qs),
(1032,1093,o),
(1101,1079,o),
(1194,1055,q),
(1268,1364,l),
(1212,1387,o),
(1074,1426,o),
(1031,1427,qs),
(912,1431,o),
(711,1319,o),
(590,1110,o),
(588,975,qs),
(588,965,o),
(590,948,o),
(591,939,q),
(558,958,o),
(502,1047,o),
(490,1082,q)
);
}
);
width = 1434;
}
);
unicode = 52;
},
{
glyphname = five;
layers = (
{
layerId = m000;
shapes = (
{
closed = 1;
nodes = (
(621,1214,l),
(637,1202,o),
(668,1177,qs),
(719,1138,o),
(743,1118,qs),
(867,1021,o),
(1031,872,o),
(1172,682,o),
(1247,464,o),
(1247,334,qs),
(1247,245,o),
(1163,90,o),
(1022,-2,o),
(940,-2,qs),
(869,-2,o),
(738,70,o),
(699,131,q),
(662,67,o),
(535,-2,o),
(449,-2,qs),
(367,-2,o),
(234,87,o),
(159,240,o),
(159,334,qs),
(159,537,o),
(458,924,o),
(692,1081,q),
(668,1100,o),
(618,1139,qs),
(595,1156,o),
(583,1166,q)
);
},
{
closed = 1;
nodes = (
(999,60,o),
(1113,131,o),
(1186,257,o),
(1186,334,qs),
(1186,486,o),
(1076,728,o),
(889,925,o),
(740,1042,q),
(512,890,o),
(220,523,o),
(220,334,qs),
(220,257,o),
(279,132,o),
(384,60,o),
(449,60,qs),
(561,60,o),
(689,194,o),
(689,314,qs),
(689,391,l),
(747,391,l),
(747,318,l),
(748,256,o),
(729,197,q),
(756,138,o),
(872,60,o),
(940,60,qs)
);
}
);
width = 1407;
},
{
layerId = m001;
shapes = (
{
closed = 1;
nodes = (
(651,1477,l),
(675,1458,o),
(702,1435,qs),
(730,1412,o),
(786,1366,qs),
(944,1239,o),
(1128,1077,o),
(1309,851,o),
(1408,595,o),
(1408,446,qs),
(1408,324,o),
(1291,114,o),
(1093,-11,o),
(978,-11,qs),
(883,-11,o),
(771,44,o),
(737,96,q),
(694,43,o),
(578,-11,o),
(492,-11,qs),
(375,-11,o),
(185,111,o),
(78,320,o),
(78,446,qs),
(78,655,o),
(331,1020,o),
(526,1148,q),
(497,1172,o),
(472,1193,q),
(459,1203,o),
(446,1214,q)
);
},
{
closed = 1;
nodes = (
(999,323,o),
(1044,355,o),
(1075,411,o),
(1075,446,qs),
(1075,542,o),
(1003,707,o),
(872,859,o),
(766,949,q),
(609,827,o),
(411,572,o),
(411,446,qs),
(411,403,o),
(436,348,o),
(474,324,o),
(492,324,qs),
(539,324,o),
(603,361,o),
(603,428,qs),
(603,595,l),
(893,595,l),
(893,491,l),
(893,459,o),
(892,422,q),
(909,362,o),
(951,323,o),
(978,323,qs)
);
}
);
width = 1485;
}
);
unicode = 53;
},
{
glyphname = six;
layers = (
{
layerId = m000;
shapes = (
{
closed = 1;
nodes = (
(793,670,o),
(603,606,o),
(515,606,qs),
(450,606,o),
(316,656,o),
(221,779,o),
(221,883,qs),
(223,1017,o),
(384,1187,o),
(520,1192,q),
(566,1192,o),
(662,1165,o),
(707,1136,q),
(733,1189,l),
(684,1221,o),
(574,1253,o),
(520,1252,qs),
(417,1252,o),
(253,1156,o),
(161,989,o),
(161,884,qs),
(161,765,o),
(269,614,o),
(429,548,o),
(511,548,qs),
(613,548,o),
(722,596,q),
(596,469,o),
(371,168,o),
(294,6,q),
(349,-20,l),
(449,190,o),
(755,558,o),
(912,692,q),
(873,738,l)
);
}
);
width = 1061;
},
{
layerId = m001;
shapes = (
{
closed = 1;
nodes = (
(750,892,o),
(586,852,o),
(529,854,q),
(495,854,o),
(440,878,o),
(409,931,o),
(412,975,q),
(414,1026,o),
(470,1087,o),
(522,1091,qs),
(547,1093,o),
(659,1077,o),
(737,1055,q),
(811,1364,l),
(761,1384,o),
(587,1426,o),
(541,1427,qs),
(422,1431,o),
(221,1319,o),
(100,1110,o),
(98,974,qs),
(96,849,o),
(194,669,o),
(361,576,o),
(460,575,qs),
(464,575,o),
(468,576,q),
(401,484,o),
(272,259,o),
(205,117,q),
(496,-22,l),
(620,242,o),
(860,561,o),
(1020,694,q),
(811,938,l)
);
}
);
width = 1089;
}
);
unicode = 54;
},
{
glyphname = seven;
layers = (
{
layerId = m000;
shapes = (
{
closed = 1;
nodes = (
(951,938,o),
(686,270,o),
(668,-5,q),
(605,-5,l),
(593,183,o),
(457,620,o),
(258,1042,o),
(146,1221,q),
(199,1250,l),
(294,1098,o),
(467,748,o),
(604,345,o),
(637,139,q),
(669,345,o),
(806,748,o),
(979,1098,o),
(1074,1250,q),
(1127,1221,l)
);
}
);
width = 1272;
},
{
layerId = m001;
shapes = (
{
closed = 1;
nodes = (
(1040,894,o),
(794,144,o),
(791,0,q),
(454,0,l),
(454,94,o),
(346,498,o),
(146,1012,o),
(14,1261,q),
(288,1438,l),
(362,1301,o),
(467,1068,o),
(572,738,o),
(625,503,q),
(676,738,o),
(780,1068,o),
(886,1302,o),
(959,1438,q),
(1234,1261,l)
);
}
);
width = 1248;
}
);
unicode = 55;
},
{
glyphname = eight;
layers = (
{
layerId = m000;
shapes = (
{
closed = 1;
nodes = (
(951,305,o),
(686,973,o),
(668,1248,q),
(605,1248,l),
(593,1061,o),
(457,624,o),
(258,202,o),
(146,22,q),
(199,-7,l),
(294,145,o),
(467,495,o),
(604,898,o),
(637,1104,q),
(669,898,o),
(806,495,o),
(979,145,o),
(1074,-7,q),
(1127,22,l)
);
}
);
width = 1207;
},
{
layerId = m001;
shapes = (
{
closed = 1;
nodes = (
(1040,507,o),
(794,1257,o),
(791,1401,q),
(454,1402,l),
(454,1309,o),
(350,918,o),
(146,389,o),
(14,140,q),
(288,-36,l),
(361,99,o),
(467,333,o),
(572,663,o),
(625,898,q),
(676,663,o),
(780,332,o),
(886,98,o),
(959,-36,q),
(1234,140,l)
);
}
);
width = 1246;
}
);
unicode = 56;
},
{
glyphname = nine;
layers = (
{
layerId = m000;
shapes = (
{
closed = 1;
nodes = (
(827,714,l),
(760,658,o),
(632,615,o),
(555,606,q),
(553,605,o),
(549,605,q),
(542,604,o),
(539,604,q),
(456,593,o),
(314,663,o),
(231,801,o),
(231,886,qs),
(232,966,o),
(314,1104,o),
(451,1186,o),
(531,1186,qs),
(620,1186,o),
(754,1089,o),
(827,933,o),
(827,848,qs)
);
},
{
closed = 1;
nodes = (
(827,0,l),
(888,0,l),
(888,848,l),
(888,949,o),
(801,1133,o),
(638,1247,o),
(531,1247,qs),
(435,1247,o),
(269,1149,o),
(170,982,o),
(170,886,qs),
(170,784,o),
(272,616,o),
(446,529,o),
(548,542,q),
(550,543,o),
(556,543,q),
(603,549,o),
(630,555,qs),
(739,577,o),
(827,641,q)
);
}
);
width = 1061;
},
{
layerId = m001;
shapes = (
{
closed = 1;
nodes = (
(697,866,l),
(675,854,o),
(613,842,o),
(565,837,q),
(562,836,o),
(561,836,q),
(557,835,o),
(555,836,q),
(525,831,o),
(468,856,o),
(433,913,o),
(433,953,qs),
(433,988,o),
(470,1051,o),
(531,1088,o),
(566,1088,qs),
(607,1088,o),
(666,1036,o),
(697,957,o),
(697,919,qs)
);
},
{
closed = 1;
nodes = (
(697,0,l),
(1029,0,l),
(1029,919,l),
(1029,1046,o),
(916,1277,o),
(705,1421,o),
(566,1421,qs),
(442,1421,o),
(227,1294,o),
(99,1079,o),
(99,955,qs),
(99,818,o),
(238,598,o),
(469,486,o),
(600,503,q),
(601,504,o),
(603,503,q),
(611,504,o),
(630,508,q),
(674,514,o),
(697,519,q)
);
}
);
width = 1149;
}
);
unicode = 57;
},
{
glyphname = colon;
layers = (
{
layerId = m000;
shapes = (
{
closed = 1;
nodes = (
(211,747,l),
(211,825,l),
(133,825,l),
(133,747,l)
);
},
{
closed = 1;
nodes = (
(211,73,l),
(211,151,l),
(133,151,l),
(133,73,l)
);
}
);
width = 345;
},
{
layerId = m001;
shapes = (
{
closed = 1;
nodes = (
(372,709,l),
(372,995,l),
(65,995,l),
(65,709,l)
);
},
{
closed = 1;
nodes = (
(372,44,l),
(372,330,l),
(65,330,l),
(65,44,l)
);
}
);
width = 436;
}
);
unicode = 58;
},
{
glyphname = semicolon;
layers = (
{
layerId = m000;
shapes = (
{
closed = 1;
nodes = (
(264,747,l),
(264,825,l),
(186,825,l),
(186,747,l)
);
},
{
closed = 1;
nodes = (
(182,-189,l),
(260,151,l),
(186,151,l),
(133,-189,l)
);
}
);
width = 398;
},
{
layerId = m001;
shapes = (
{
closed = 1;
nodes = (
(459,709,l),
(459,995,l),
(152,995,l),
(152,709,l)
);
},
{
closed = 1;
nodes = (
(342,-243,l),
(466,244,l),
(138,244,l),
(65,-243,l)
);
}
);
width = 531;
}
);
unicode = 59;
},
{
glyphname = less;
layers = (
{
layerId = m000;
shapes = (
{
closed = 1;
nodes = (
(1080,231,l),
(195,641,l),
(1080,1050,l),
(1080,1114,l),
(133,667,l),
(133,614,l),
(1080,167,l)
);
}
);
width = 1214;
},
{
layerId = m001;
shapes = (
{
closed = 1;
nodes = (
(1139,413,l),
(477,690,l),
(1139,966,l),
(1139,1327,l),
(65,849,l),
(65,530,l),
(1139,52,l)
);
}
);
width = 1204;
}
);
unicode = 60;
},
{
glyphname = greater;
layers = (
{
layerId = m000;
shapes = (
{
closed = 1;
nodes = (
(1080,614,l),
(1080,667,l),
(133,1114,l),
(133,1050,l),
(1018,641,l),
(133,231,l),
(133,167,l)
);
}
);
width = 1214;
},
{
layerId = m001;
shapes = (
{
closed = 1;
nodes = (
(1139,530,l),
(1139,849,l),
(65,1327,l),
(65,966,l),
(727,690,l),
(65,413,l),
(65,52,l)
);
}
);
width = 1204;
}
);
unicode = 62;
},
{
glyphname = lessthanorequalto;
layers = (
{
layerId = m000;
shapes = (
{
closed = 1;
nodes = (
(1080,231,l),
(195,641,l),
(1080,1050,l),
(1080,1114,l),
(133,667,l),
(133,614,l),
(1080,167,l)
);
},
{
closed = 1;
nodes = (
(1080,0,l),
(1080,56,l),
(133,56,l),
(133,0,l)
);
}
);
width = 1214;
},
{
layerId = m001;
shapes = (
{
closed = 1;
nodes = (
(1139,632,l),
(477,893,l),
(1139,1154,l),
(1139,1476,l),
(65,1022,l),
(65,764,l),
(1139,309,l)
);
},
{
closed = 1;
nodes = (
(1139,0,l),
(1139,261,l),
(65,261,l),
(65,0,l)
);
}
);
width = 1204;
}
);
unicode = 8804;
},
{
glyphname = greaterthanorequalto;
layers = (
{
layerId = m000;
shapes = (
{
closed = 1;
nodes = (
(1080,614,l),
(1080,667,l),
(133,1114,l),
(133,1050,l),
(1018,641,l),
(133,231,l),
(133,167,l)
);
},
{
closed = 1;
nodes = (
(1080,0,l),
(1080,56,l),
(133,56,l),
(133,0,l)
);
}
);
width = 1214;
},
{
layerId = m001;
shapes = (
{
closed = 1;
nodes = (
(1139,764,l),
(1139,1022,l),
(65,1476,l),
(65,1154,l),
(727,893,l),
(65,632,l),
(65,309,l)
);
},
{
closed = 1;
nodes = (
(1139,0,l),
(1139,261,l),
(65,261,l),
(65,0,l)
);
}
);
width = 1204;
}
);
unicode = 8805;
},
{
glyphname = equal;
layers = (
{
layerId = m000;
shapes = (
{
closed = 1;
nodes = (
(965,658,l),
(965,714,l),
(133,714,l),
(133,658,l)
);
},
{
closed = 1;
nodes = (
(965,389,l),
(965,447,l),
(133,447,l),
(133,389,l)
);
}
);
width = 1099;
},
{
layerId = m001;
shapes = (
{
closed = 1;
nodes = (
(943,689,l),
(943,957,l),
(65,957,l),
(65,689,l)
);
},
{
closed = 1;
nodes = (
(943,287,l),
(943,556,l),
(65,556,l),
(65,287,l)
);
}
);
width = 1007;
}
);
unicode = 61;
},
{
glyphname = notequalto;
layers = (
{
layerId = m000;
shapes = (
{
closed = 1;
nodes = (
(429,93,l),
(533,389,l),
(965,389,l),
(965,447,l),
(553,447,l),
(629,658,l),
(965,658,l),
(965,714,l),
(649,714,l),
(753,1007,l),
(693,1007,l),
(589,714,l),
(133,714,l),
(133,658,l),
(569,658,l),
(493,447,l),
(133,447,l),
(133,389,l),
(473,389,l),
(369,93,l)
);
}
);
width = 1099;
},
{
layerId = m001;
shapes = (
{
closed = 1;
nodes = (
(415,78,l),
(479,287,l),
(943,287,l),
(943,556,l),
(555,556,l),
(598,689,l),
(943,689,l),
(943,957,l),
(673,957,l),
(735,1157,l),
(568,1157,l),
(506,957,l),
(65,957,l),
(65,689,l),
(431,689,l),
(388,556,l),
(65,556,l),
(65,287,l),
(312,287,l),
(247,78,l)
);
}
);
width = 1007;
}
);
unicode = 8800;
},
{
glyphname = plusminus;
layers = (
{
layerId = m000;
shapes = (
{
closed = 1;
nodes = (
(571,158,l),
(571,520,l),
(949,520,l),
(949,576,l),
(571,576,l),
(571,954,l),
(509,954,l),
(509,576,l),
(133,576,l),
(133,520,l),
(509,520,l),
(509,158,l)
);
},
{
closed = 1;
nodes = (
(949,0,l),
(949,56,l),
(133,56,l),
(133,0,l)
);
}
);
width = 1083;
},
{
layerId = m001;
shapes = (
{
closed = 1;
nodes = (
(667,387,l),
(667,661,l),
(968,661,l),
(968,960,l),
(667,960,l),
(667,1238,l),
(366,1238,l),
(366,960,l),
(65,960,l),
(65,661,l),
(366,661,l),
(366,387,l)
);
},
{
closed = 1;
nodes = (
(968,0,l),
(968,299,l),
(65,299,l),
(65,0,l)
);
}
);
width = 1033;
}
);
unicode = 177;
},
{
glyphname = multiply;
layers = (
{
layerId = m000;
shapes = (
{
closed = 1;
nodes = (
(749,280,l),
(482,547,l),
(749,816,l),
(707,858,l),
(438,592,l),
(173,858,l),
(133,818,l),
(400,554,l),
(144,296,l),
(186,254,l),
(444,509,l),
(711,242,l)
);
}
);
width = 883;
},
{
layerId = m001;
shapes = (
{
closed = 1;
nodes = (
(883,335,l),
(662,556,l),
(883,778,l),
(694,967,l),
(471,748,l),
(255,970,l),
(65,780,l),
(286,560,l),
(73,348,l),
(263,159,l),
(477,370,l),
(697,149,l)
);
}
);
width = 947;
}
);
unicode = 215;
},
{
glyphname = divide;
layers = (
{
layerId = m000;
shapes = (
{
closed = 1;
nodes = (
(580,843,l),
(580,932,l),
(500,932,l),
(500,843,l)
);
},
{
closed = 1;
nodes = (
(949,520,l),
(949,576,l),
(133,576,l),
(133,520,l)
);
},
{
closed = 1;
nodes = (
(580,180,l),
(580,269,l),
(500,269,l),
(500,180,l)
);
}
);
width = 1083;
},
{
layerId = m001;
shapes = (
{
closed = 1;
nodes = (
(628,915,l),
(628,1157,l),
(372,1157,l),
(372,915,l)
);
},
{
closed = 1;
nodes = (
(938,476,l),
(938,775,l),
(65,775,l),
(65,476,l)
);
},
{
closed = 1;
nodes = (
(628,100,l),
(628,342,l),
(372,342,l),
(372,100,l)
);
}
);
width = 1002;
}
);
unicode = 247;
},
{
glyphname = at;
layers = (
{
layerId = m000;
shapes = (
{
closed = 1;
nodes = (
(1063,-294,o),
(1245,-254,q),
(1245,-196,l),
(1103,-238,o),
(860,-238,qs),
(560,-238,o),
(193,64,o),
(193,418,qs),
(193,778,o),
(547,1112,o),
(903,1112,qs),
(1218,1112,o),
(1514,841,o),
(1514,569,qs),
(1514,354,o),
(1376,167,o),
(1227,167,q),
(1227,583,l),
(1227,758,o),
(1072,907,o),
(887,907,qs),
(796,907,o),
(640,885,o),
(584,861,q),
(584,803,l),
(711,852,o),
(869,852,qs),
(998,852,o),
(1123,798,o),
(1165,687,o),
(1165,578,qs),
(1165,478,l),
(816,478,l),
(473,478,o),
(473,207,qs),
(473,76,o),
(651,-44,o),
(796,-44,qs),
(1043,-44,o),
(1176,109,q),
(1218,109,l),
(1401,109,o),
(1574,347,o),
(1574,569,qs),
(1574,861,o),
(1243,1168,o),
(903,1168,qs),
(522,1168,o),
(133,801,o),
(133,418,qs),
(133,33,o),
(531,-294,o),
(865,-294,qs)
);
},
{
closed = 1;
nodes = (
(676,11,o),
(533,102,o),
(533,207,qs),
(533,318,o),
(658,420,o),
(818,420,qs),
(1165,420,l),
(1165,173,l),
(1096,89,o),
(927,11,o),
(809,11,qs)
);
}
);
width = 1708;
},
{
layerId = m001;
shapes = (
{
closed = 1;
nodes = (
(1064,-294,o),
(1246,-254,q),
(1246,-35,l),
(1104,-77,o),
(861,-77,qs),
(602,-77,o),
(328,159,o),
(328,415,qs),
(328,688,o),
(610,951,o),
(887,951,qs),
(1121,951,o),
(1359,748,o),
(1359,546,qs),
(1359,418,o),
(1294,300,o),
(1228,300,q),
(1228,534,l),
(1228,695,o),
(1062,843,o),
(882,843,qs),
(794,843,o),
(626,816,o),
(568,792,q),
(568,638,l),
(695,679,o),
(825,679,qs),
(896,679,o),
(974,654,o),
(1007,609,o),
(1007,564,qs),
(1007,528,l),
(792,528,l),
(471,528,o),
(471,276,qs),
(471,151,o),
(627,28,o),
(751,28,qs),
(932,28,o),
(1044,112,q),
(1164,112,l),
(1393,112,o),
(1622,345,o),
(1622,564,qs),
(1622,850,o),
(1233,1168,o),
(887,1168,qs),
(503,1168,o),
(65,796,o),
(65,418,qs),
(65,57,o),
(494,-294,o),
(866,-294,qs)
);
},
{
closed = 1;
nodes = (
(781,181,o),
(717,227,o),
(717,277,qs),
(717,332,o),
(780,383,o),
(852,383,qs),
(1007,383,l),
(1007,256,l),
(974,217,o),
(894,181,o),
(839,181,qs)
);
}
);
width = 1687;
}
);
unicode = 64;
},
{
glyphname = A;
layers = (
{
layerId = m000;
shapes = (
{
closed = 1;
nodes = (
(197,0,l),
(364,445,l),
(1083,445,l),
(1249,0,l),
(1312,0,l),
(774,1432,l),
(673,1432,l),
(133,0,l)
);
},
{
closed = 1;
nodes = (
(722,1397,l),
(1060,500,l),
(384,500,l)
);
}
);
width = 1446;
},
{
layerId = m001;
shapes = (
{
closed = 1;
nodes = (
(470,0,l),
(593,323,l),
(1049,323,l),
(1170,0,l),
(1576,0,l),
(1029,1432,l),
(613,1432,l),
(65,0,l)
);
},
{
closed = 1;
nodes = (
(819,1061,l),
(1000,592,l),
(639,592,l)
);
}
);
width = 1640;
}
);
unicode = 65;
},
{
glyphname = B;
layers = (
{
layerId = m000;
shapes = (
{
closed = 1;
nodes = (
(823,0,l),
(1030,0,o),
(1228,193,o),
(1228,403,qs),
(1228,554,o),
(1094,723,o),
(972,745,q),
(1168,827,o),
(1168,1063,qs),
(1168,1248,o),
(983,1432,o),
(776,1432,qs),
(178,1432,l),
(178,0,l)
);
},
{
closed = 1;
nodes = (
(240,1377,l),
(765,1377,l),
(961,1377,o),
(1108,1223,o),
(1108,1063,qs),
(1108,778,o),
(810,772,qs),
(240,772,l)
);
},
{
closed = 1;
nodes = (
(240,716,l),
(794,716,l),
(916,716,o),
(1081,661,o),
(1170,523,o),
(1168,403,qs),
(1168,218,o),
(1008,56,o),
(832,56,qs),
(240,56,l)
);
}
);
width = 1361;
},
{
layerId = m001;
shapes = (
{
closed = 1;
nodes = (
(901,0,l),
(1129,0,o),
(1373,219,o),
(1373,424,qs),
(1373,552,o),
(1268,695,o),
(1168,731,q),
(1321,825,o),
(1321,1039,qs),
(1321,1231,o),
(1097,1432,o),
(880,1432,qs),
(109,1432,l),
(109,0,l)
);
},
{
closed = 1;
nodes = (
(475,1164,l),
(777,1164,l),
(875,1164,o),
(958,1085,o),
(958,1005,qs),
(958,850,o),
(791,848,qs),
(475,848,l)
);
},
{
closed = 1;
nodes = (
(475,601,l),
(786,601,l),
(849,601,o),
(934,571,o),
(977,500,o),
(977,443,qs),
(977,351,o),
(890,269,o),
(798,269,qs),
(475,269,l)
);
}
);
width = 1430;
}
);
unicode = 66;
},
{
glyphname = C;
layers = (
{
layerId = m000;
shapes = (
{
closed = 1;
nodes = (
(878,-22,o),
(1080,4,o),
(1165,31,q),
(1165,89,l),
(994,33,o),
(776,33,qs),
(469,33,o),
(331,205,qs),
(197,371,o),
(193,669,qs),
(193,1019,o),
(453,1399,o),
(769,1399,qs),
(998,1399,o),
(1165,1334,q),
(1165,1392,l),
(1085,1423,o),
(882,1454,o),
(762,1454,qs),
(427,1454,o),
(133,1041,o),
(133,669,qs),
(133,349,o),
(442,-22,o),
(762,-22,qs)
);
}
);
width = 1299;
},
{
layerId = m001;
shapes = (
{
closed = 1;
nodes = (
(975,-22,o),
(1182,12,o),
(1287,48,q),
(1287,389,l),
(1093,307,o),
(879,307,qs),
(675,307,o),
(569,404,qs),
(462,496,o),
(461,701,qs),
(461,917,o),
(662,1125,o),
(874,1125,qs),
(1091,1125,o),
(1284,1040,q),
(1284,1381,l),
(1187,1418,o),
(976,1454,o),
(847,1454,qs),
(454,1454,o),
(65,1069,o),
(65,701,qs),
(65,351,o),
(460,-22,o),
(850,-22,qs)
);
}
);
width = 1351;
}
);
unicode = 67;
},
{
glyphname = D;
layers = (
{
layerId = m000;
shapes = (
{
closed = 1;
nodes = (
(696,0,l),
(1001,0,o),
(1250,331,o),
(1250,705,qs),
(1250,967,o),
(1141,1283,o),
(899,1432,o),
(696,1432,qs),
(178,1432,l),
(178,0,l)
);
},
{
closed = 1;
nodes = (
(240,1377,l),
(674,1377,l),
(896,1377,o),
(1121,1210,o),
(1190,930,o),
(1190,705,qs),
(1190,509,o),
(1128,254,o),
(1001,113,o),
(812,56,o),
(674,56,qs),
(240,56,l)
);
}
);
width = 1383;
},
{
layerId = m001;
shapes = (
{
closed = 1;
nodes = (
(739,0,l),
(1080,0,o),
(1423,340,o),
(1423,707,qs),
(1423,964,o),
(1266,1285,o),
(963,1432,o),
(739,1432,qs),
(109,1432,l),
(109,0,l)
);
},
{
closed = 1;
nodes = (
(498,1112,l),
(689,1112,l),
(824,1112,o),
(968,1033,o),
(1028,861,o),
(1028,707,qs),
(1028,582,o),
(984,421,o),
(900,333,o),
(777,299,o),
(689,299,qs),
(498,299,l)
);
}
);
width = 1480;
}
);
unicode = 68;
},
{
glyphname = E;
layers = (
{
layerId = m000;
shapes = (
{
closed = 1;
nodes = (
(1085,0,l),
(1085,56,l),
(240,56,l),
(240,689,l),
(1008,689,l),
(1008,745,l),
(240,745,l),
(240,1377,l),
(1085,1377,l),
(1085,1432,l),
(178,1432,l),
(178,0,l)
);
}
);
width = 1197;
},
{
layerId = m001;
shapes = (
{
closed = 1;
nodes = (
(1180,0,l),
(1180,284,l),
(498,284,l),
(498,570,l),
(1098,570,l),
(1098,863,l),
(498,863,l),
(498,1149,l),
(1180,1149,l),
(1180,1432,l),
(109,1432,l),
(109,0,l)
);
}
);
width = 1223;
}
);
unicode = 69;
},
{
glyphname = F;
layers = (
{
layerId = m000;
shapes = (
{
closed = 1;
nodes = (
(240,0,l),
(240,689,l),
(965,689,l),
(965,745,l),
(240,745,l),
(240,1377,l),
(1045,1377,l),
(1045,1432,l),
(178,1432,l),
(178,0,l)
);
}
);
width = 1112;
},
{
layerId = m001;
shapes = (
{
closed = 1;
nodes = (
(498,0,l),
(498,570,l),
(1084,570,l),
(1084,863,l),
(498,863,l),
(498,1149,l),
(1167,1149,l),
(1167,1432,l),
(109,1432,l),
(109,0,l)
);
}
);
width = 1188;
}
);
unicode = 70;
},
{
glyphname = G;
layers = (
{
layerId = m000;
shapes = (
{
closed = 1;
nodes = (
(947,-22,o),
(1194,40,o),
(1261,82,q),
(1261,743,l),
(767,743,l),
(767,685,l),
(1198,685,l),
(1198,107,l),
(1005,33,o),
(778,33,qs),
(622,33,o),
(400,120,o),
(331,205,qs),
(193,376,o),
(193,669,qs),
(193,1019,o),
(455,1399,o),
(771,1399,qs),
(983,1399,o),
(1165,1343,q),
(1165,1401,l),
(991,1454,o),
(762,1454,qs),
(429,1454,o),
(133,1039,o),
(133,669,qs),
(133,349,o),
(444,-22,o),
(765,-22,qs)
);
}
);
width = 1394;
},
{
layerId = m001;
shapes = (
{
closed = 1;
nodes = (
(1020,-22,o),
(1294,51,o),
(1386,106,q),
(1386,823,l),
(762,823,l),
(762,581,l),
(1060,581,l),
(1060,341,l),
(958,307,o),
(837,307,qs),
(690,307,o),
(526,423,o),
(505,557,q),
(461,722,o),
(532,856,q),
(567,987,o),
(737,1127,o),
(888,1125,qs),
(1126,1125,o),
(1303,1060,q),
(1303,1393,l),
(1120,1454,o),
(861,1454,qs),
(465,1454,o),
(65,1067,o),
(65,701,qs),
(65,352,o),
(456,-22,o),
(836,-22,qs)
);
}
);
width = 1465;
}
);
unicode = 71;
},
{
glyphname = H;
layers = (
{
layerId = m000;
shapes = (
{
closed = 1;
nodes = (
(240,0,l),
(240,689,l),
(1132,689,l),
(1132,0,l),
(1194,0,l),
(1194,1432,l),
(1132,1432,l),
(1132,745,l),
(240,745,l),
(240,1432,l),
(178,1432,l),
(178,0,l)
);
}
);
width = 1372;
},
{
layerId = m001;
shapes = (
{
closed = 1;
nodes = (
(498,0,l),
(498,536,l),
(1023,536,l),
(1023,0,l),
(1412,0,l),
(1412,1432,l),
(1023,1432,l),
(1023,896,l),
(498,896,l),
(498,1432,l),
(109,1432,l),
(109,0,l)
);
}
);
width = 1522;
}
);
unicode = 72;
},
{
glyphname = I;
layers = (
{
layerId = m000;
shapes = (
{
closed = 1;
nodes = (
(240,0,l),
(240,1432,l),
(178,1432,l),
(178,0,l)
);
}
);
width = 418;
},
{
layerId = m001;
shapes = (
{
closed = 1;
nodes = (
(498,0,l),
(498,1432,l),
(109,1432,l),
(109,0,l)
);
}
);
width = 608;
}
);
unicode = 73;
},
{
glyphname = J;
layers = (
{
layerId = m000;
shapes = (
{
closed = 1;
nodes = (
(520,-22,o),
(702,158,o),
(702,340,qs),
(702,1432,l),
(640,1432,l),
(640,340,l),
(640,180,o),
(491,36,o),
(315,36,qs),
(155,36,o),
(44,89,q),
(44,31,l),
(164,-22,o),
(324,-22,qs)
);
}
);
width = 870;
},
{
layerId = m001;
shapes = (
{
closed = 1;
nodes = (
(615,-22,o),
(888,208,o),
(888,436,qs),
(888,1432,l),
(498,1432,l),
(498,527,l),
(498,409,o),
(394,310,o),
(270,310,qs),
(123,310,o),
(14,355,q),
(14,29,l),
(160,-22,o),
(349,-22,qs)
);
}
);
width = 986;
}
);
unicode = 74;
},
{
glyphname = K;
layers = (
{
layerId = m000;
shapes = (
{
closed = 1;
nodes = (
(240,0,l),
(240,536,l),
(518,823,l),
(1048,0,l),
(1119,0,l),
(563,865,l),
(1112,1432,l),
(1028,1432,l),
(240,620,l),
(240,1432,l),
(178,1432,l),
(178,0,l)
);
}
);
width = 1252;
},
{
layerId = m001;
shapes = (
{
closed = 1;
nodes = (
(498,0,l),
(498,424,l),
(655,600,l),
(1023,0,l),
(1437,0,l),
(896,847,l),
(1404,1432,l),
(961,1432,l),
(498,903,l),
(498,1432,l),
(109,1432,l),
(109,0,l)
);
}
);
width = 1478;
}
);
unicode = 75;
},
{
glyphname = L;
layers = (
{
layerId = m000;
shapes = (
{
closed = 1;
nodes = (
(1063,0,l),
(1063,56,l),
(240,56,l),
(240,1432,l),
(178,1432,l),
(178,0,l)
);
}
);
width = 1152;
},
{
layerId = m001;
shapes = (
{
closed = 1;
nodes = (
(1158,0,l),
(1158,299,l),
(498,299,l),
(498,1432,l),
(109,1432,l),
(109,0,l)
);
}
);
width = 1186;
}
);
unicode = 76;
},
{
glyphname = M;
layers = (
{
layerId = m000;
shapes = (
{
closed = 1;
nodes = (
(240,0,l),
(240,1363,l),
(785,251,l),
(856,251,l),
(1399,1363,l),
(1399,0,l),
(1461,0,l),
(1461,1432,l),
(1370,1432,l),
(821,305,l),
(269,1432,l),
(178,1432,l),
(178,0,l)
);
}
);
width = 1639;
},
{
layerId = m001;
shapes = (
{
closed = 1;
nodes = (
(498,0,l),
(498,771,l),
(756,246,l),
(966,246,l),
(1223,771,l),
(1223,0,l),
(1612,0,l),
(1612,1432,l),
(1232,1432,l),
(862,673,l),
(489,1432,l),
(109,1432,l),
(109,0,l)
);
}
);
width = 1722;
}
);
unicode = 77;
},
{
glyphname = N;
layers = (
{
layerId = m000;
shapes = (
{
closed = 1;
nodes = (
(240,0,l),
(240,1348,l),
(1197,0,l),
(1266,0,l),
(1266,1432,l),
(1203,1432,l),
(1203,85,l),
(247,1432,l),
(178,1432,l),
(178,0,l)
);
}
);
width = 1443;
},
{
layerId = m001;
shapes = (
{
closed = 1;
nodes = (
(498,0,l),
(498,807,l),
(1071,0,l),
(1405,0,l),
(1405,1432,l),
(1015,1432,l),
(1015,626,l),
(441,1432,l),
(109,1432,l),
(109,0,l)
);
}
);
width = 1514;
}
);
unicode = 78;
},
{
glyphname = O;
layers = (
{
layerId = m000;
shapes = (
{
closed = 1;
nodes = (
(1074,-22,o),
(1383,360,o),
(1383,703,qs),
(1383,1090,o),
(1083,1454,o),
(758,1454,qs),
(433,1454,o),
(133,1090,o),
(133,703,qs),
(133,360,o),
(442,-22,o),
(758,-22,qs)
);
},
{
closed = 1;
nodes = (
(475,33,o),
(193,374,o),
(193,703,qs),
(193,959,o),
(318,1261,o),
(564,1399,o),
(758,1399,qs),
(951,1399,o),
(1198,1261,o),
(1323,959,o),
(1323,703,qs),
(1323,374,o),
(1040,33,o),
(758,33,qs)
);
}
);
width = 1517;
},
{
layerId = m001;
shapes = (
{
closed = 1;
nodes = (
(1145,-22,o),
(1511,337,o),
(1511,712,qs),
(1511,1102,o),
(1150,1454,o),
(788,1454,qs),
(426,1454,o),
(65,1102,o),
(65,712,qs),
(65,337,o),
(431,-22,o),
(788,-22,qs)
);
},
{
closed = 1;
nodes = (
(618,308,o),
(461,504,o),
(461,712,qs),
(461,864,o),
(531,1042,o),
(672,1124,o),
(788,1124,qs),
(903,1124,o),
(1044,1042,o),
(1114,864,o),
(1114,712,qs),
(1114,504,o),
(957,308,o),
(788,308,qs)
);
}
);
width = 1575;
}
);
unicode = 79;
},
{
glyphname = P;
layers = (
{
layerId = m000;
shapes = (
{
closed = 1;
nodes = (
(240,0,l),
(240,580,l),
(705,580,l),
(845,580,o),
(1050,681,o),
(1157,870,o),
(1157,1003,qs),
(1157,1205,o),
(939,1432,o),
(714,1432,qs),
(178,1432,l),
(178,0,l)
);
},
{
closed = 1;
nodes = (
(240,1377,l),
(721,1377,l),
(907,1377,o),
(1097,1185,o),
(1097,1003,qs),
(1097,832,o),
(899,636,o),
(710,636,qs),
(240,636,l)
);
}
);
width = 1245;
},
{
layerId = m001;
shapes = (
{
closed = 1;
nodes = (
(498,0,l),
(498,401,l),
(821,401,l),
(978,401,o),
(1215,533,o),
(1342,766,o),
(1342,914,qs),
(1342,1145,o),
(1083,1432,o),
(830,1432,qs),
(109,1432,l),
(109,0,l)
);
},
{
closed = 1;
nodes = (
(498,1126,l),
(745,1126,l),
(846,1126,o),
(947,1018,o),
(947,914,qs),
(947,818,o),
(839,708,o),
(736,708,qs),
(498,708,l)
);
}
);
width = 1362;
}
);
unicode = 80;
},
{
glyphname = Q;
layers = (
{
layerId = m000;
shapes = (
{
closed = 1;
nodes = (
(1043,-383,o),
(1132,-360,q),
(1132,-302,l),
(1043,-325,o),
(974,-325,qs),
(858,-325,o),
(771,-187,o),
(771,-22,q),
(1080,-16,o),
(1383,363,o),
(1383,703,qs),
(1383,1090,o),
(1083,1454,o),
(758,1454,qs),
(433,1454,o),
(133,1090,o),
(133,703,qs),
(133,385,o),
(407,-2,o),
(711,-20,q),
(711,-189,o),
(825,-383,o),
(974,-383,qs)
);
},
{
closed = 1;
nodes = (
(475,33,o),
(193,374,o),
(193,703,qs),
(193,959,o),
(318,1261,o),
(564,1399,o),
(758,1399,qs),
(951,1399,o),
(1198,1261,o),
(1323,959,o),
(1323,703,qs),
(1323,374,o),
(1040,33,o),
(758,33,qs)
);
}
);
width = 1517;
},
{
layerId = m001;
shapes = (
{
closed = 1;
nodes = (
(1128,-383,o),
(1238,-351,q),
(1238,-128,l),
(1157,-154,o),
(1079,-154,qs),
(1007,-154,o),
(937,-88,o),
(931,-13,q),
(1218,16,o),
(1511,374,o),
(1511,712,qs),
(1511,1102,o),
(1150,1454,o),
(788,1454,qs),
(426,1454,o),
(65,1102,o),
(65,712,qs),
(65,390,o),
(337,29,o),
(614,-9,q),
(620,-183,o),
(797,-383,o),
(986,-383,qs)
);
},
{
closed = 1;
nodes = (
(618,308,o),
(461,504,o),
(461,712,qs),
(461,864,o),
(531,1042,o),
(672,1124,o),
(788,1124,qs),
(903,1124,o),
(1044,1042,o),
(1114,864,o),
(1114,712,qs),
(1114,504,o),
(957,308,o),
(788,308,qs)
);
}
);
width = 1575;
}
);
unicode = 81;
},
{
glyphname = R;
layers = (
{
layerId = m000;
shapes = (
{
closed = 1;
nodes = (
(240,0,l),
(240,607,l),
(612,607,l),
(752,607,o),
(865,540,o),
(903,449,qs),
(1099,0,l),
(1161,0,l),
(963,463,l),
(932,532,o),
(881,598,o),
(830,618,q),
(992,643,o),
(1157,850,o),
(1157,1023,qs),
(1157,1219,o),
(959,1432,o),
(747,1432,qs),
(178,1432,l),
(178,0,l)
);
},
{
closed = 1;
nodes = (
(240,1377,l),
(754,1377,l),
(925,1377,o),
(1097,1201,o),
(1097,1023,qs),
(1097,663,o),
(725,663,qs),
(240,663,l)
);
}
);
width = 1294;
},
{
layerId = m001;
shapes = (
{
closed = 1;
nodes = (
(498,0,l),
(498,440,l),
(630,440,l),
(691,440,o),
(744,405,o),
(764,359,qs),
(921,0,l),
(1326,0,l),
(1148,413,l),
(1131,451,o),
(1096,496,o),
(1065,511,q),
(1194,573,o),
(1342,789,o),
(1342,936,qs),
(1342,1162,o),
(1090,1432,o),
(840,1432,qs),
(109,1432,l),
(109,0,l)
);
},
{
closed = 1;
nodes = (
(498,1126,l),
(755,1126,l),
(851,1126,o),
(947,1034,o),
(947,936,qs),
(947,747,o),
(740,747,qs),
(498,747,l)
);
}
);
width = 1408;
}
);
unicode = 82;
},
{
glyphname = S;
layers = (
{
layerId = m000;
shapes = (
{
closed = 1;
nodes = (
(827,-22,o),
(1092,165,o),
(1092,356,qs),
(1092,463,o),
(1003,609,o),
(800,714,o),
(627,752,qs),
(571,765,o),
(524,776,q),
(335,827,o),
(193,956,o),
(193,1079,qs),
(193,1241,o),
(422,1399,o),
(649,1399,qs),
(856,1399,o),
(1003,1348,q),
(1003,1403,l),
(949,1423,o),
(742,1454,o),
(631,1454,qs),
(380,1454,o),
(133,1252,o),
(133,1079,qs),
(133,930,o),
(333,761,o),
(580,707,qs),
(698,683,o),
(776,656,qs),
(911,609,o),
(1031,471,o),
(1031,356,qs),
(1031,31,o),
(571,31,qs),
(460,31,o),
(264,62,o),
(173,91,q),
(173,36,l),
(253,7,o),
(447,-22,o),
(571,-22,qs)
);
}
);
width = 1225;
},
{
layerId = m001;
shapes = (
{
closed = 1;
nodes = (
(868,-22,o),
(1175,202,o),
(1175,406,qs),
(1175,532,o),
(1103,698,o),
(915,823,o),
(744,867,qs),
(716,874,o),
(679,883,q),
(551,919,o),
(461,977,o),
(461,1033,qs),
(461,1108,o),
(614,1173,o),
(722,1171,qs),
(907,1171,o),
(1094,1096,q),
(1094,1391,l),
(1017,1415,o),
(760,1454,o),
(653,1454,qs),
(358,1454,o),
(65,1237,o),
(65,1030,qs),
(65,858,o),
(236,675,o),
(457,601,q),
(518,585,o),
(587,563,q),
(689,526,o),
(775,459,o),
(775,405,qs),
(775,260,o),
(534,259,qs),
(426,259,o),
(185,316,o),
(87,359,q),
(87,65,l),
(176,24,o),
(429,-22,o),
(573,-22,qs)
);
}
);
width = 1239;
}
);
unicode = 83;
},
{
glyphname = T;
layers = (
{
layerId = m000;
shapes = (
{
closed = 1;
nodes = (
(665,0,l),
(665,1377,l),
(1177,1377,l),
(1177,1432,l),
(89,1432,l),
(89,1377,l),
(603,1377,l),
(603,0,l)
);
}
);
width = 1265;
},
{
layerId = m001;
shapes = (
{
closed = 1;
nodes = (
(829,0,l),
(829,1149,l),
(1240,1149,l),
(1240,1432,l),
(28,1432,l),
(28,1149,l),
(440,1149,l),
(440,0,l)
);
}
);
width = 1267;
}
);
unicode = 84;
},
{
glyphname = U;
layers = (
{
layerId = m000;
shapes = (
{
closed = 1;
nodes = (
(1014,-22,o),
(1292,249,o),
(1292,514,qs),
(1292,1432,l),
(1230,1432,l),
(1230,487,l),
(1230,262,o),
(972,36,o),
(730,36,qs),
(489,36,o),
(229,262,o),
(229,487,qs),
(229,1432,l),
(167,1432,l),
(167,514,l),
(167,249,o),
(445,-22,o),
(730,-22,qs)
);
}
);
width = 1459;
},
{
layerId = m001;
shapes = (
{
closed = 1;
nodes = (
(1070,-22,o),
(1434,275,o),
(1434,549,qs),
(1434,1432,l),
(1045,1432,l),
(1045,588,l),
(1045,449,o),
(903,310,o),
(767,310,qs),
(629,310,o),
(487,449,o),
(487,588,qs),
(487,1432,l),
(98,1432,l),
(98,549,l),
(98,275,o),
(462,-22,o),
(767,-22,qs)
);
}
);
width = 1532;
}
);
unicode = 85;
},
{
glyphname = V;
layers = (
{
layerId = m000;
shapes = (
{
closed = 1;
nodes = (
(774,0,l),
(1312,1432,l),
(1247,1432,l),
(722,36,l),
(197,1432,l),
(133,1432,l),
(673,0,l)
);
}
);
width = 1446;
},
{
layerId = m001;
shapes = (
{
closed = 1;
nodes = (
(1029,0,l),
(1576,1432,l),
(1170,1432,l),
(819,449,l),
(470,1432,l),
(65,1432,l),
(613,0,l)
);
}
);
width = 1640;
}
);
unicode = 86;
},
{
glyphname = W;
layers = (
{
layerId = m000;
shapes = (
{
closed = 1;
nodes = (
(569,0,l),
(949,1268,l),
(1303,0,l),
(1403,0,l),
(1734,1432,l),
(1672,1432,l),
(1350,44,l),
(958,1432,l),
(905,1432,l),
(905,1303,l),
(520,44,l),
(197,1432,l),
(133,1432,l),
(467,0,l)
);
}
);
width = 1868;
},
{
layerId = m001;
shapes = (
{
closed = 1;
nodes = (
(753,0,l),
(999,785,l),
(1227,0,l),
(1581,0,l),
(1912,1432,l),
(1534,1432,l),
(1349,620,l),
(1116,1432,l),
(799,1432,l),
(799,1225,l),
(622,622,l),
(446,1432,l),
(65,1432,l),
(399,0,l)
);
}
);
width = 1980;
}
);
unicode = 87;
},
{
glyphname = X;
layers = (
{
layerId = m000;
shapes = (
{
closed = 1;
nodes = (
(197,0,l),
(662,665,l),
(1127,0,l),
(1192,0,l),
(698,705,l),
(1192,1432,l),
(1127,1432,l),
(662,741,l),
(197,1432,l),
(133,1432,l),
(625,705,l),
(133,0,l)
);
}
);
width = 1326;
},
{
layerId = m001;
shapes = (
{
closed = 1;
nodes = (
(533,0,l),
(825,408,l),
(1119,0,l),
(1587,0,l),
(1060,723,l),
(1569,1432,l),
(1106,1432,l),
(825,1035,l),
(545,1432,l),
(83,1432,l),
(592,723,l),
(65,0,l)
);
}
);
width = 1651;
}
);
unicode = 88;
},
{
glyphname = Y;
layers = (
{
layerId = m000;
shapes = (
{
closed = 1;
nodes = (
(705,0,l),
(705,538,l),
(1214,1432,l),
(1149,1432,l),
(673,596,l),
(197,1432,l),
(133,1432,l),
(642,538,l),
(642,0,l)
);
}
);
width = 1348;
},
{
layerId = m001;
shapes = (
{
closed = 1;
nodes = (
(962,0,l),
(962,526,l),
(1477,1432,l),
(1071,1432,l),
(767,857,l),
(462,1432,l),
(57,1432,l),
(572,526,l),
(572,0,l)
);
}
);
width = 1534;
}
);
unicode = 89;
},
{
glyphname = Z;
layers = (
{
layerId = m000;
shapes = (
{
closed = 1;
nodes = (
(1132,0,l),
(1132,56,l),
(211,56,l),
(1120,1374,l),
(1120,1432,l),
(171,1432,l),
(171,1377,l),
(1049,1377,l),
(133,49,l),
(133,0,l)
);
}
);
width = 1254;
},
{
layerId = m001;
shapes = (
{
closed = 1;
nodes = (
(1235,0,l),
(1235,299,l),
(582,299,l),
(1222,1204,l),
(1222,1432,l),
(98,1432,l),
(98,1112,l),
(712,1112,l),
(65,197,l),
(65,0,l)
);
}
);
width = 1288;
}
);
unicode = 90;
},
{
glyphname = bracketleft;
layers = (
{
layerId = m000;
shapes = (
{
closed = 1;
nodes = (
(602,-220,l),
(607,-165,l),
(195,-165,l),
(195,1515,l),
(607,1515,l),
(602,1570,l),
(133,1570,l),
(133,-220,l)
);
}
);
width = 718;
},
{
layerId = m001;
shapes = (
{
closed = 1;
nodes = (
(777,-220,l),
(788,78,l),
(454,78,l),
(454,1272,l),
(787,1272,l),
(776,1570,l),
(65,1570,l),
(65,-220,l)
);
}
);
width = 830;
}
);
unicode = 91;
},
{
glyphname = backslash;
layers = (
{
layerId = m000;
shapes = (
{
closed = 1;
nodes = (
(756,-120,l),
(193,1472,l),
(133,1472,l),
(696,-120,l)
);
}
);
width = 890;
},
{
layerId = m001;
shapes = (
{
closed = 1;
nodes = (
(1030,-120,l),
(469,1472,l),
(65,1472,l),
(628,-120,l)
);
}
);
width = 1094;
}
);
unicode = 92;
},
{
glyphname = bracketright;
layers = (
{
layerId = m000;
shapes = (
{
closed = 1;
nodes = (
(585,-220,l),
(585,1570,l),
(115,1570,l),
(111,1515,l),
(522,1515,l),
(522,-165,l),
(111,-165,l),
(115,-220,l)
);
}
);
width = 718;
},
{
layerId = m001;
shapes = (
{
closed = 1;
nodes = (
(765,-220,l),
(765,1570,l),
(54,1570,l),
(44,1272,l),
(375,1272,l),
(375,78,l),
(42,78,l),
(52,-220,l)
);
}
);
width = 830;
}
);
unicode = 93;
},
{
glyphname = a;
layers = (
{
layerId = m000;
shapes = (
{
closed = 1;
nodes = (
(649,-22,o),
(860,58,o),
(936,145,q),
(945,0,l),
(994,0,l),
(994,709,l),
(994,905,o),
(805,1076,o),
(593,1076,qs),
(493,1076,o),
(318,1050,o),
(251,1023,q),
(251,965,l),
(404,1021,o),
(573,1021,qs),
(718,1021,o),
(871,959,o),
(931,825,o),
(931,705,qs),
(931,569,l),
(511,569,l),
(333,569,o),
(133,436,o),
(133,267,qs),
(133,120,o),
(335,-22,o),
(498,-22,qs)
);
},
{
closed = 1;
nodes = (
(193,33,o),
(193,267,qs),
(193,411,o),
(360,514,o),
(516,512,qs),
(931,512,l),
(931,211,l),
(791,33,o),
(513,33,qs)
);
}
);
width = 1161;
},
{
layerId = m001;
shapes = (
{
closed = 1;
nodes = (
(560,-22,o),
(742,38,o),
(805,98,q),
(823,0,l),
(1163,0,l),
(1163,654,l),
(1163,868,o),
(884,1076,o),
(629,1076,qs),
(511,1076,o),
(279,1042,o),
(194,1005,q),
(194,788,l),
(368,844,o),
(549,844,qs),
(636,844,o),
(742,812,o),
(791,752,o),
(791,702,qs),
(791,652,l),
(498,652,l),
(283,652,o),
(65,486,o),
(65,310,qs),
(65,141,o),
(270,-22,o),
(435,-22,qs)
);
},
{
closed = 1;
nodes = (
(425,197,o),
(425,321,qs),
(425,391,o),
(511,448,o),
(595,448,qs),
(791,448,l),
(791,286,l),
(715,197,o),
(578,197,qs)
);
}
);
width = 1260;
}
);
unicode = 97;
},
{
glyphname = b;
layers = (
{
layerId = m000;
shapes = (
{
closed = 1;
nodes = (
(856,-22,o),
(1099,254,o),
(1099,536,qs),
(1099,816,o),
(861,1076,o),
(634,1076,qs),
(516,1076,o),
(325,1021,o),
(240,956,q),
(240,1499,l),
(178,1499,l),
(178,0,l),
(229,0,l),
(238,127,l),
(318,51,o),
(505,-22,o),
(629,-22,qs)
);
},
{
closed = 1;
nodes = (
(392,33,o),
(240,191,q),
(240,892,l),
(398,1021,o),
(614,1021,qs),
(832,1021,o),
(1039,792,o),
(1039,536,qs),
(1039,287,o),
(839,33,o),
(618,33,qs)
);
}
);
width = 1232;
},
{
layerId = m001;
shapes = (
{
closed = 1;
nodes = (
(1021,-22,o),
(1281,259,o),
(1281,536,qs),
(1281,811,o),
(1035,1076,o),
(779,1076,qs),
(701,1076,o),
(553,1045,o),
(498,1011,q),
(498,1499,l),
(109,1499,l),
(109,0,l),
(446,0,l),
(466,87,l),
(533,33,o),
(690,-22,o),
(791,-22,qs)
);
},
{
closed = 1;
nodes = (
(580,259,o),
(498,332,q),
(498,731,l),
(575,795,o),
(680,795,qs),
(783,795,o),
(884,673,o),
(884,530,qs),
(884,389,o),
(785,259,o),
(680,259,qs)
);
}
);
width = 1345;
}
);
unicode = 98;
},
{
glyphname = c;
layers = (
{
layerId = m000;
shapes = (
{
closed = 1;
nodes = (
(800,-22,o),
(925,31,q),
(925,89,l),
(791,33,o),
(651,33,qs),
(407,33,o),
(193,274,o),
(193,527,qs),
(193,774,o),
(435,1021,o),
(665,1021,qs),
(805,1021,o),
(925,965,q),
(925,1023,l),
(865,1052,o),
(751,1076,o),
(658,1076,qs),
(409,1076,o),
(133,801,o),
(133,527,qs),
(133,262,o),
(375,-22,o),
(636,-22,qs)
);
}
);
width = 992;
},
{
layerId = m001;
shapes = (
{
closed = 1;
nodes = (
(900,-22,o),
(1062,48,q),
(1062,335,l),
(911,259,o),
(763,259,qs),
(607,259,o),
(461,389,o),
(461,527,qs),
(461,665,o),
(612,795,o),
(765,795,qs),
(928,795,o),
(1059,731,q),
(1059,1006,l),
(977,1044,o),
(801,1076,o),
(680,1076,qs),
(393,1076,o),
(65,803,o),
(65,527,qs),
(65,257,o),
(387,-22,o),
(677,-22,qs)
);
}
);
width = 1105;
}
);
unicode = 99;
},
{
glyphname = d;
layers = (
{
layerId = m000;
shapes = (
{
closed = 1;
nodes = (
(727,-22,o),
(914,51,o),
(994,127,q),
(1003,0,l),
(1054,0,l),
(1054,1499,l),
(991,1499,l),
(991,956,l),
(905,1023,o),
(738,1076,o),
(620,1076,qs),
(371,1076,o),
(137,772,o),
(133,514,qs),
(133,240,o),
(391,-22,o),
(602,-22,qs)
);
},
{
closed = 1;
nodes = (
(409,33,o),
(193,274,o),
(193,514,qs),
(193,770,o),
(422,1021,o),
(640,1021,qs),
(753,1021,o),
(918,956,o),
(991,892,q),
(991,191,l),
(916,113,o),
(727,33,o),
(613,33,qs)
);
}
);
width = 1232;
},
{
layerId = m001;
shapes = (
{
closed = 1;
nodes = (
(657,-22,o),
(811,33,o),
(880,87,q),
(900,0,l),
(1237,0,l),
(1237,1499,l),
(847,1499,l),
(847,1011,l),
(791,1044,o),
(650,1076,o),
(573,1076,qs),
(334,1076,o),
(66,778,o),
(65,500,qs),
(65,229,o),
(326,-22,o),
(554,-22,qs)
);
},
{
closed = 1;
nodes = (
(555,259,o),
(463,376,o),
(461,503,qs),
(461,648,o),
(571,795,o),
(673,795,qs),
(726,795,o),
(810,763,o),
(847,731,q),
(847,332,l),
(805,295,o),
(720,259,o),
(664,259,qs)
);
}
);
width = 1345;
}
);
unicode = 100;
},
{
glyphname = e;
layers = (
{
layerId = m000;
shapes = (
{
closed = 1;
nodes = (
(738,-22,o),
(878,4,o),
(947,31,q),
(947,89,l),
(880,60,o),
(742,33,o),
(673,33,qs),
(415,33,o),
(202,247,o),
(195,485,q),
(1018,485,l),
(1018,667,l),
(1018,847,o),
(814,1076,o),
(604,1076,qs),
(353,1076,o),
(137,798,o),
(133,536,qs),
(133,247,o),
(378,-22,o),
(662,-22,qs)
);
},
{
closed = 1;
nodes = (
(195,772,o),
(384,1023,o),
(604,1021,qs),
(785,1021,o),
(956,830,o),
(956,658,qs),
(956,543,l),
(195,543,l)
);
}
);
width = 1152;
},
{
layerId = m001;
shapes = (
{
closed = 1;
nodes = (
(815,-22,o),
(1024,13,o),
(1104,49,q),
(1104,266,l),
(1043,242,o),
(870,212,o),
(784,212,qs),
(621,212,o),
(447,311,o),
(422,415,q),
(1163,415,l),
(1163,595,l),
(1163,827,o),
(870,1076,o),
(623,1076,qs),
(355,1076,o),
(69,796,o),
(65,527,qs),
(65,259,o),
(394,-22,o),
(681,-22,qs)
);
},
{
closed = 1;
nodes = (
(422,723,o),
(524,841,o),
(635,841,qs),
(737,841,o),
(827,746,o),
(827,667,qs),
(827,618,l),
(422,618,l)
);
}
);
width = 1227;
}
);
unicode = 101;
},
{
glyphname = f;
layers = (
{
layerId = m000;
shapes = (
{
closed = 1;
nodes = (
(318,0,l),
(318,996,l),
(618,996,l),
(623,1054,l),
(318,1054,l),
(318,1261,l),
(318,1374,o),
(431,1479,o),
(563,1479,qs),
(627,1479,o),
(696,1454,q),
(696,1512,l),
(636,1535,o),
(545,1535,qs),
(405,1535,o),
(256,1392,o),
(256,1257,qs),
(256,1054,l),
(89,1054,l),
(89,996,l),
(256,996,l),
(256,0,l)
);
}
);
width = 745;
},
{
layerId = m001;
shapes = (
{
closed = 1;
nodes = (
(570,0,l),
(570,770,l),
(806,770,l),
(823,1054,l),
(570,1054,l),
(570,1133,l),
(570,1198,o),
(642,1262,o),
(719,1262,qs),
(789,1262,o),
(852,1238,q),
(852,1486,l),
(744,1535,o),
(580,1535,qs),
(388,1535,o),
(181,1320,o),
(181,1141,qs),
(181,1054,l),
(43,1054,l),
(43,770,l),
(181,770,l),
(181,0,l)
);
}
);
width = 883;
}
);
unicode = 102;
},
{
glyphname = g;
layers = (
{
layerId = m000;
shapes = (
{
closed = 1;
nodes = (
(1048,1054,l),
(1048,-107,l),
(1048,-207,o),
(930,-356,o),
(717,-436,o),
(576,-436,qs),
(452,-436,o),
(234,-409,o),
(158,-383,q),
(158,-325,l),
(247,-351,o),
(467,-380,o),
(574,-380,qs),
(757,-380,o),
(986,-227,o),
(986,-107,qs),
(983,98,l),
(899,36,o),
(730,-22,o),
(610,-22,qs),
(363,-22,o),
(123,278,o),
(127,534,qs),
(127,1076,o),
(596,1076,qs),
(848,1076,o),
(988,927,q),
(997,1054,l)
);
},
{
closed = 1;
nodes = (
(187,280,o),
(405,33,o),
(625,33,qs),
(739,33,o),
(903,100,o),
(986,162,q),
(986,863,l),
(834,1021,o),
(608,1021,qs),
(385,1021,o),
(187,783,o),
(187,534,qs)
);
}
);
width = 1225;
},
{
layerId = m001;
shapes = (
{
closed = 1;
nodes = (
(1235,1054,l),
(1235,-38,l),
(1236,-167,o),
(1039,-332,o),
(754,-405,o),
(616,-405,qs),
(484,-405,o),
(181,-377,o),
(109,-352,q),
(109,-123,l),
(192,-149,o),
(472,-178,o),
(592,-178,qs),
(707,-178,o),
(899,-91,o),
(899,-38,qs),
(897,61,l),
(835,30,o),
(644,-22,o),
(570,-22,qs),
(322,-22,o),
(62,267,o),
(63,539,qs),
(63,1076,o),
(552,1076,qs),
(747,1076,o),
(878,967,q),
(898,1054,l)
);
},
{
closed = 1;
nodes = (
(459,392,o),
(564,259,o),
(668,259,qs),
(722,259,o),
(805,293,o),
(845,323,q),
(845,722,l),
(770,795,o),
(663,795,qs),
(558,795,o),
(459,673,o),
(459,534,qs)
);
}
);
width = 1343;
}
);
unicode = 103;
},
{
glyphname = h;
layers = (
{
layerId = m000;
shapes = (
{
closed = 1;
nodes = (
(240,0,l),
(240,847,l),
(325,927,o),
(532,1021,o),
(652,1021,qs),
(850,1021,o),
(990,881,o),
(990,705,qs),
(990,0,l),
(1052,0,l),
(1052,705,l),
(1052,898,o),
(876,1076,o),
(685,1076,qs),
(541,1076,o),
(331,996,o),
(240,916,q),
(240,1499,l),
(178,1499,l),
(178,0,l)
);
}
);
width = 1219;
},
{
layerId = m001;
shapes = (
{
closed = 1;
nodes = (
(498,0,l),
(498,702,l),
(536,739,o),
(640,787,o),
(695,787,qs),
(783,787,o),
(851,717,o),
(851,636,qs),
(851,0,l),
(1240,0,l),
(1240,667,l),
(1240,878,o),
(1041,1076,o),
(827,1076,qs),
(729,1076,o),
(559,1027,o),
(498,983,q),
(498,1499,l),
(109,1499,l),
(109,0,l)
);
}
);
width = 1338;
}
);
unicode = 104;
},
{
glyphname = i;
layers = (
{
layerId = m000;
shapes = (
{
closed = 1;
nodes = (
(256,1357,l),
(256,1454,l),
(178,1454,l),
(178,1357,l)
);
},
{
closed = 1;
nodes = (
(247,0,l),
(247,1054,l),
(185,1056,l),
(185,0,l)
);
}
);
width = 434;
},
{
layerId = m001;
shapes = (
{
closed = 1;
nodes = (
(529,1209,l),
(529,1494,l),
(109,1494,l),
(109,1209,l)
);
},
{
closed = 1;
nodes = (
(527,0,l),
(527,1054,l),
(111,1054,l),
(111,0,l)
);
}
);
width = 639;
}
);
unicode = 105;
},
{
glyphname = j;
layers = (
{
layerId = m000;
shapes = (
{
closed = 1;
nodes = (
(399,1357,l),
(399,1454,l),
(321,1454,l),
(321,1357,l)
);
},
{
closed = 1;
nodes = (
(241,-520,o),
(390,-374,o),
(390,-245,qs),
(390,1054,l),
(327,1054,l),
(327,-245,l),
(327,-251,o),
(327,-258,qs),
(325,-360,o),
(212,-465,o),
(92,-465,qs),
(27,-465,o),
(-44,-440,q),
(-44,-498,l),
(23,-520,o),
(112,-520,qs)
);
}
);
width = 572;
},
{
layerId = m001;
shapes = (
{
closed = 1;
nodes = (
(658,1209,l),
(658,1494,l),
(238,1494,l),
(238,1209,l)
);
},
{
closed = 1;
nodes = (
(458,-520,o),
(655,-316,o),
(655,-143,qs),
(655,1054,l),
(239,1054,l),
(239,-118,l),
(239,-121,o),
(239,-127,qs),
(240,-190,o),
(190,-248,o),
(120,-248,qs),
(51,-248,o),
(-14,-224,q),
(-14,-472,l),
(111,-520,o),
(260,-520,qs)
);
}
);
width = 766;
}
);
unicode = 106;
},
{
glyphname = k;
layers = (
{
layerId = m000;
shapes = (
{
closed = 1;
nodes = (
(240,0,l),
(240,431,l),
(436,612,l),
(874,0,l),
(941,0,l),
(478,649,l),
(914,1054,l),
(834,1054,l),
(240,507,l),
(240,1499,l),
(178,1499,l),
(178,0,l)
);
}
);
width = 1032;
},
{
layerId = m001;
shapes = (
{
closed = 1;
nodes = (
(498,0,l),
(498,315,l),
(593,410,l),
(869,0,l),
(1282,0,l),
(836,614,l),
(1258,1054,l),
(817,1054,l),
(498,738,l),
(498,1499,l),
(109,1499,l),
(109,0,l)
);
}
);
width = 1326;
}
);
unicode = 107;
},
{
glyphname = l;
layers = (
{
layerId = m000;
shapes = (
{
closed = 1;
nodes = (
(360,-22,o),
(412,-18,o),
(432,-11,q),
(432,47,l),
(396,36,o),
(336,36,qs),
(287,36,o),
(240,96,o),
(240,169,qs),
(240,1499,l),
(178,1499,l),
(178,178,l),
(178,69,o),
(263,-22,o),
(340,-22,qs)
);
}
);
width = 509;
},
{
layerId = m001;
shapes = (
{
closed = 1;
nodes = (
(523,-22,o),
(624,-6,o),
(689,21,q),
(689,269,l),
(644,252,o),
(582,252,qs),
(538,252,o),
(498,296,o),
(498,349,qs),
(498,1499,l),
(109,1499,l),
(109,303,l),
(109,132,o),
(269,-22,o),
(450,-22,qs)
);
}
);
width = 720;
}
);
unicode = 108;
},
{
glyphname = m;
layers = (
{
layerId = m000;
shapes = (
{
closed = 1;
nodes = (
(240,0,l),
(240,847,l),
(325,923,o),
(536,1021,o),
(638,1021,qs),
(803,1021,o),
(921,865,o),
(916,696,q),
(916,0,l),
(979,0,l),
(979,696,l),
(979,794,o),
(961,865,q),
(1117,1021,o),
(1341,1021,qs),
(1506,1021,o),
(1653,878,o),
(1653,707,qs),
(1653,0,l),
(1715,0,l),
(1715,709,l),
(1715,896,o),
(1541,1076,o),
(1361,1076,qs),
(1117,1076,o),
(939,919,q),
(905,996,o),
(765,1076,o),
(643,1076,qs),
(427,1076,o),
(240,916,q),
(229,1054,l),
(178,1054,l),
(178,0,l)
);
}
);
width = 1882;
},
{
layerId = m001;
shapes = (
{
closed = 1;
nodes = (
(483,0,l),
(483,705,l),
(522,743,o),
(614,787,o),
(659,787,qs),
(728,787,o),
(782,720,o),
(780,649,q),
(780,0,l),
(1141,0,l),
(1141,659,l),
(1141,692,o),
(1135,718,q),
(1201,787,o),
(1296,787,qs),
(1374,787,o),
(1437,721,o),
(1437,643,qs),
(1437,0,l),
(1819,0,l),
(1819,688,l),
(1819,885,o),
(1646,1076,o),
(1462,1076,qs),
(1247,1076,o),
(1084,960,q),
(1049,1019,o),
(928,1076,o),
(828,1076,qs),
(641,1076,o),
(478,966,q),
(467,1054,l),
(109,1054,l),
(109,0,l)
);
}
);
width = 1917;
}
);
unicode = 109;
},
{
glyphname = n;
layers = (
{
layerId = m000;
shapes = (
{
closed = 1;
nodes = (
(240,0,l),
(240,847,l),
(325,927,o),
(532,1021,o),
(652,1021,qs),
(850,1021,o),
(990,881,o),
(990,705,qs),
(990,0,l),
(1052,0,l),
(1052,705,l),
(1052,898,o),
(876,1076,o),
(685,1076,qs),
(541,1076,o),
(331,996,o),
(240,916,q),
(229,1054,l),
(178,1054,l),
(178,0,l)
);
}
);
width = 1219;
},
{
layerId = m001;
shapes = (
{
closed = 1;
nodes = (
(498,0,l),
(498,702,l),
(536,739,o),
(640,787,o),
(695,787,qs),
(783,787,o),
(851,719,o),
(851,639,qs),
(851,0,l),
(1240,0,l),
(1240,687,l),
(1240,886,o),
(1065,1076,o),
(877,1076,qs),
(758,1076,o),
(556,1019,o),
(483,970,q),
(472,1054,l),
(109,1054,l),
(109,0,l)
);
}
);
width = 1338;
}
);
unicode = 110;
},
{
glyphname = o;
layers = (
{
layerId = m000;
shapes = (
{
closed = 1;
nodes = (
(867,-22,o),
(1094,251,o),
(1094,527,qs),
(1094,801,o),
(862,1076,o),
(613,1076,qs),
(364,1076,o),
(133,801,o),
(133,527,qs),
(133,254,o),
(364,-22,o),
(613,-22,qs)
);
},
{
closed = 1;
nodes = (
(460,33,o),
(275,142,o),
(193,363,o),
(193,527,qs),
(193,781,o),
(389,1021,o),
(613,1021,qs),
(767,1021,o),
(951,912,o),
(1034,692,o),
(1034,527,qs),
(1034,363,o),
(951,142,o),
(767,33,o),
(613,33,qs)
);
}
);
width = 1228;
},
{
layerId = m001;
shapes = (
{
closed = 1;
nodes = (
(979,-22,o),
(1278,251,o),
(1278,527,qs),
(1278,801,o),
(976,1076,o),
(670,1076,qs),
(363,1076,o),
(65,801,o),
(65,527,qs),
(65,254,o),
(363,-22,o),
(670,-22,qs)
);
},
{
closed = 1;
nodes = (
(597,259,o),
(504,315,o),
(461,435,o),
(461,527,qs),
(461,669,o),
(561,795,o),
(670,795,qs),
(746,795,o),
(839,739,o),
(882,622,o),
(882,527,qs),
(882,433,o),
(839,315,o),
(746,259,o),
(670,259,qs)
);
}
);
width = 1342;
}
);
unicode = 111;
},
{
glyphname = p;
layers = (
{
layerId = m000;
shapes = (
{
closed = 1;
nodes = (
(240,-480,l),
(240,98,l),
(325,36,o),
(496,-22,o),
(616,-22,qs),
(863,-22,o),
(1103,278,o),
(1099,534,qs),
(1099,1076,o),
(629,1076,qs),
(378,1076,o),
(238,927,q),
(229,1054,l),
(178,1054,l),
(178,-480,l)
);
},
{
closed = 1;
nodes = (
(487,33,o),
(323,100,o),
(240,162,q),
(240,863,l),
(392,1021,o),
(618,1021,qs),
(841,1021,o),
(1039,783,o),
(1039,534,qs),
(1039,280,o),
(821,33,o),
(601,33,qs)
);
}
);
width = 1232;
},
{
layerId = m001;
shapes = (
{
closed = 1;
nodes = (
(498,-456,l),
(498,43,l),
(557,13,o),
(698,-22,o),
(773,-22,qs),
(1020,-22,o),
(1282,267,o),
(1281,539,qs),
(1281,1076,o),
(791,1076,qs),
(596,1076,o),
(466,967,q),
(446,1054,l),
(109,1054,l),
(109,-456,l)
);
},
{
closed = 1;
nodes = (
(621,259,o),
(538,293,o),
(498,323,q),
(498,722,l),
(574,795,o),
(680,795,qs),
(786,795,o),
(884,673,o),
(884,534,qs),
(884,392,o),
(780,259,o),
(676,259,qs)
);
}
);
width = 1345;
}
);
unicode = 112;
},
{
glyphname = q;
layers = (
{
layerId = m000;
shapes = (
{
closed = 1;
nodes = (
(986,-480,l),
(986,98,l),
(901,36,o),
(730,-22,o),
(610,-22,qs),
(363,-22,o),
(123,278,o),
(127,534,qs),
(127,1076,o),
(596,1076,qs),
(846,1076,o),
(988,927,q),
(997,1054,l),
(1048,1054,l),
(1048,-480,l)
);
},
{
closed = 1;
nodes = (
(739,33,o),
(903,100,o),
(986,162,q),
(986,863,l),
(834,1021,o),
(608,1021,qs),
(385,1021,o),
(187,783,o),
(187,534,qs),
(187,280,o),
(405,33,o),
(625,33,qs)
);
}
);
width = 1225;
},
{
layerId = m001;
shapes = (
{
closed = 1;
nodes = (
(845,-456,l),
(845,43,l),
(786,13,o),
(646,-22,o),
(570,-22,qs),
(323,-22,o),
(62,267,o),
(63,539,qs),
(63,1076,o),
(552,1076,qs),
(745,1076,o),
(878,967,q),
(898,1054,l),
(1235,1054,l),
(1235,-456,l)
);
},
{
closed = 1;
nodes = (
(722,259,o),
(805,293,o),
(845,323,q),
(845,722,l),
(770,795,o),
(663,795,qs),
(558,795,o),
(459,673,o),
(459,534,qs),
(459,392,o),
(564,259,o),
(668,259,qs)
);
}
);
width = 1343;
}
);
unicode = 113;
},
{
glyphname = r;
layers = (
{
layerId = m000;
shapes = (
{
closed = 1;
nodes = (
(240,0,l),
(240,836,l),
(414,956,o),
(641,1019,q),
(641,1076,l),
(538,1052,o),
(325,956,o),
(240,896,q),
(229,1054,l),
(178,1054,l),
(178,0,l)
);
}
);
width = 696;
},
{
layerId = m001;
shapes = (
{
closed = 1;
nodes = (
(498,0,l),
(498,698,l),
(636,766,o),
(864,787,q),
(864,1076,l),
(766,1069,o),
(569,1006,o),
(498,963,q),
(487,1054,l),
(109,1054,l),
(109,0,l)
);
}
);
width = 896;
}
);
unicode = 114;
},
{
glyphname = s;
layers = (
{
layerId = m000;
shapes = (
{
closed = 1;
nodes = (
(647,-22,o),
(838,109,o),
(838,258,qs),
(838,394,o),
(649,525,o),
(475,574,q),
(353,614,o),
(246,663,o),
(193,743,o),
(193,814,qs),
(193,919,o),
(258,970,q),
(286,994,o),
(400,1019,o),
(480,1021,qs),
(491,1021,o),
(502,1021,qs),
(569,1021,o),
(696,1003,o),
(758,985,q),
(758,1043,l),
(702,1061,o),
(571,1076,o),
(493,1076,qs),
(302,1076,o),
(133,945,o),
(133,812,qs),
(133,689,o),
(286,574,o),
(404,538,qs),
(440,527,o),
(458,520,q),
(475,514,o),
(507,505,q),
(611,469,o),
(649,451,q),
(718,423,o),
(778,338,o),
(778,258,qs),
(778,147,o),
(649,40,o),
(507,33,q),
(484,33,o),
(460,33,qs),
(382,33,o),
(235,53,o),
(164,76,q),
(164,18,l),
(226,0,o),
(382,-22,o),
(467,-22,qs)
);
}
);
width = 972;
},
{
layerId = m001;
shapes = (
{
closed = 1;
nodes = (
(756,-22,o),
(1015,147,o),
(1015,307,qs),
(1015,441,o),
(870,577,o),
(699,626,qs),
(638,645,o),
(571,669,o),
(523,702,o),
(509,727,q),
(464,769,o),
(482,799,q),
(490,820,o),
(580,834,o),
(649,834,qs),
(658,834,o),
(665,834,qs),
(732,834,o),
(883,806,o),
(950,779,q),
(950,1029,l),
(889,1050,o),
(665,1076,o),
(569,1076,qs),
(312,1076,o),
(65,914,o),
(65,757,qs),
(65,642,o),
(181,516,o),
(299,469,qs),
(328,458,o),
(355,448,q),
(369,444,o),
(389,438,q),
(442,419,o),
(497,402,qs),
(561,383,o),
(618,343,o),
(618,307,qs),
(618,262,o),
(544,220,o),
(460,220,qs),
(447,220,o),
(436,220,qs),
(361,220,o),
(155,261,o),
(81,295,q),
(81,42,l),
(152,15,o),
(383,-22,o),
(512,-22,qs)
);
}
);
width = 1079;
}
);
unicode = 115;
},
{
glyphname = t;
layers = (
{
layerId = m000;
shapes = (
{
closed = 1;
nodes = (
(587,-22,o),
(672,0,q),
(672,58,l),
(598,33,o),
(547,33,qs),
(323,33,o),
(323,254,qs),
(323,996,l),
(636,996,l),
(641,1054,l),
(323,1054,l),
(323,1370,l),
(260,1370,l),
(260,1054,l),
(89,1054,l),
(89,996,l),
(260,996,l),
(260,254,l),
(260,125,o),
(403,-22,o),
(527,-22,qs)
);
}
);
width = 738;
},
{
layerId = m001;
shapes = (
{
closed = 1;
nodes = (
(705,-22,o),
(831,26,q),
(831,274,l),
(766,250,o),
(700,250,qs),
(559,250,o),
(559,384,qs),
(559,770,l),
(797,770,l),
(806,1054,l),
(559,1054,l),
(559,1326,l),
(168,1326,l),
(168,1054,l),
(28,1054,l),
(28,770,l),
(168,770,l),
(168,364,l),
(168,172,o),
(371,-22,o),
(561,-22,qs)
);
}
);
width = 852;
}
);
unicode = 116;
},
{
glyphname = u;
layers = (
{
layerId = m000;
shapes = (
{
closed = 1;
nodes = (
(699,-22,o),
(890,56,o),
(979,138,q),
(990,0,l),
(1041,0,l),
(1041,1054,l),
(979,1054,l),
(979,207,l),
(901,127,o),
(707,33,o),
(590,33,qs),
(405,33,o),
(229,211,o),
(229,387,qs),
(229,1054,l),
(167,1054,l),
(167,387,l),
(167,191,o),
(367,-22,o),
(556,-22,qs)
);
}
);
width = 1219;
},
{
layerId = m001;
shapes = (
{
closed = 1;
nodes = (
(601,-22,o),
(784,33,o),
(855,84,q),
(866,0,l),
(1229,0,l),
(1229,1054,l),
(840,1054,l),
(840,352,l),
(806,315,o),
(704,267,o),
(651,267,qs),
(568,267,o),
(487,347,o),
(487,427,qs),
(487,1054,l),
(98,1054,l),
(98,387,l),
(98,189,o),
(303,-22,o),
(485,-22,qs)
);
}
);
width = 1338;
}
);
unicode = 117;
},
{
glyphname = v;
layers = (
{
layerId = m000;
shapes = (
{
closed = 1;
nodes = (
(633,0,l),
(1043,1054,l),
(980,1054,l),
(587,36,l),
(197,1054,l),
(133,1054,l),
(544,0,l)
);
}
);
width = 1176;
},
{
layerId = m001;
shapes = (
{
closed = 1;
nodes = (
(892,0,l),
(1308,1054,l),
(903,1054,l),
(686,403,l),
(470,1054,l),
(65,1054,l),
(481,0,l)
);
}
);
width = 1372;
}
);
unicode = 118;
},
{
glyphname = w;
layers = (
{
layerId = m000;
shapes = (
{
closed = 1;
nodes = (
(491,0,l),
(787,914,l),
(1076,0,l),
(1156,0,l),
(1427,1054,l),
(1365,1054,l),
(1116,44,l),
(798,1054,l),
(745,1054,l),
(745,947,l),
(451,44,l),
(197,1054,l),
(133,1054,l),
(407,0,l)
);
}
);
width = 1561;
},
{
layerId = m001;
shapes = (
{
closed = 1;
nodes = (
(698,0,l),
(870,520,l),
(1040,0,l),
(1391,0,l),
(1668,1054,l),
(1297,1054,l),
(1161,490,l),
(998,1054,l),
(715,1054,l),
(715,907,l),
(577,490,l),
(436,1054,l),
(65,1054,l),
(344,0,l)
);
}
);
width = 1732;
}
);
unicode = 119;
},
{
glyphname = x;
layers = (
{
layerId = m000;
shapes = (
{
closed = 1;
nodes = (
(178,0,l),
(540,496,l),
(905,0,l),
(974,0,l),
(578,536,l),
(958,1054,l),
(889,1054,l),
(540,580,l),
(191,1054,l),
(122,1054,l),
(507,536,l),
(111,0,l)
);
}
);
width = 1085;
},
{
layerId = m001;
shapes = (
{
closed = 1;
nodes = (
(475,0,l),
(667,259,l),
(861,0,l),
(1286,0,l),
(879,536,l),
(1269,1054,l),
(848,1054,l),
(667,811,l),
(486,1054,l),
(66,1054,l),
(457,536,l),
(50,0,l)
);
}
);
width = 1336;
}
);
unicode = 120;
},
{
glyphname = y;
layers = (
{
layerId = m000;
shapes = (
{
closed = 1;
nodes = (
(186,-380,o),
(258,-391,o),
(298,-391,qs),
(422,-391,o),
(584,-171,o),
(653,-2,q),
(660,13,o),
(662,20,q),
(1132,1054,l),
(1069,1054,l),
(622,73,l),
(197,1054,l),
(133,1054,l),
(591,4,l),
(589,0,o),
(587,-9,q),
(529,-156,o),
(398,-336,o),
(293,-336,qs),
(220,-336,o),
(157,-311,q),
(157,-369,l)
);
}
);
width = 1221;
},
{
layerId = m001;
shapes = (
{
closed = 1;
nodes = (
(240,-372,o),
(358,-391,o),
(444,-391,qs),
(638,-391,o),
(900,-151,o),
(990,65,q),
(997,80,o),
(1001,93,q),
(1397,1054,l),
(992,1054,l),
(731,386,l),
(471,1054,l),
(65,1054,l),
(540,24,l),
(538,21,o),
(537,19,q),
(499,-49,o),
(400,-119,o),
(318,-119,qs),
(245,-119,o),
(184,-95,q),
(184,-349,l)
);
}
);
width = 1417;
}
);
unicode = 121;
},
{
glyphname = z;
layers = (
{
layerId = m000;
shapes = (
{
closed = 1;
nodes = (
(920,0,l),
(920,58,l),
(202,58,l),
(907,1001,l),
(907,1054,l),
(166,1054,l),
(166,996,l),
(840,996,l),
(133,51,l),
(133,0,l)
);
}
);
width = 1054;
},
{
layerId = m001;
shapes = (
{
closed = 1;
nodes = (
(1039,0,l),
(1039,284,l),
(571,284,l),
(1022,824,l),
(1022,1054,l),
(83,1054,l),
(83,753,l),
(529,753,l),
(65,210,l),
(65,0,l)
);
}
);
width = 1103;
}
);
unicode = 122;
},
{
glyphname = braceleft;
layers = (
{
layerId = m000;
shapes = (
{
closed = 1;
nodes = (
(489,-231,l),
(378,-231,o),
(269,-138,o),
(269,-27,qs),
(269,418,l),
(269,523,o),
(204,623,o),
(111,634,q),
(111,694,l),
(204,705,o),
(269,807,o),
(269,910,qs),
(269,1354,l),
(269,1466,o),
(378,1559,o),
(489,1559,qs),
(522,1559,l),
(522,1501,l),
(489,1501,l),
(330,1502,o),
(331,1339,qs),
(331,867,l),
(331,807,o),
(302,747,qs),
(271,683,o),
(191,663,q),
(273,643,o),
(302,580,qs),
(331,520,o),
(331,460,qs),
(331,-11,l),
(335,-177,o),
(489,-173,q),
(522,-173,l),
(522,-231,l)
);
}
);
width = 612;
},
{
layerId = m001;
shapes = (
{
closed = 1;
nodes = (
(469,-231,l),
(323,-231,o),
(172,-72,o),
(172,79,qs),
(172,372,l),
(172,459,o),
(112,540,o),
(42,550,q),
(42,777,l),
(112,786,o),
(172,870,o),
(172,956,qs),
(172,1248,l),
(172,1402,o),
(323,1559,o),
(469,1559,qs),
(704,1559,l),
(704,1259,l),
(643,1259,l),
(546,1260,o),
(546,1159,qs),
(546,873,l),
(546,807,o),
(522,755,qs),
(494,697,o),
(439,663,q),
(491,632,o),
(519,578,qs),
(546,525,o),
(546,452,qs),
(546,169,l),
(548,67,o),
(643,69,qs),
(704,69,l),
(704,-231,l)
);
}
);
width = 725;
}
);
unicode = 123;
},
{
glyphname = bar;
layers = (
{
layerId = m000;
shapes = (
{
closed = 1;
nodes = (
(195,-267,l),
(195,1635,l),
(133,1635,l),
(133,-267,l)
);
}
);
width = 329;
},
{
layerId = m001;
shapes = (
{
closed = 1;
nodes = (
(454,-267,l),
(454,1635,l),
(65,1635,l),
(65,-267,l)
);
}
);
width = 519;
}
);
unicode = 124;
},
{
glyphname = braceright;
layers = (
{
layerId = m000;
shapes = (
{
closed = 1;
nodes = (
(144,-231,l),
(256,-231,o),
(365,-138,o),
(365,-27,qs),
(365,418,l),
(365,523,o),
(429,623,o),
(522,634,q),
(522,694,l),
(429,705,o),
(365,807,o),
(365,910,qs),
(365,1354,l),
(365,1466,o),
(256,1559,o),
(144,1559,qs),
(111,1559,l),
(111,1501,l),
(144,1501,l),
(303,1502,o),
(302,1339,qs),
(302,867,l),
(302,807,o),
(331,747,qs),
(362,683,o),
(442,663,q),
(360,643,o),
(331,580,qs),
(302,520,o),
(302,460,qs),
(302,-11,l),
(299,-177,o),
(144,-173,q),
(111,-173,l),
(111,-231,l)
);
}
);
width = 612;
},
{
layerId = m001;
shapes = (
{
closed = 1;
nodes = (
(277,-231,l),
(424,-231,o),
(574,-72,o),
(574,79,qs),
(574,372,l),
(574,459,o),
(634,540,o),
(704,550,q),
(704,777,l),
(634,786,o),
(574,870,o),
(574,956,qs),
(574,1248,l),
(574,1402,o),
(424,1559,o),
(277,1559,qs),
(42,1559,l),
(42,1259,l),
(103,1259,l),
(200,1260,o),
(199,1159,qs),
(199,873,l),
(199,807,o),
(224,755,qs),
(252,697,o),
(307,663,q),
(254,632,o),
(227,578,qs),
(199,525,o),
(199,452,qs),
(199,169,l),
(199,67,o),
(103,69,qs),
(42,69,l),
(42,-231,l)
);
}
);
width = 725;
}
);
unicode = 125;
},
{
glyphname = asciitilde;
layers = (
{
layerId = m000;
shapes = (
{
closed = 1;
nodes = (
(998,563,o),
(1132,625,o),
(1172,681,q),
(1172,754,l),
(1116,683,o),
(998,618,o),
(916,618,qs),
(854,618,o),
(733,661,o),
(660,701,q),
(587,738,o),
(460,781,o),
(391,781,qs),
(311,781,o),
(173,716,o),
(133,663,q),
(133,589,l),
(189,661,o),
(309,725,o),
(391,725,qs),
(455,725,o),
(578,683,o),
(653,645,q),
(725,605,o),
(849,563,o),
(916,563,qs)
);
}
);
width = 1305;
},
{
layerId = m001;
shapes = (
{
closed = 1;
nodes = (
(956,441,o),
(1096,497,o),
(1135,551,q),
(1135,884,l),
(1080,816,o),
(956,756,o),
(871,756,qs),
(809,756,o),
(686,794,o),
(607,831,q),
(528,865,o),
(400,903,o),
(331,903,qs),
(248,903,o),
(103,844,o),
(65,793,q),
(65,459,l),
(119,528,o),
(246,587,o),
(331,587,qs),
(395,587,o),
(519,550,o),
(600,515,q),
(678,478,o),
(804,441,o),
(871,441,qs)
);
}
);
width = 1198;
}
);
unicode = 126;
},
{
glyphname = cent;
layers = (
{
layerId = m000;
shapes = (
{
closed = 1;
nodes = (
(390,36,o),
(193,287,o),
(193,527,qs),
(201,1002,o),
(629,1020,qs),
(788,1026,o),
(925,965,q),
(925,1023,l),
(823,1078,o),
(653,1076,q),
(653,1245,l),
(596,1245,l),
(596,1074,l),
(375,1059,o),
(133,781,o),
(133,527,qs),
(133,271,o),
(355,-9,o),
(596,-20,q),
(596,-191,l),
(653,-191,l),
(653,-22,l),
(796,-20,o),
(925,31,q),
(925,89,l),
(777,30,o),
(625,33,qs)
);
}
);
width = 1059;
},
{
layerId = m001;
shapes = (
{
closed = 1;
nodes = (
(602,260,o),
(461,391,o),
(461,527,qs),
(464,789,o),
(754,794,qs),
(917,798,o),
(1059,731,q),
(1059,1006,l),
(949,1059,o),
(807,1068,q),
(807,1245,l),
(468,1245,l),
(468,1050,l),
(279,1010,o),
(65,749,o),
(65,527,qs),
(65,305,o),
(273,43,o),
(468,4,q),
(468,-191,l),
(807,-191,l),
(807,-14,l),
(943,-3,o),
(1062,48,q),
(1062,335,l),
(915,258,o),
(756,259,qs)
);
}
);
width = 1126;
}
);
unicode = 162;
},
{
glyphname = sterling;
layers = (
{
layerId = m000;
shapes = (
{
closed = 1;
nodes = (
(994,0,l),
(994,58,l),
(340,58,l),
(407,107,o),
(407,249,qs),
(407,732,l),
(916,732,l),
(916,790,l),
(407,790,l),
(407,1141,l),
(407,1268,o),
(564,1399,o),
(711,1399,qs),
(769,1399,o),
(887,1379,o),
(918,1361,q),
(918,1419,l),
(849,1454,o),
(696,1454,qs),
(551,1454,o),
(447,1377,qs),
(344,1297,o),
(344,1139,qs),
(344,790,l),
(177,790,l),
(177,732,l),
(344,732,l),
(344,247,l),
(344,58,o),
(195,58,qs),
(133,58,l),
(133,0,l)
);
}
);
width = 1128;
}
);
unicode = 163;
},
{
glyphname = currency;
layers = (
{
layerId = m000;
shapes = (
{
closed = 1;
nodes = (
(358,309,l),
(413,258,o),
(556,200,o),
(633,200,qs),
(787,200,o),
(907,309,q),
(1098,162,l),
(1132,207,l),
(943,349,l),
(1029,460,o),
(1029,598,qs),
(1029,741,o),
(943,845,q),
(1132,990,l),
(1098,1034,l),
(905,885,l),
(789,996,o),
(631,996,qs),
(473,996,o),
(358,885,q),
(166,1034,l),
(133,990,l),
(322,845,l),
(235,743,o),
(235,598,qs),
(235,454,o),
(322,351,q),
(133,207,l),
(166,162,l)
);
},
{
closed = 1;
nodes = (
(491,256,o),
(295,458,o),
(295,598,qs),
(295,741,o),
(491,941,o),
(631,941,qs),
(771,941,o),
(969,741,o),
(969,598,qs),
(969,458,o),
(771,256,o),
(631,256,qs)
);
}
);
width = 1265;
},
{
layerId = m001;
shapes = (
{
closed = 1;
nodes = (
(417,226,l),
(466,197,o),
(578,165,o),
(637,165,qs),
(760,165,o),
(857,228,q),
(1041,87,l),
(1206,290,l),
(1034,421,l),
(1079,507,o),
(1079,598,qs),
(1079,697,o),
(1034,776,q),
(1209,904,l),
(1041,1107,l),
(858,966,l),
(764,1030,o),
(635,1030,qs),
(511,1030,o),
(415,968,q),
(234,1110,l),
(67,906,l),
(237,776,l),
(193,693,o),
(193,598,qs),
(193,504,o),
(237,420,q),
(65,293,l),
(234,86,l)
);
},
{
closed = 1;
nodes = (
(562,423,o),
(459,528,o),
(459,600,qs),
(459,675,o),
(562,779,o),
(635,779,qs),
(709,779,o),
(812,675,o),
(812,600,qs),
(812,527,o),
(709,423,o),
(635,423,qs)
);
}
);
width = 1273;
}
);
unicode = 164;
},
{
glyphname = yen;
layers = (
{
layerId = m000;
shapes = (
{
closed = 1;
nodes = (
(685,0,l),
(685,278,l),
(1060,278,l),
(1060,334,l),
(685,334,l),
(685,520,l),
(1060,520,l),
(1060,576,l),
(705,576,l),
(1174,1432,l),
(1109,1432,l),
(653,596,l),
(195,1432,l),
(133,1432,l),
(598,576,l),
(244,576,l),
(244,520,l),
(620,520,l),
(620,334,l),
(244,334,l),
(244,278,l),
(620,278,l),
(620,0,l)
);
}
);
width = 1308;
},
{
layerId = m001;
shapes = (
{
closed = 1;
nodes = (
(964,0,l),
(964,171,l),
(1266,171,l),
(1266,362,l),
(964,362,l),
(964,489,l),
(1266,489,l),
(1266,680,l),
(1051,680,l),
(1473,1432,l),
(1067,1432,l),
(768,857,l),
(469,1432,l),
(65,1432,l),
(486,680,l),
(268,680,l),
(268,489,l),
(573,489,l),
(573,362,l),
(268,362,l),
(268,171,l),
(573,171,l),
(573,0,l)
);
}
);
width = 1537;
}
);
unicode = 165;
},
{
glyphname = "rialsign-arab.isol";
layers = (
{
layerId = m000;
shapes = (
{
closed = 1;
nodes = (
(2509,-521,l),
(2646,-521,o),
(2879,-376,o),
(3016,-134,o),
(3016,4,qs),
(3016,610,l),
(2957,610,l),
(2957,7,l),
(2957,-115,o),
(2836,-331,o),
(2630,-461,o),
(2509,-461,qs),
(1645,-461,l),
(1645,-521,l)
);
},
{
closed = 1;
nodes = (
(1649,1353,l),
(1649,326,l),
(1649,237,o),
(1736,88,o),
(1886,0,o),
(1976,0,qs),
(2191,0,l),
(2280,0,o),
(2430,88,o),
(2518,237,o),
(2518,326,qs),
(2518,632,l),
(2460,632,l),
(2460,329,l),
(2460,256,o),
(2387,132,o),
(2264,60,o),
(2191,60,qs),
(1976,60,l),
(1902,60,o),
(1779,132,o),
(1708,256,o),
(1708,329,qs),
(1708,1413,l),
(1208,1413,l),
(1208,-21,l),
(1208,-147,o),
(1097,-361,o),
(889,-489,o),
(750,-489,qs),
(688,-489,l),
(549,-489,o),
(341,-361,o),
(230,-147,o),
(230,-21,qs),
(230,381,l),
(171,381,l),
(171,-24,l),
(171,-165,o),
(298,-405,o),
(533,-549,o),
(688,-549,qs),
(750,-549,l),
(905,-549,o),
(1140,-405,o),
(1267,-165,o),
(1267,-24,qs),
(1267,1353,l)
);
}
);
width = 3187;
},
{
layerId = m001;
shapes = (
{
closed = 1;
nodes = (
(2631,-498,l),
(2791,-498,o),
(3064,-334,o),
(3225,-61,o),
(3225,95,qs),
(3225,753,l),
(2905,753,l),
(2905,138,l),
(2905,62,o),
(2830,-90,o),
(2704,-188,o),
(2631,-188,qs),
(1725,-188,l),
(1725,-498,l)
);
},
{
closed = 1;
nodes = (
(1614,1145,l),
(1614,409,l),
(1614,298,o),
(1713,112,o),
(1904,0,o),
(2034,0,qs),
(2237,0,l),
(2353,0,o),
(2551,110,o),
(2666,297,o),
(2666,409,qs),
(2666,797,l),
(2348,797,l),
(2348,452,l),
(2348,421,o),
(2317,370,o),
(2266,340,o),
(2237,340,qs),
(2034,340,l),
(2003,340,o),
(1957,369,o),
(1933,421,o),
(1933,452,qs),
(1933,1454,l),
(1115,1454,l),
(1115,127,l),
(1115,48,o),
(1050,-87,o),
(917,-169,o),
(819,-169,qs),
(734,-169,l),
(636,-169,o),
(503,-87,o),
(439,48,o),
(439,127,qs),
(439,537,l),
(120,537,l),
(120,84,l),
(120,-75,o),
(270,-346,o),
(549,-509,o),
(734,-509,qs),
(819,-509,l),
(1004,-509,o),
(1283,-346,o),
(1433,-75,o),
(1433,84,qs),
(1433,1145,l)
);
}
);
width = 3345;
}
);
unicode = 65020;
},
{
glyphname = brokenbar;
layers = (
{
layerId = m000;
shapes = (
{
closed = 1;
nodes = (
(195,990,l),
(195,1635,l),
(133,1635,l),
(133,990,l)
);
},
{
closed = 1;
nodes = (
(195,-267,l),
(195,378,l),
(133,378,l),
(133,-267,l)
);
}
);
width = 329;
},
{
layerId = m001;
shapes = (
{
closed = 1;
nodes = (
(454,865,l),
(454,1635,l),
(65,1635,l),
(65,865,l)
);
},
{
closed = 1;
nodes = (
(454,-267,l),
(454,503,l),
(65,503,l),
(65,-267,l)
);
}
);
width = 519;
}
);
unicode = 166;
},
{
glyphname = section;
layers = (
{
layerId = m000;
shapes = (
{
closed = 1;
nodes = (
(1092,-22,o),
(1092,356,qs),
(1092,445,o),
(1058,514,q),
(1092,600,o),
(1092,669,qs),
(1092,772,o),
(1014,883,o),
(829,952,o),
(627,999,qs),
(371,1061,o),
(193,1188,o),
(193,1326,qs),
(193,1488,o),
(422,1646,o),
(649,1646,qs),
(856,1646,o),
(1003,1595,q),
(1003,1650,l),
(949,1670,o),
(742,1701,o),
(631,1701,qs),
(133,1705,o),
(133,1326,qs),
(133,1230,o),
(169,1168,q),
(133,1101,o),
(133,1034,qs),
(133,892,o),
(324,767,o),
(580,707,qs),
(831,652,o),
(1031,505,o),
(1031,356,qs),
(1031,31,o),
(571,31,qs),
(360,31,o),
(173,91,q),
(173,36,l),
(333,-22,o),
(571,-22,qs)
);
},
{
closed = 1;
nodes = (
(965,632,o),
(769,721,o),
(627,752,qs),
(369,812,o),
(193,914,o),
(193,1034,qs),
(193,1083,o),
(209,1116,q),
(176,1065,o),
(613,945,q),
(856,892,o),
(1031,798,o),
(1031,669,qs),
(1031,620,o),
(1016,574,q)
);
}
);
width = 1225;
},
{
layerId = m001;
shapes = (
{
closed = 1;
nodes = (
(1175,-14,o),
(1175,393,qs),
(1175,486,o),
(1126,551,q),
(1176,618,o),
(1175,724,qs),
(1175,829,o),
(1110,966,o),
(929,1065,o),
(744,1114,qs),
(587,1154,o),
(461,1217,o),
(461,1280,qs),
(461,1355,o),
(612,1418,o),
(722,1418,qs),
(888,1419,o),
(1094,1343,q),
(1094,1638,l),
(1037,1656,o),
(793,1699,o),
(653,1701,qs),
(67,1703,o),
(67,1311,qs),
(66,1211,o),
(113,1147,q),
(65,1080,o),
(65,993,qs),
(63,835,o),
(224,676,o),
(457,601,q),
(615,556,o),
(775,479,o),
(775,405,qs),
(775,258,o),
(534,259,qs),
(313,260,o),
(87,359,q),
(87,65,l),
(280,-21,o),
(573,-22,qs)
);
},
{
closed = 1;
nodes = (
(857,724,o),
(719,779,o),
(642,796,qs),
(504,829,o),
(380,893,o),
(380,954,qs),
(380,979,o),
(389,998,q),
(420,956,o),
(628,901,q),
(765,871,o),
(894,801,o),
(894,738,qs),
(894,713,o),
(885,692,q)
);
}
);
width = 1239;
}
);
unicode = 167;
},
{
glyphname = guilsinglleft;
layers = (
{
layerId = m000;
shapes = (
{
closed = 1;
nodes = (
(711,256,l),
(195,641,l),
(711,1025,l),
(680,1070,l),
(133,667,l),
(133,614,l),
(680,211,l)
);
}
);
width = 845;
},
{
layerId = m001;
shapes = (
{
closed = 1;
nodes = (
(808,337,l),
(408,633,l),
(808,929,l),
(661,1143,l),
(65,704,l),
(65,562,l),
(661,122,l)
);
}
);
width = 873;
}
);
unicode = 8249;
},
{
glyphname = guilsinglright;
layers = (
{
layerId = m000;
shapes = (
{
closed = 1;
nodes = (
(711,614,l),
(711,667,l),
(164,1070,l),
(133,1025,l),
(649,641,l),
(133,256,l),
(164,211,l)
);
}
);
width = 845;
},
{
layerId = m001;
shapes = (
{
closed = 1;
nodes = (
(808,562,l),
(808,704,l),
(212,1143,l),
(65,929,l),
(465,633,l),
(65,337,l),
(212,122,l)
);
}
);
width = 873;
}
);
unicode = 8250;
},
{
glyphname = guillemetleft;
layers = (
{
layerId = m000;
shapes = (
{
closed = 1;
nodes = (
(1112,256,l),
(596,641,l),
(1112,1025,l),
(1080,1070,l),
(533,667,l),
(533,614,l),
(1080,211,l)
);
},
{
closed = 1;
nodes = (
(711,256,l),
(195,641,l),
(711,1025,l),
(680,1070,l),
(133,667,l),
(133,614,l),
(680,211,l)
);
}
);
width = 1245;
},
{
layerId = m001;
shapes = (
{
closed = 1;
nodes = (
(1423,337,l),
(1023,633,l),
(1423,929,l),
(1275,1143,l),
(679,704,l),
(679,562,l),
(1275,122,l)
);
},
{
closed = 1;
nodes = (
(808,337,l),
(408,633,l),
(808,929,l),
(661,1143,l),
(65,704,l),
(65,562,l),
(661,122,l)
);
}
);
width = 1487;
}
);
unicode = 171;
},
{
glyphname = guillemetright;
layers = (
{
layerId = m000;
shapes = (
{
closed = 1;
nodes = (
(1112,614,l),
(1112,667,l),
(564,1070,l),
(533,1025,l),
(1049,641,l),
(533,256,l),
(564,211,l)
);
},
{
closed = 1;
nodes = (
(711,614,l),
(711,667,l),
(164,1070,l),
(133,1025,l),
(649,641,l),
(133,256,l),
(164,211,l)
);
}
);
width = 1245;
},
{
layerId = m001;
shapes = (
{
closed = 1;
nodes = (
(1423,562,l),
(1423,704,l),
(826,1143,l),
(679,929,l),
(1079,633,l),
(679,337,l),
(826,122,l)
);
},
{
closed = 1;
nodes = (
(808,562,l),
(808,704,l),
(212,1143,l),
(65,929,l),
(465,633,l),
(65,337,l),
(212,122,l)
);
}
);
width = 1487;
}
);
unicode = 187;
},
{
glyphname = copyright;
layers = (
{
layerId = m000;
shapes = (
{
closed = 1;
nodes = (
(1054,167,o),
(1174,225,q),
(1174,282,l),
(1023,222,o),
(880,222,qs),
(645,222,o),
(393,469,o),
(393,714,qs),
(393,952,o),
(673,1203,o),
(894,1203,qs),
(1047,1203,o),
(1174,1143,q),
(1174,1201,l),
(1063,1259,o),
(887,1259,qs),
(336,1253,o),
(333,714,qs),
(325,173,o),
(865,167,qs)
);
},
{
closed = 1;
nodes = (
(1072,-22,o),
(1412,176,o),
(1610,516,o),
(1610,716,qs),
(1610,916,o),
(1412,1257,o),
(1072,1454,o),
(871,1454,qs),
(671,1454,o),
(331,1257,o),
(133,916,o),
(133,716,qs),
(133,516,o),
(331,176,o),
(671,-22,o),
(871,-22,qs)
);
},
{
closed = 1;
nodes = (
(687,36,o),
(375,220,o),
(191,532,o),
(191,716,qs),
(191,901,o),
(375,1212,o),
(687,1397,o),
(871,1397,qs),
(1056,1397,o),
(1367,1212,o),
(1552,901,o),
(1552,716,qs),
(1552,532,o),
(1367,220,o),
(1056,36,o),
(871,36,qs)
);
}
);
width = 1744;
},
{
layerId = m001;
shapes = (
{
closed = 1;
nodes = (
(985,268,o),
(1098,350,q),
(1098,530,l),
(993,462,o),
(870,462,qs),
(764,462,o),
(620,576,o),
(620,717,qs),
(620,854,o),
(773,972,o),
(876,972,qs),
(990,972,o),
(1095,912,q),
(1095,1083,l),
(987,1165,o),
(813,1167,qs),
(372,1167,o),
(367,717,qs),
(368,267,o),
(808,268,qs)
);
},
{
closed = 1;
nodes = (
(1004,-22,o),
(1344,176,o),
(1542,516,o),
(1542,716,qs),
(1542,916,o),
(1344,1257,o),
(1004,1454,o),
(803,1454,qs),
(603,1454,o),
(263,1257,o),
(65,916,o),
(65,716,qs),
(65,516,o),
(263,176,o),
(603,-22,o),
(803,-22,qs)
);
},
{
closed = 1;
nodes = (
(656,177,o),
(413,316,o),
(271,563,o),
(271,716,qs),
(271,870,o),
(413,1116,o),
(656,1256,o),
(803,1256,qs),
(951,1256,o),
(1193,1116,o),
(1336,870,o),
(1336,716,qs),
(1336,563,o),
(1193,316,o),
(951,177,o),
(803,177,qs)
);
}
);
width = 1606;
}
);
unicode = 169;
},
{
glyphname = registered;
layers = (
{
layerId = m000;
shapes = (
{
closed = 1;
nodes = (
(1072,-22,o),
(1412,176,o),
(1610,516,o),
(1610,716,qs),
(1610,916,o),
(1412,1257,o),
(1072,1454,o),
(871,1454,qs),
(671,1454,o),
(331,1257,o),
(133,916,o),
(133,716,qs),
(133,516,o),
(331,176,o),
(671,-22,o),
(871,-22,qs)
);
},
{
closed = 1;
nodes = (
(687,36,o),
(375,220,o),
(191,532,o),
(191,716,qs),
(191,901,o),
(375,1212,o),
(687,1397,o),
(871,1397,qs),
(1056,1397,o),
(1367,1212,o),
(1552,901,o),
(1552,716,qs),
(1552,532,o),
(1367,220,o),
(1056,36,o),
(871,36,qs)
);
},
{
closed = 1;
nodes = (
(589,196,l),
(589,625,l),
(842,625,l),
(947,625,o),
(1029,583,o),
(1056,518,qs),
(1198,196,l),
(1261,196,l),
(1116,529,l),
(1096,578,o),
(1056,629,o),
(1018,643,q),
(1256,681,o),
(1256,932,qs),
(1256,1074,o),
(1100,1228,o),
(945,1228,qs),
(527,1228,l),
(527,196,l)
);
},
{
closed = 1;
nodes = (
(589,1172,l),
(947,1172,l),
(1076,1172,o),
(1196,1061,o),
(1196,932,qs),
(1196,798,o),
(1058,683,o),
(927,683,qs),
(589,683,l)
);
}
);
width = 1744;
},
{
layerId = m001;
shapes = (
{
closed = 1;
nodes = (
(1004,-22,o),
(1344,176,o),
(1542,516,o),
(1542,716,qs),
(1542,916,o),
(1344,1257,o),
(1004,1454,o),
(803,1454,qs),
(603,1454,o),
(263,1257,o),
(65,916,o),
(65,716,qs),
(65,516,o),
(263,176,o),
(603,-22,o),
(803,-22,qs)
);
},
{
closed = 1;
nodes = (
(656,177,o),
(413,316,o),
(271,563,o),
(271,716,qs),
(271,870,o),
(413,1116,o),
(656,1256,o),
(803,1256,qs),
(951,1256,o),
(1193,1116,o),
(1336,870,o),
(1336,716,qs),
(1336,563,o),
(1193,316,o),
(951,177,o),
(803,177,qs)
);
},
{
closed = 1;
nodes = (
(698,320,l),
(698,578,l),
(783,578,l),
(822,578,o),
(859,555,o),
(869,527,qs),
(943,320,l),
(1146,320,l),
(1060,547,l),
(1049,572,o),
(1031,601,o),
(1013,609,q),
(1182,670,o),
(1182,851,qs),
(1182,976,o),
(1040,1122,o),
(903,1122,qs),
(488,1122,l),
(488,320,l)
);
},
{
closed = 1;
nodes = (
(698,963,l),
(855,963,l),
(915,963,o),
(972,910,o),
(972,851,qs),
(972,790,o),
(906,737,o),
(844,737,qs),
(698,737,l)
);
}
);
width = 1606;
}
);
unicode = 174;
},
{
glyphname = ordfeminine;
layers = (
{
layerId = m000;
shapes = (
{
closed = 1;
nodes = (
(493,845,o),
(584,939,q),
(589,858,l),
(642,858,l),
(642,1250,l),
(642,1357,o),
(518,1454,o),
(400,1454,qs),
(344,1454,o),
(249,1441,o),
(209,1426,q),
(209,1370,l),
(298,1401,o),
(387,1401,qs),
(502,1401,o),
(582,1330,o),
(582,1241,qs),
(582,1194,l),
(358,1194,l),
(133,1194,o),
(133,1012,qs),
(133,927,o),
(251,845,o),
(344,845,qs)
);
},
{
closed = 1;
nodes = (
(191,898,o),
(191,1012,qs),
(191,1079,o),
(269,1141,o),
(355,1141,qs),
(582,1141,l),
(582,999,l),
(538,945,o),
(433,898,o),
(355,898,qs)
);
}
);
width = 776;
},
{
layerId = m001;
shapes = (
{
closed = 1;
nodes = (
(399,845,o),
(476,911,q),
(487,858,l),
(684,858,l),
(684,1221,l),
(684,1340,o),
(523,1454,o),
(382,1454,qs),
(317,1454,o),
(186,1433,o),
(139,1415,q),
(139,1287,l),
(241,1318,o),
(337,1318,qs),
(410,1318,o),
(470,1284,o),
(470,1244,qs),
(470,1225,l),
(310,1225,l),
(65,1225,o),
(65,1032,qs),
(65,938,o),
(181,845,o),
(273,845,qs)
);
},
{
closed = 1;
nodes = (
(273,973,o),
(273,1038,qs),
(273,1073,o),
(317,1106,o),
(362,1106,qs),
(470,1106,l),
(470,1023,l),
(449,997,o),
(393,973,o),
(353,973,qs)
);
}
);
width = 749;
}
);
unicode = 170;
},
{
glyphname = macron;
layers = (
{
layerId = m000;
shapes = (
{
closed = 1;
nodes = (
(727,1265,l),
(727,1321,l),
(133,1321,l),
(133,1265,l)
);
}
);
width = 861;
},
{
layerId = m001;
shapes = (
{
closed = 1;
nodes = (
(722,1242,l),
(722,1474,l),
(3,1474,l),
(3,1242,l)
);
}
);
width = 723;
}
);
unicode = 175;
},
{
glyphname = mu;
layers = (
{
layerId = m000;
shapes = (
{
closed = 1;
nodes = (
(240,-318,l),
(240,145,l),
(339,-19,o),
(567,-22,qs),
(832,-24,o),
(990,138,q),
(1001,0,l),
(1052,0,l),
(1052,1054,l),
(990,1054,l),
(990,207,l),
(821,33,o),
(601,33,qs),
(240,33,o),
(240,387,qs),
(240,1054,l),
(178,1054,l),
(178,-318,l)
);
}
);
width = 1230;
},
{
layerId = m001;
shapes = (
{
closed = 1;
nodes = (
(498,-318,l),
(498,30,l),
(569,-21,o),
(677,-5,qs),
(797,11,o),
(866,84,q),
(877,0,l),
(1240,0,l),
(1240,1054,l),
(851,1054,l),
(851,352,l),
(769,267,o),
(662,267,qs),
(498,267,o),
(498,427,qs),
(498,1054,l),
(109,1054,l),
(109,-318,l)
);
}
);
width = 1349;
}
);
unicode = 181;
},
{
glyphname = paragraph;
layers = (
{
layerId = m000;
shapes = (
{
closed = 1;
nodes = (
(831,-171,l),
(831,1521,l),
(1125,1521,l),
(1125,-171,l),
(1187,-171,l),
(1187,1579,l),
(729,1579,l),
(133,1579,o),
(133,1061,qs),
(133,763,o),
(509,563,o),
(769,563,q),
(769,-171,l)
);
}
);
width = 1321;
},
{
layerId = m001;
shapes = (
{
closed = 1;
nodes = (
(885,-171,l),
(885,1295,l),
(1057,1295,l),
(1057,-171,l),
(1385,-171,l),
(1385,1579,l),
(627,1579,l),
(65,1579,o),
(65,1061,qs),
(65,795,o),
(352,563,o),
(563,563,q),
(563,-171,l)
);
}
);
width = 1449;
}
);
unicode = 182;
},
{
glyphname = asciicircum;
layers = (
{
layerId = m000;
shapes = (
{
closed = 1;
nodes = (
(197,894,l),
(467,1341,l),
(736,894,l),
(800,894,l),
(500,1388,l),
(433,1388,l),
(133,894,l)
);
}
);
width = 934;
},
{
layerId = m001;
shapes = (
{
closed = 1;
nodes = (
(424,834,l),
(579,1107,l),
(735,834,l),
(1093,834,l),
(704,1388,l),
(437,1388,l),
(65,834,l)
);
}
);
width = 1157;
}
);
unicode = 94;
},
{
glyphname = underscore;
layers = (
{
layerId = m000;
shapes = (
{
closed = 1;
nodes = (
(1109,-56,l),
(1109,0,l),
(133,0,l),
(133,-56,l)
);
}
);
width = 1243;
},
{
layerId = m001;
shapes = (
{
closed = 1;
nodes = (
(1101,-253,l),
(1101,0,l),
(65,0,l),
(65,-253,l)
);
}
);
width = 1165;
}
);
unicode = 95;
},
{
glyphname = germandbls;
layers = (
{
layerId = m000;
shapes = (
{
closed = 1;
nodes = (
(803,-22,qs),
(719,-22,o),
(547,0,o),
(483,27,q),
(483,85,l),
(554,56,o),
(719,33,o),
(803,33,qs),
(983,33,o),
(1170,209,o),
(1170,396,qs),
(1170,558,o),
(1012,716,o),
(821,716,qs),
(594,716,l),
(594,781,l),
(1086,1085,l),
(1092,1257,o),
(828,1397,o),
(670,1397,qs),
(449,1397,o),
(229,1208,o),
(229,999,qs),
(229,0,l),
(167,0,l),
(167,1007,l),
(167,1232,o),
(432,1454,o),
(670,1454,qs),
(925,1454,o),
(1148,1232,o),
(1148,1061,q),
(681,772,l),
(834,772,l),
(1039,772,o),
(1230,576,o),
(1230,396,qs),
(1230,185,o),
(1012,-22,o)
);
}
);
width = 1363;
},
{
layerId = m001;
shapes = (
{
closed = 1;
nodes = (
(887,-22,qs),
(803,-22,o),
(640,3,o),
(590,27,q),
(590,276,l),
(629,261,o),
(737,246,o),
(783,246,qs),
(880,246,o),
(970,333,o),
(970,420,qs),
(970,492,o),
(883,566,o),
(780,566,qs),
(626,566,l),
(626,750,l),
(944,995,l),
(945,1070,o),
(813,1140,o),
(710,1140,qs),
(579,1140,o),
(464,1026,o),
(464,921,qs),
(464,0,l),
(98,0,l),
(98,927,l),
(103,1220,o),
(436,1454,o),
(710,1454,qs),
(1035,1453,o),
(1287,1192,o),
(1307,957,q),
(991,709,l),
(1056,709,l),
(1202,709,o),
(1366,536,o),
(1366,376,qs),
(1366,171,o),
(1116,-22,o)
);
}
);
width = 1431;
}
);
unicode = 223;
},
{
glyphname = infinity;
layers = (
{
layerId = m000;
shapes = (
{
closed = 1;
nodes = (
(576,331,o),
(756,458,o),
(809,569,q),
(862,458,o),
(1043,331,o),
(1158,331,qs),
(1305,331,o),
(1485,487,o),
(1485,632,qs),
(1485,776,o),
(1305,932,o),
(1158,932,qs),
(1043,932,o),
(862,805,o),
(809,694,q),
(756,805,o),
(576,932,o),
(460,932,qs),
(313,932,o),
(133,776,o),
(133,632,qs),
(133,487,o),
(313,331,o),
(460,331,qs)
);
},
{
closed = 1;
nodes = (
(331,387,o),
(193,516,o),
(193,632,qs),
(193,747,o),
(331,876,o),
(460,876,qs),
(576,876,o),
(727,756,o),
(782,634,q),
(687,387,o),
(460,387,qs)
);
},
{
closed = 1;
nodes = (
(1047,387,o),
(891,509,o),
(836,629,q),
(889,752,o),
(1045,876,o),
(1158,876,qs),
(1287,876,o),
(1425,747,o),
(1425,632,qs),
(1425,516,o),
(1287,387,o),
(1158,387,qs)
);
}
);
width = 1619;
},
{
layerId = m001;
shapes = (
{
closed = 1;
nodes = (
(540,259,o),
(703,340,o),
(753,410,q),
(806,340,o),
(967,259,o),
(1062,259,qs),
(1235,259,o),
(1441,446,o),
(1441,626,qs),
(1441,805,o),
(1235,992,o),
(1062,992,qs),
(969,992,o),
(808,909,o),
(753,839,q),
(702,909,o),
(540,992,o),
(444,992,qs),
(271,992,o),
(65,805,o),
(65,626,qs),
(65,446,o),
(271,259,o),
(444,259,qs)
);
},
{
closed = 1;
nodes = (
(399,506,o),
(334,568,o),
(334,626,qs),
(334,683,o),
(399,745,o),
(461,745,qs),
(517,745,o),
(596,684,o),
(628,623,q),
(570,506,o),
(461,506,qs)
);
},
{
closed = 1;
nodes = (
(993,506,o),
(910,564,o),
(878,621,q),
(910,683,o),
(991,745,o),
(1046,745,qs),
(1107,745,o),
(1172,683,o),
(1172,626,qs),
(1172,568,o),
(1107,506,o),
(1046,506,qs)
);
}
);
width = 1506;
}
);
unicode = 8734;
},
{
glyphname = "percentsign-arab";
layers = (
{
layerId = m000;
shapes = (
{
closed = 1;
nodes = (
(1018,1220,l),
(972,1246,l),
(208,15,l),
(254,-11,l)
);
},
{
closed = 1;
nodes = (
(247,1146,o),
(274,1130,o),
(289,1103,o),
(289,1087,qs),
(289,1071,o),
(274,1044,o),
(246,1028,o),
(230,1028,qs),
(214,1028,o),
(187,1044,o),
(171,1071,o),
(171,1087,qs),
(171,1103,o),
(187,1130,o),
(214,1146,o),
(230,1146,qs)
);
},
{
closed = 1;
nodes = (
(1012,207,o),
(1039,192,o),
(1055,164,o),
(1055,148,qs),
(1055,132,o),
(1039,105,o),
(1012,89,o),
(996,89,qs),
(980,89,o),
(953,105,o),
(937,132,o),
(937,148,qs),
(937,164,o),
(953,192,o),
(980,207,o),
(996,207,qs)
);
}
);
width = 1226;
},
{
layerId = m001;
shapes = (
{
closed = 1;
nodes = (
(1091,1350,l),
(873,1448,l),
(206,69,l),
(424,-28,l)
);
},
{
closed = 1;
nodes = (
(355,1341,o),
(440,1291,o),
(488,1206,o),
(488,1156,qs),
(488,1106,o),
(439,1022,o),
(353,971,o),
(304,971,qs),
(254,971,o),
(169,1021,o),
(120,1106,o),
(120,1156,qs),
(120,1206,o),
(169,1291,o),
(254,1341,o),
(304,1341,qs)
);
},
{
closed = 1;
nodes = (
(1044,449,o),
(1129,400,o),
(1179,314,o),
(1179,263,qs),
(1179,214,o),
(1129,129,o),
(1044,79,o),
(994,79,qs),
(944,79,o),
(859,129,o),
(810,213,o),
(810,263,qs),
(810,314,o),
(859,400,o),
(944,449,o),
(994,449,qs)
);
}
);
width = 1298;
}
);
unicode = 1642;
},
{
glyphname = "fivepointedstar-arab";
layers = (
{
layerId = m000;
shapes = (
{
closed = 1;
nodes = (
(171,767,l),
(481,540,l),
(361,176,l),
(674,401,l),
(987,176,l),
(867,540,l),
(1177,767,l),
(794,767,l),
(674,1131,l),
(554,767,l)
);
}
);
width = 1348;
},
{
layerId = m001;
shapes = (
{
closed = 1;
nodes = (
(120,824,l),
(453,579,l),
(323,189,l),
(659,430,l),
(995,189,l),
(867,579,l),
(1200,824,l),
(789,824,l),
(659,1214,l),
(531,824,l)
);
}
);
width = 1319;
}
);
unicode = 1645;
},
{
glyphname = arabiccomma;
layers = (
{
layerId = m000;
shapes = (
{
closed = 1;
nodes = (
(410,130,o),
(361,177,o),
(286,176,o),
(247,145,q),
(247,360,l),
(246,436,o),
(345,553,o),
(422,566,q),
(432,567,l),
(424,622,l),
(414,620,l),
(315,602,o),
(192,457,o),
(191,356,qs),
(191,104,l),
(191,74,o),
(220,24,o),
(270,-5,o),
(300,-5,qs),
(330,-5,o),
(380,20,o),
(410,65,o),
(410,95,qs)
);
}
);
width = 625;
},
{
layerId = m001;
shapes = (
{
closed = 1;
nodes = (
(601,294,o),
(545,386,o),
(453,432,o),
(397,431,q),
(397,468,l),
(396,490,o),
(422,521,o),
(444,525,q),
(576,542,l),
(534,804,l),
(433,787,l),
(295,761,o),
(122,557,o),
(120,415,qs),
(120,229,l),
(120,165,o),
(180,58,o),
(287,-5,o),
(355,-5,qs),
(423,-5,o),
(535,59,o),
(601,166,o),
(601,230,qs)
);
}
);
width = 721;
}
);
unicode = 1548;
},
{
glyphname = arabicquestionmark;
layers = (
{
layerId = m000;
shapes = (
{
closed = 1;
nodes = (
(382,314,l),
(382,365,l),
(382,480,o),
(220,659,o),
(140,721,qs),
(26,812,o),
(-85,961,o),
(-85,1074,qs),
(-85,1259,o),
(135,1454,o),
(355,1454,qs),
(587,1454,o),
(725,1379,q),
(725,1321,l),
(564,1399,o),
(360,1399,qs),
(-25,1399,o),
(-25,1074,qs),
(-25,965,o),
(80,832,o),
(193,745,qs),
(303,661,o),
(444,489,o),
(444,369,qs),
(444,314,l)
);
},
{
closed = 1;
nodes = (
(375,0,l),
(375,71,l),
(449,71,l),
(449,0,l)
);
}
);
width = 858;
},
{
layerId = m001;
shapes = (
{
closed = 1;
nodes = (
(422,403,l),
(422,431,l),
(422,492,o),
(306,607,o),
(216,677,qs),
(108,763,o),
(23,921,o),
(23,1037,qs),
(23,1236,o),
(300,1454,o),
(561,1454,qs),
(827,1454,o),
(1011,1361,q),
(1011,1087,l),
(884,1171,o),
(672,1173,qs),
(420,1173,o),
(420,993,qs),
(420,921,o),
(502,834,o),
(589,762,qs),
(666,699,o),
(779,569,o),
(777,442,qs),
(777,403,l)
);
},
{
closed = 1;
nodes = (
(396,0,l),
(396,277,l),
(802,277,l),
(802,0,l)
);
}
);
width = 1075;
}
);
unicode = 1567;
},
{
glyphname = "decimalseparator-arab";
layers = (
{
layerId = m000;
shapes = (
{
closed = 1;
nodes = (
(393,360,l),
(346,380,l),
(0,-380,l),
(47,-402,l)
);
}
);
width = 564;
},
{
layerId = m001;
shapes = (
{
closed = 1;
nodes = (
(576,412,l),
(384,498,l),
(0,-343,l),
(193,-431,l)
);
}
);
width = 696;
}
);
unicode = 1643;
},
{
glyphname = "thousandsseparator-arab";
layers = (
{
layerId = m000;
shapes = (
{
closed = 1;
nodes = (
(144,-195,l),
(208,-160,o),
(279,-23,o),
(279,67,qs),
(279,240,l),
(228,240,l),
(228,67,l),
(228,-8,o),
(171,-122,o),
(119,-150,qs),
(96,-163,l),
(121,-208,l)
);
}
);
width = 450;
},
{
layerId = m001;
shapes = (
{
closed = 1;
nodes = (
(240,-270,l),
(319,-228,o),
(405,-65,o),
(405,40,qs),
(405,281,l),
(193,281,l),
(193,40,l),
(193,6,o),
(170,-66,o),
(137,-83,q),
(44,-135,l),
(147,-321,l)
);
}
);
width = 525;
}
);
unicode = 1644;
},
{
glyphname = "symboldotaccentmod-arab";
layers = (
{
layerId = m000;
shapes = (
{
closed = 1;
nodes = (
(-68,0,l),
(68,0,l),
(68,103,l),
(-68,103,l)
);
}
);
},
{
associatedMasterId = m000;
attr = {
coordinates = (
800,
3
);
};
layerId = m002;
name = "ExtraBold Dot3";
shapes = (
{
closed = 1;
nodes = (
(0,-67,l),
(200,133,l),
(0,333,l),
(-200,133,l)
);
}
);
},
{
associatedMasterId = m000;
attr = {
coordinates = (
400.012,
2
);
};
layerId = m003;
name = Dot2;
shapes = (
{
closed = 1;
nodes = (
(-114,0,l),
(114,0,l),
(114,179,l),
(-114,179,l)
);
}
);
},
{
associatedMasterId = m000;
attr = {
coordinates = (
400.012,
3
);
};
layerId = m004;
name = "DSTY=3";
shapes = (
{
closed = 1;
nodes = (
(0,-54,l),
(143,89,l),
(0,232,l),
(-143,89,l)
);
}
);
},
{
layerId = m005;
shapes = (
{
closed = 1;
nodes = (
(-68,0,l),
(68,0,l),
(68,103,l),
(-68,103,l)
);
}
);
},
{
layerId = m006;
shapes = (
{
closed = 1;
nodes = (
(0,-42,l),
(89,47,l),
(0,136,l),
(-89,47,l)
);
}
);
},
{
layerId = m001;
shapes = (
{
closed = 1;
nodes = (
(-145,0,l),
(145,0,l),
(145,253,l),
(-145,253,l)
);
}
);
},
{
layerId = m007;
shapes = (
{
closed = 1;
nodes = (
(-114,0,l),
(114,0,l),
(114,179,l),
(-114,179,l)
);
}
);
}
);
unicode = 64434;
},
{
glyphname = "symboldotbelowmod-arab";
layers = (
{
layerId = m000;
shapes = (
{
closed = 1;
nodes = (
(-68,-103,l),
(68,-103,l),
(68,0,l),
(-68,0,l)
);
}
);
},
{
associatedMasterId = m000;
attr = {
coordinates = (
800,
3
);
};
layerId = m002;
name = "ExtraBold Dot3";
shapes = (
{
closed = 1;
nodes = (
(0,-333,l),
(200,-133,l),
(0,67,l),
(-200,-133,l)
);
}
);
},
{
associatedMasterId = m000;
attr = {
coordinates = (
400.012,
2
);
};
layerId = m003;
name = Dot2;
shapes = (
{
closed = 1;
nodes = (
(-114,-179,l),
(114,-179,l),
(114,0,l),
(-114,0,l)
);
}
);
},
{
associatedMasterId = m000;
attr = {
coordinates = (
400.012,
3
);
};
layerId = m004;
name = "DSTY=3";
shapes = (
{
closed = 1;
nodes = (
(0,-232,l),
(143,-89,l),
(0,54,l),
(-143,-89,l)
);
}
);
},
{
layerId = m005;
shapes = (
{
closed = 1;
nodes = (
(-68,-103,l),
(68,-103,l),
(68,0,l),
(-68,0,l)
);
}
);
},
{
layerId = m001;
shapes = (
{
closed = 1;
nodes = (
(-145,-253,l),
(145,-253,l),
(145,0,l),
(-145,0,l)
);
}
);
},
{
layerId = m007;
shapes = (
{
closed = 1;
nodes = (
(-114,-179,l),
(114,-179,l),
(114,0,l),
(-114,0,l)
);
}
);
},
{
layerId = m006;
shapes = (
{
closed = 1;
nodes = (
(0,-136,l),
(89,-47,l),
(0,42,l),
(-89,-47,l)
);
}
);
}
);
unicode = 64435;
},
{
glyphname = "symboltwodotsabovemod-arab";
layers = (
{
layerId = m000;
shapes = (
{
closed = 1;
nodes = (
(86,0,l),
(218,0,l),
(218,101,l),
(86,101,l)
);
},
{
closed = 1;
nodes = (
(-86,101,l),
(-218,101,l),
(-218,0,l),
(-86,0,l)
);
}
);
},
{
associatedMasterId = m000;
attr = {
coordinates = (
800,
3
);
};
layerId = m002;
name = "ExtraBold Dot3";
shapes = (
{
closed = 1;
nodes = (
(-21,134,l),
(180,-67,l),
(380,133,l),
(179,334,l)
);
},
{
closed = 1;
nodes = (
(-179,333,l),
(-380,133,l),
(-180,-67,l),
(21,133,l)
);
}
);
},
{
associatedMasterId = m000;
attr = {
coordinates = (
400.012,
2
);
};
layerId = m003;
name = Dot2;
shapes = (
{
closed = 1;
nodes = (
(0,0,l),
(283,0,l),
(283,164,l),
(0,164,l)
);
},
{
closed = 1;
nodes = (
(0,164,l),
(-283,164,l),
(-283,0,l),
(0,0,l)
);
}
);
},
{
associatedMasterId = m000;
attr = {
coordinates = (
800,
2
);
};
layerId = m008;
name = "ExtraBold Dot2";
shapes = (
{
closed = 1;
nodes = (
(-6,0,l),
(311,0,l),
(311,254,l),
(-6,254,l)
);
},
{
closed = 1;
nodes = (
(6,254,l),
(-311,254,l),
(-311,0,l),
(6,0,l)
);
}
);
},
{
layerId = m007;
shapes = (
{
closed = 1;
nodes = (
(64,0,l),
(264,0,l),
(264,168,l),
(64,168,l)
);
},
{
closed = 1;
nodes = (
(-64,168,l),
(-264,168,l),
(-264,0,l),
(-64,0,l)
);
}
);
},
{
associatedMasterId = m000;
attr = {
coordinates = (
400.012,
3
);
};
layerId = m004;
name = "DSTY=3";
shapes = (
{
closed = 1;
nodes = (
(38,88,l),
(175,-51,l),
(313,87,l),
(175,225,l)
);
},
{
closed = 1;
nodes = (
(-175,225,l),
(-313,88,l),
(-175,-50,l),
(-38,87,l)
);
}
);
},
{
layerId = m005;
shapes = (
{
closed = 1;
nodes = (
(0,0,l),
(255,0,l),
(255,75,l),
(0,75,l)
);
},
{
closed = 1;
nodes = (
(0,75,l),
(-255,75,l),
(-255,0,l),
(0,0,l)
);
}
);
},
{
layerId = m006;
shapes = (
{
closed = 1;
nodes = (
(82,47,l),
(171,-42,l),
(259,46,l),
(170,135,l)
);
},
{
closed = 1;
nodes = (
(-170,135,l),
(-259,47,l),
(-171,-41,l),
(-82,47,l)
);
}
);
},
{
layerId = m001;
shapes = (
{
closed = 1;
nodes = (
(41,0,l),
(312,0,l),
(312,254,l),
(41,254,l)
);
},
{
closed = 1;
nodes = (
(-41,254,l),
(-312,254,l),
(-312,0,l),
(-41,0,l)
);
}
);
}
);
unicode = 64436;
},
{
glyphname = "symboltwodotsbelowmod-arab";
layers = (
{
layerId = m000;
shapes = (
{
closed = 1;
nodes = (
(86,-101,l),
(218,-101,l),
(218,0,l),
(86,0,l)
);
},
{
closed = 1;
nodes = (
(-86,0,l),
(-218,0,l),
(-218,-101,l),
(-86,-101,l)
);
}
);
},
{
associatedMasterId = m000;
attr = {
coordinates = (
800,
3
);
};
layerId = m002;
name = "ExtraBold Dot3";
shapes = (
{
closed = 1;
nodes = (
(179,-333,l),
(380,-133,l),
(180,67,l),
(-21,-133,l)
);
},
{
closed = 1;
nodes = (
(-179,67,l),
(-380,-133,l),
(-180,-333,l),
(21,-133,l)
);
}
);
},
{
associatedMasterId = m000;
attr = {
coordinates = (
400.012,
2
);
};
layerId = m003;
name = Dot2;
shapes = (
{
closed = 1;
nodes = (
(0,-164,l),
(283,-164,l),
(283,0,l),
(0,0,l)
);
},
{
closed = 1;
nodes = (
(0,0,l),
(-283,0,l),
(-283,-164,l),
(0,-164,l)
);
}
);
},
{
associatedMasterId = m000;
attr = {
coordinates = (
800,
2
);
};
layerId = m008;
name = "ExtraBold Dot2";
shapes = (
{
closed = 1;
nodes = (
(-6,-254,l),
(311,-254,l),
(311,0,l),
(-6,0,l)
);
},
{
closed = 1;
nodes = (
(6,0,l),
(-311,0,l),
(-311,-254,l),
(6,-254,l)
);
}
);
},
{
layerId = m007;
shapes = (
{
closed = 1;
nodes = (
(64,-168,l),
(264,-168,l),
(264,0,l),
(64,0,l)
);
},
{
closed = 1;
nodes = (
(-64,0,l),
(-264,0,l),
(-264,-168,l),
(-64,-168,l)
);
}
);
},
{
associatedMasterId = m000;
attr = {
coordinates = (
400.012,
3
);
};
layerId = m004;
name = "DSTY=3";
shapes = (
{
closed = 1;
nodes = (
(175,-205,l),
(313,-68,l),
(175,70,l),
(38,-67,l)
);
},
{
closed = 1;
nodes = (
(-175,70,l),
(-313,-67,l),
(-175,-205,l),
(-38,-68,l)
);
}
);
},
{
layerId = m005;
shapes = (
{
closed = 1;
nodes = (
(0,-75,l),
(255,-75,l),
(255,0,l),
(0,0,l)
);
},
{
closed = 1;
nodes = (
(0,0,l),
(-255,0,l),
(-255,-75,l),
(0,-75,l)
);
}
);
},
{
layerId = m001;
shapes = (
{
closed = 1;
nodes = (
(41,-254,l),
(312,-254,l),
(312,0,l),
(41,0,l)
);
},
{
closed = 1;
nodes = (
(-41,0,l),
(-312,0,l),
(-312,-254,l),
(-41,-254,l)
);
}
);
},
{
layerId = m006;
shapes = (
{
closed = 1;
nodes = (
(170,-135,l),
(259,-47,l),
(171,41,l),
(82,-47,l)
);
},
{
closed = 1;
nodes = (
(-170,41,l),
(-259,-47,l),
(-171,-135,l),
(-82,-47,l)
);
}
);
}
);
unicode = 64437;
},
{
glyphname = "symbolthreedotsabovemod-arab";
layers = (
{
layerId = m000;
shapes = (
{
closed = 1;
nodes = (
(86,0,l),
(218,0,l),
(218,101,l),
(86,101,l)
);
},
{
closed = 1;
nodes = (
(-86,101,l),
(-218,101,l),
(-218,0,l),
(-86,0,l)
);
},
{
closed = 1;
nodes = (
(-66,256,l),
(66,256,l),
(66,357,l),
(-66,357,l)
);
}
);
},
{
associatedMasterId = m000;
attr = {
coordinates = (
800,
3
);
};
layerId = m002;
name = "ExtraBold Dot3";
shapes = (
{
closed = 1;
nodes = (
(180,-59,l),
(371,131,l),
(181,320,l),
(-10,131,l)
);
},
{
closed = 1;
nodes = (
(10,130,l),
(-181,320,l),
(-371,130,l),
(-179,-60,l)
);
},
{
closed = 1;
nodes = (
(0,257,l),
(175,432,l),
(0,607,l),
(-175,432,l)
);
}
);
},
{
associatedMasterId = m000;
attr = {
coordinates = (
400.012,
2
);
};
layerId = m003;
name = Dot2;
shapes = (
{
closed = 1;
nodes = (
(0,0,l),
(283,0,l),
(283,164,l),
(0,164,l)
);
},
{
closed = 1;
nodes = (
(0,164,l),
(-283,164,l),
(-283,0,l),
(0,0,l)
);
},
{
closed = 1;
nodes = (
(-108,311,l),
(108,311,l),
(108,484,l),
(-108,484,l)
);
}
);
},
{
associatedMasterId = m000;
attr = {
coordinates = (
800,
2
);
};
layerId = m008;
name = "ExtraBold Dot2";
shapes = (
{
closed = 1;
nodes = (
(-6,0,l),
(311,0,l),
(311,254,l),
(-6,254,l)
);
},
{
closed = 1;
nodes = (
(6,254,l),
(-311,254,l),
(-311,0,l),
(6,0,l)
);
},
{
closed = 1;
nodes = (
(-140,336,l),
(140,336,l),
(140,581,l),
(-140,581,l)
);
}
);
},
{
layerId = m007;
shapes = (
{
closed = 1;
nodes = (
(64,0,l),
(264,0,l),
(264,168,l),
(64,168,l)
);
},
{
closed = 1;
nodes = (
(-64,168,l),
(-264,168,l),
(-264,0,l),
(-64,0,l)
);
},
{
closed = 1;
nodes = (
(-101,292,l),
(101,292,l),
(101,460,l),
(-101,460,l)
);
}
);
},
{
associatedMasterId = m000;
attr = {
coordinates = (
400.012,
3
);
};
layerId = m004;
name = "DSTY=3";
shapes = (
{
closed = 1;
nodes = (
(176,-50,l),
(307,81,l),
(176,211,l),
(45,81,l)
);
},
{
closed = 1;
nodes = (
(-45,81,l),
(-176,211,l),
(-306,81,l),
(-175,-50,l)
);
},
{
closed = 1;
nodes = (
(-1,239,l),
(124,362,l),
(1,485,l),
(-124,362,l)
);
}
);
},
{
layerId = m005;
shapes = (
{
closed = 1;
nodes = (
(0,0,l),
(255,0,l),
(255,75,l),
(0,75,l)
);
},
{
closed = 1;
nodes = (
(0,75,l),
(-255,75,l),
(-255,0,l),
(0,0,l)
);
},
{
closed = 1;
nodes = (
(-67,267,l),
(67,267,l),
(67,369,l),
(-67,369,l)
);
}
);
},
{
layerId = m006;
shapes = (
{
closed = 1;
nodes = (
(171,-41,l),
(259,46,l),
(172,133,l),
(84,46,l)
);
},
{
closed = 1;
nodes = (
(-83,46,l),
(-171,133,l),
(-258,46,l),
(-170,-41,l)
);
},
{
closed = 1;
nodes = (
(0,240,l),
(87,326,l),
(1,412,l),
(-86,326,l)
);
}
);
},
{
layerId = m001;
shapes = (
{
closed = 1;
nodes = (
(41,0,l),
(312,0,l),
(312,254,l),
(41,254,l)
);
},
{
closed = 1;
nodes = (
(-41,254,l),
(-312,254,l),
(-312,0,l),
(-41,0,l)
);
},
{
closed = 1;
nodes = (
(-140,336,l),
(140,336,l),
(140,581,l),
(-140,581,l)
);
}
);
}
);
unicode = 64438;
},
{
glyphname = "symbolthreedotspointingdownwardsbelowmod-arab";
layers = (
{
layerId = m000;
shapes = (
{
closed = 1;
nodes = (
(86,-101,l),
(218,-101,l),
(218,0,l),
(86,0,l)
);
},
{
closed = 1;
nodes = (
(-86,0,l),
(-218,0,l),
(-218,-101,l),
(-86,-101,l)
);
},
{
closed = 1;
nodes = (
(-66,-357,l),
(66,-357,l),
(66,-256,l),
(-66,-256,l)
);
}
);
},
{
associatedMasterId = m000;
attr = {
coordinates = (
800,
3
);
};
layerId = m002;
name = "ExtraBold Dot3";
shapes = (
{
closed = 1;
nodes = (
(179,-294,l),
(357,-118,l),
(180,59,l),
(2,-118,l)
);
},
{
closed = 1;
nodes = (
(-179,60,l),
(-357,-117,l),
(-180,-294,l),
(-2,-117,l)
);
},
{
closed = 1;
nodes = (
(0,-607,l),
(175,-432,l),
(0,-257,l),
(-175,-432,l)
);
}
);
},
{
associatedMasterId = m000;
attr = {
coordinates = (
400.012,
2
);
};
layerId = m003;
name = Dot2;
shapes = (
{
closed = 1;
nodes = (
(0,-153,l),
(283,-153,l),
(283,0,l),
(0,0,l)
);
},
{
closed = 1;
nodes = (
(0,0,l),
(-283,0,l),
(-283,-153,l),
(0,-153,l)
);
},
{
closed = 1;
nodes = (
(-107,-466,l),
(107,-466,l),
(107,-304,l),
(-107,-304,l)
);
}
);
},
{
associatedMasterId = m000;
attr = {
coordinates = (
800,
2
);
};
layerId = m008;
name = "ExtraBold Dot2";
shapes = (
{
closed = 1;
nodes = (
(-6,-254,l),
(311,-254,l),
(311,0,l),
(-6,0,l)
);
},
{
closed = 1;
nodes = (
(6,0,l),
(-311,0,l),
(-311,-254,l),
(6,-254,l)
);
},
{
closed = 1;
nodes = (
(-140,-581,l),
(140,-581,l),
(140,-336,l),
(-140,-336,l)
);
}
);
},
{
layerId = m007;
shapes = (
{
closed = 1;
nodes = (
(64,-168,l),
(264,-168,l),
(264,0,l),
(64,0,l)
);
},
{
closed = 1;
nodes = (
(-64,0,l),
(-264,0,l),
(-264,-168,l),
(-64,-168,l)
);
},
{
closed = 1;
nodes = (
(-100,-460,l),
(100,-460,l),
(100,-292,l),
(-100,-292,l)
);
}
);
},
{
associatedMasterId = m000;
attr = {
coordinates = (
400.012,
3
);
};
layerId = m004;
name = "DSTY=3";
shapes = (
{
closed = 1;
nodes = (
(175,-191,l),
(306,-61,l),
(175,70,l),
(44,-61,l)
);
},
{
closed = 1;
nodes = (
(-175,70,l),
(-306,-61,l),
(-175,-191,l),
(-44,-61,l)
);
},
{
closed = 1;
nodes = (
(0,-465,l),
(123,-342,l),
(0,-219,l),
(-123,-342,l)
);
}
);
},
{
layerId = m005;
shapes = (
{
closed = 1;
nodes = (
(0,-73,l),
(255,-73,l),
(255,0,l),
(0,0,l)
);
},
{
closed = 1;
nodes = (
(0,0,l),
(-255,0,l),
(-255,-73,l),
(0,-73,l)
);
},
{
closed = 1;
nodes = (
(-67,-375,l),
(67,-375,l),
(67,-275,l),
(-67,-275,l)
);
}
);
},
{
layerId = m001;
shapes = (
{
closed = 1;
nodes = (
(41,-254,l),
(312,-254,l),
(312,0,l),
(41,0,l)
);
},
{
closed = 1;
nodes = (
(-41,0,l),
(-312,0,l),
(-312,-254,l),
(-41,-254,l)
);
},
{
closed = 1;
nodes = (
(-140,-581,l),
(140,-581,l),
(140,-336,l),
(-140,-336,l)
);
}
);
},
{
layerId = m006;
shapes = (
{
closed = 1;
nodes = (
(170,-133,l),
(258,-46,l),
(171,41,l),
(83,-46,l)
);
},
{
closed = 1;
nodes = (
(-170,41,l),
(-258,-46,l),
(-171,-133,l),
(-83,-46,l)
);
},
{
closed = 1;
nodes = (
(0,-412,l),
(86,-326,l),
(0,-240,l),
(-86,-326,l)
);
}
);
}
);
unicode = 64441;
},
{
glyphname = glyph142;
layers = (
{
layerId = m000;
shapes = (
{
closed = 1;
nodes = (
(-44,-284,l),
(44,-284,l),
(44,-209,l),
(-44,-209,l)
);
},
{
closed = 1;
nodes = (
(103,-77,l),
(192,-77,l),
(192,0,l),
(103,0,l)
);
},
{
closed = 1;
nodes = (
(-103,0,l),
(-192,0,l),
(-192,-77,l),
(-103,-77,l)
);
}
);
},
{
associatedMasterId = m000;
attr = {
coordinates = (
800,
3
);
};
layerId = m002;
name = "ExtraBold Dot3";
shapes = (
{
closed = 1;
nodes = (
(-92,-295,l),
(61,-383,l),
(148,-230,l),
(-4,-142,l)
);
},
{
closed = 1;
nodes = (
(-13,-85,l),
(160,-186,l),
(260,-13,l),
(87,88,l)
);
},
{
closed = 1;
nodes = (
(-30,-91,l),
(-203,10,l),
(-303,-163,l),
(-130,-264,l)
);
}
);
},
{
associatedMasterId = m000;
attr = {
coordinates = (
400.012,
2
);
};
layerId = m003;
name = Dot2;
shapes = (
{
closed = 1;
nodes = (
(-75,-321,l),
(75,-321,l),
(75,-204,l),
(-75,-204,l)
);
},
{
closed = 1;
nodes = (
(0,-117,l),
(231,-117,l),
(231,0,l),
(0,0,l)
);
},
{
closed = 1;
nodes = (
(0,0,l),
(-231,0,l),
(-231,-117,l),
(0,-117,l)
);
}
);
},
{
associatedMasterId = m000;
attr = {
coordinates = (
800,
2
);
};
layerId = m008;
name = "ExtraBold Dot2";
shapes = (
{
closed = 1;
nodes = (
(-100,-373,l),
(100,-373,l),
(100,-223,l),
(-100,-223,l)
);
},
{
closed = 1;
nodes = (
(-13,-177,l),
(215,-177,l),
(215,0,l),
(-13,0,l)
);
},
{
closed = 1;
nodes = (
(13,0,l),
(-215,0,l),
(-215,-177,l),
(13,-177,l)
);
}
);
},
{
layerId = m007;
shapes = (
{
closed = 1;
nodes = (
(-66,-311,l),
(66,-311,l),
(66,-205,l),
(-66,-205,l)
);
},
{
closed = 1;
nodes = (
(63,-117,l),
(205,-117,l),
(205,0,l),
(63,0,l)
);
},
{
closed = 1;
nodes = (
(-63,0,l),
(-205,0,l),
(-205,-117,l),
(-63,-117,l)
);
}
);
},
{
associatedMasterId = m000;
attr = {
coordinates = (
400.012,
3
);
};
layerId = m004;
name = "DSTY=3";
shapes = (
{
closed = 1;
nodes = (
(-58,-265,l),
(70,-339,l),
(143,-211,l),
(16,-137,l)
);
},
{
closed = 1;
nodes = (
(24,-31,l),
(161,-111,l),
(242,27,l),
(104,108,l)
);
},
{
closed = 1;
nodes = (
(-47,-51,l),
(-185,30,l),
(-266,-109,l),
(-128,-189,l)
);
}
);
},
{
layerId = m005;
shapes = (
{
closed = 1;
nodes = (
(-54,-277,l),
(54,-277,l),
(54,-192,l),
(-54,-192,l)
);
},
{
closed = 1;
nodes = (
(0,-64,l),
(247,-64,l),
(247,0,l),
(0,0,l)
);
},
{
closed = 1;
nodes = (
(0,0,l),
(-247,0,l),
(-247,-64,l),
(0,-64,l)
);
}
);
},
{
layerId = m001;
shapes = (
{
closed = 1;
nodes = (
(-90,-340,l),
(90,-340,l),
(90,-200,l),
(-90,-200,l)
);
},
{
closed = 1;
nodes = (
(20,-160,l),
(220,-160,l),
(220,0,l),
(20,0,l)
);
},
{
closed = 1;
nodes = (
(-20,0,l),
(-220,0,l),
(-220,-160,l),
(-20,-160,l)
);
}
);
},
{
layerId = m006;
shapes = (
{
closed = 1;
nodes = (
(-27,-237,l),
(79,-298,l),
(139,-193,l),
(34,-132,l)
);
},
{
closed = 1;
nodes = (
(58,20,l),
(164,-42,l),
(226,65,l),
(119,127,l)
);
},
{
closed = 1;
nodes = (
(-63,-13,l),
(-170,49,l),
(-232,-58,l),
(-125,-120,l)
);
}
);
}
);
unicode = 57344;
},
{
glyphname = "hamza-arab";
layers = (
{
anchors = (
{
name = "top-arab";
pos = (540,772);
},
{
name = "bottom-arab";
pos = (500,0);
}
);
layerId = m000;
shapes = (
{
closed = 1;
nodes = (
(215,-11,l),
(888,248,l),
(868,300,l),
(542,175,l),
(466,174,o),
(352,248,o),
(291,370,o),
(291,438,qs),
(291,506,o),
(352,634,o),
(465,715,o),
(539,716,qs),
(659,717,o),
(756,641,q),
(769,702,l),
(736,727,o),
(619,772,o),
(540,772,qs),
(450,772,o),
(311,675,o),
(235,520,o),
(235,438,qs),
(235,334,o),
(350,165,o),
(447,138,q),
(195,42,l)
);
}
);
width = 1022;
},
{
anchors = (
{
name = "top-arab";
pos = (567,984);
},
{
name = "bottom-arab";
pos = (500,0);
}
);
layerId = m001;
shapes = (
{
closed = 1;
nodes = (
(224,-22,l),
(978,271,l),
(874,539,l),
(599,432,l),
(548,437,o),
(486,477,o),
(460,533,o),
(460,563,qs),
(460,592,o),
(480,647,o),
(520,689,o),
(551,698,qs),
(631,720,o),
(739,634,q),
(846,898,l),
(805,929,o),
(662,984,o),
(567,984,qs),
(451,984,o),
(271,862,o),
(174,667,o),
(174,563,qs),
(174,489,o),
(228,353,o),
(280,307,q),
(121,247,l)
);
}
);
width = 1097;
}
);
unicode = (1569,65152);
},
{
glyphname = "alef-arab.calt";
layers = (
{
anchors = (
{
name = "top-arab";
pos = (220,1219);
},
{
name = "bottom-arab";
pos = (220,0);
}
);
layerId = m000;
shapes = (
{
closed = 1;
nodes = (
(191,0,l),
(250,0,l),
(250,1219,l),
(191,1219,l)
);
}
);
width = 441;
},
{
anchors = (
{
name = "top-arab";
pos = (295,1344);
},
{
name = "bottom-arab";
pos = (295,0);
}
);
layerId = m001;
shapes = (
{
closed = 1;
nodes = (
(136,0,l),
(455,0,l),
(455,1344,l),
(136,1344,l)
);
}
);
width = 591;
}
);
},
{
glyphname = "alef-arab.fina.1";
layers = (
{
anchors = (
{
name = "top-arab";
pos = (220,1219);
},
{
name = "bottom-arab";
pos = (220,0);
}
);
layerId = m000;
shapes = (
{
closed = 1;
nodes = (
(572,60,l),
(518,60,l),
(445,60,o),
(321,132,o),
(250,256,o),
(250,329,qs),
(250,1219,l),
(191,1219,l),
(191,326,l),
(191,237,o),
(278,88,o),
(428,0,o),
(518,0,qs),
(572,0,l)
);
}
);
width = 572;
},
{
anchors = (
{
name = "top-arab";
pos = (295,1344);
},
{
name = "bottom-arab";
pos = (295,0);
}
);
layerId = m001;
shapes = (
{
closed = 1;
nodes = (
(664,340,l),
(556,340,l),
(526,340,o),
(479,369,o),
(455,421,o),
(455,452,qs),
(455,1344,l),
(136,1344,l),
(136,409,l),
(136,298,o),
(236,112,o),
(426,0,o),
(556,0,qs),
(664,0,l)
);
}
);
width = 663;
}
);
},
{
glyphname = "alef-arab";
layers = (
{
anchors = (
{
name = "top-arab";
pos = (220,1413);
},
{
name = "bottom-arab";
pos = (220,0);
}
);
layerId = m000;
shapes = (
{
closed = 1;
nodes = (
(191,0,l),
(250,0,l),
(250,1413,l),
(191,1413,l)
);
}
);
width = 441;
},
{
anchors = (
{
name = "top-arab";
pos = (295,1454);
},
{
name = "bottom-arab";
pos = (295,0);
}
);
layerId = m001;
shapes = (
{
closed = 1;
nodes = (
(136,0,l),
(455,0,l),
(455,1454,l),
(136,1454,l)
);
}
);
width = 591;
}
);
unicode = (1575,65165);
},
{
glyphname = "alef-arab.fina";
layers = (
{
anchors = (
{
name = "top-arab";
pos = (220,1413);
},
{
name = "bottom-arab";
pos = (220,0);
}
);
layerId = m000;
shapes = (
{
closed = 1;
nodes = (
(572,60,l),
(518,60,l),
(445,60,o),
(321,132,o),
(250,256,o),
(250,329,qs),
(250,1413,l),
(191,1413,l),
(191,326,l),
(191,237,o),
(278,88,o),
(428,0,o),
(518,0,qs),
(572,0,l)
);
}
);
width = 572;
},
{
anchors = (
{
name = "top-arab";
pos = (295,1454);
},
{
name = "bottom-arab";
pos = (295,0);
}
);
layerId = m001;
shapes = (
{
closed = 1;
nodes = (
(664,340,l),
(556,340,l),
(526,340,o),
(479,369,o),
(455,421,o),
(455,452,qs),
(455,1454,l),
(136,1454,l),
(136,409,l),
(136,298,o),
(236,112,o),
(426,0,o),
(556,0,qs),
(664,0,l)
);
}
);
width = 663;
}
);
unicode = 65166;
},
{
glyphname = arabictatweelmod;
layers = (
{
anchors = (
{
name = "top-arab";
pos = (131,252);
},
{
name = "bottom-arab";
pos = (131,0);
}
);
layerId = m000;
shapes = (
{
closed = 1;
nodes = (
(-38,57,o),
(-68,30,o),
(-38,3,o),
(0,0,q),
(263,0,l),
(263,60,l),
(0,60,l)
);
}
);
width = 263;
},
{
anchors = (
{
name = "top-arab";
pos = (150,416);
},
{
name = "bottom-arab";
pos = (150,0);
}
);
layerId = m001;
shapes = (
{
closed = 1;
nodes = (
(-42,298,o),
(-72,170,o),
(-42,42,o),
(0,0,q),
(300,0,l),
(300,340,l),
(0,340,l)
);
}
);
width = 299;
}
);
unicode = (1600,57525);
},
{
glyphname = glyph155;
layers = (
{
anchors = (
{
name = "top-arab";
pos = (884,433);
},
{
name = "bottom-arab";
pos = (884,0);
}
);
layerId = m000;
shapes = (
{
closed = 1;
nodes = (
(1378,0,o),
(1540,112,o),
(1575,203,q),
(1611,112,o),
(1772,0,o),
(1873,0,qs),
(1906,0,l),
(1906,60,l),
(1873,60,l),
(1800,60,o),
(1677,132,o),
(1604,256,o),
(1604,329,qs),
(1604,610,l),
(1546,610,l),
(1546,329,l),
(1546,256,o),
(1474,132,o),
(1350,60,o),
(1277,60,qs),
(499,60,l),
(425,60,o),
(302,132,o),
(230,256,o),
(230,329,qs),
(230,632,l),
(171,632,l),
(171,326,l),
(171,237,o),
(259,88,o),
(410,0,o),
(499,0,qs),
(1277,0,l)
);
}
);
width = 1906;
},
{
anchors = (
{
name = "top-arab";
pos = (869,616);
},
{
name = "bottom-arab";
pos = (869,0);
}
);
layerId = m001;
shapes = (
{
closed = 1;
nodes = (
(1395,0,o),
(1526,69,o),
(1578,134,q),
(1630,69,o),
(1761,0,o),
(1848,0,qs),
(1913,0,l),
(1913,340,l),
(1848,340,l),
(1818,340,o),
(1767,370,o),
(1737,421,o),
(1737,452,qs),
(1737,753,l),
(1419,753,l),
(1419,452,l),
(1419,421,o),
(1389,370,o),
(1337,340,o),
(1307,340,qs),
(550,340,l),
(519,340,o),
(469,370,o),
(439,421,o),
(439,452,qs),
(439,797,l),
(120,797,l),
(120,409,l),
(120,297,o),
(235,110,o),
(433,0,o),
(550,0,qs),
(1307,0,l)
);
}
);
width = 1913;
}
);
},
{
glyphname = "uighurkazakhkirghizalefmaksura-arab.init";
layers = (
{
anchors = (
{
name = "top-arab";
pos = (422,632);
},
{
name = "bottom-arab";
pos = (218,0);
}
);
layerId = m000;
shapes = (
{
closed = 1;
nodes = (
(-38,57,o),
(-68,30,o),
(-38,3,o),
(0,0,q),
(218,0,l),
(307,0,o),
(457,88,o),
(545,237,o),
(545,326,qs),
(545,632,l),
(486,632,l),
(486,329,l),
(486,256,o),
(414,132,o),
(291,60,o),
(218,60,qs),
(0,60,l)
);
}
);
width = 716;
},
{
anchors = (
{
name = "top-arab";
pos = (453,796);
},
{
name = "bottom-arab";
pos = (185,0);
}
);
layerId = m001;
shapes = (
{
closed = 1;
nodes = (
(-42,298,o),
(-72,170,o),
(-42,42,o),
(0,0,q),
(185,0,l),
(302,0,o),
(499,110,o),
(615,297,o),
(615,409,qs),
(615,797,l),
(296,797,l),
(296,452,l),
(296,421,o),
(266,370,o),
(215,340,o),
(185,340,qs),
(0,340,l)
);
}
);
width = 735;
}
);
unicode = 64488;
},
{
glyphname = "uighurkazakhkirghizalefmaksura-arab.medi";
layers = (
{
anchors = (
{
name = "top-arab";
pos = (423,610);
},
{
name = "bottom-arab";
pos = (218,0);
}
);
layerId = m000;
shapes = (
{
closed = 1;
nodes = (
(-38,57,o),
(-68,30,o),
(-38,3,o),
(0,0,q),
(218,0,l),
(319,0,o),
(480,112,o),
(516,203,q),
(551,112,o),
(712,0,o),
(814,0,qs),
(846,0,l),
(846,60,l),
(814,60,l),
(741,60,o),
(617,132,o),
(545,256,o),
(545,329,qs),
(545,610,l),
(486,610,l),
(486,329,l),
(486,256,o),
(414,132,o),
(291,60,o),
(218,60,qs),
(0,60,l)
);
}
);
width = 846;
},
{
anchors = (
{
name = "top-arab";
pos = (453,753);
},
{
name = "bottom-arab";
pos = (185,0);
}
);
layerId = m001;
shapes = (
{
closed = 1;
nodes = (
(-42,298,o),
(-72,170,o),
(-42,42,o),
(0,0,q),
(185,0,l),
(273,0,o),
(403,69,o),
(456,134,q),
(507,69,o),
(638,0,o),
(726,0,qs),
(790,0,l),
(790,340,l),
(726,340,l),
(696,340,o),
(645,370,o),
(615,421,o),
(615,452,qs),
(615,753,l),
(296,753,l),
(296,452,l),
(296,421,o),
(266,370,o),
(215,340,o),
(185,340,qs),
(0,340,l)
);
}
);
width = 790;
}
);
unicode = 64489;
},
{
glyphname = glyph158;
layers = (
{
layerId = m000;
shapes = (
{
closed = 1;
nodes = (
(-38,57,o),
(-68,30,o),
(-38,3,o),
(0,0,q),
(162,0,l),
(251,0,o),
(401,88,o),
(489,237,o),
(489,326,qs),
(489,632,l),
(431,632,l),
(431,329,l),
(431,256,o),
(358,132,o),
(235,60,o),
(162,60,qs),
(0,60,l)
);
}
);
width = 660;
},
{
layerId = m001;
shapes = (
{
closed = 1;
nodes = (
(-42,298,o),
(-72,170,o),
(-42,42,o),
(0,0,q),
(188,0,l),
(305,0,o),
(502,110,o),
(617,297,o),
(617,409,qs),
(617,797,l),
(299,797,l),
(299,452,l),
(299,421,o),
(268,370,o),
(217,340,o),
(188,340,qs),
(0,340,l)
);
}
);
width = 737;
}
);
unicode = 57346;
},
{
glyphname = glyph159;
layers = (
{
layerId = m000;
shapes = (
{
closed = 1;
nodes = (
(-38,57,o),
(-68,30,o),
(-38,3,o),
(0,0,q),
(162,0,l),
(263,0,o),
(425,112,o),
(460,203,q),
(495,112,o),
(657,0,o),
(758,0,qs),
(790,0,l),
(790,60,l),
(758,60,l),
(685,60,o),
(561,132,o),
(489,256,o),
(489,329,qs),
(489,610,l),
(431,610,l),
(431,329,l),
(431,256,o),
(358,132,o),
(235,60,o),
(162,60,qs),
(0,60,l)
);
}
);
width = 790;
},
{
layerId = m001;
shapes = (
{
closed = 1;
nodes = (
(-42,298,o),
(-72,170,o),
(-42,42,o),
(0,0,q),
(188,0,l),
(275,0,o),
(407,69,o),
(458,134,q),
(510,69,o),
(641,0,o),
(729,0,qs),
(793,0,l),
(793,340,l),
(729,340,l),
(699,340,o),
(647,370,o),
(617,421,o),
(617,452,qs),
(617,753,l),
(299,753,l),
(299,452,l),
(299,421,o),
(268,370,o),
(217,340,o),
(188,340,qs),
(0,340,l)
);
}
);
width = 793;
}
);
unicode = 57347;
},
{
glyphname = glyph160;
layers = (
{
layerId = m000;
shapes = (
{
closed = 1;
nodes = (
(-38,57,o),
(-68,30,o),
(-38,3,o),
(0,0,q),
(510,0,l),
(599,0,o),
(749,88,o),
(837,237,o),
(837,326,qs),
(837,632,l),
(779,632,l),
(779,329,l),
(779,256,o),
(706,132,o),
(583,60,o),
(510,60,qs),
(0,60,l)
);
}
);
width = 1009;
},
{
layerId = m001;
shapes = (
{
closed = 1;
nodes = (
(-42,298,o),
(-72,170,o),
(-42,42,o),
(0,0,q),
(508,0,l),
(625,0,o),
(822,110,o),
(938,297,o),
(938,409,qs),
(938,797,l),
(620,797,l),
(620,452,l),
(620,421,o),
(589,370,o),
(538,340,o),
(508,340,qs),
(0,340,l)
);
}
);
width = 1058;
}
);
unicode = 57350;
},
{
glyphname = glyph161;
layers = (
{
layerId = m000;
shapes = (
{
closed = 1;
nodes = (
(-38,57,o),
(-68,30,o),
(-38,3,o),
(0,0,q),
(400,0,l),
(501,0,o),
(663,112,o),
(698,203,q),
(733,112,o),
(895,0,o),
(996,0,qs),
(1028,0,l),
(1028,60,l),
(996,60,l),
(923,60,o),
(800,132,o),
(727,256,o),
(727,329,qs),
(727,610,l),
(669,610,l),
(669,329,l),
(669,256,o),
(597,132,o),
(473,60,o),
(400,60,qs),
(0,60,l)
);
}
);
width = 1028;
},
{
layerId = m001;
shapes = (
{
closed = 1;
nodes = (
(-42,298,o),
(-72,170,o),
(-42,42,o),
(0,0,q),
(400,0,l),
(488,0,o),
(619,69,o),
(671,134,q),
(722,69,o),
(853,0,o),
(941,0,qs),
(1005,0,l),
(1005,340,l),
(941,340,l),
(911,340,o),
(860,370,o),
(829,421,o),
(829,452,qs),
(829,753,l),
(512,753,l),
(512,452,l),
(512,421,o),
(482,370,o),
(430,340,o),
(400,340,qs),
(0,340,l)
);
}
);
width = 1005;
}
);
unicode = 57351;
},
{
glyphname = glyph188;
layers = (
{
layerId = m000;
shapes = (
{
closed = 1;
nodes = (
(419,257,l),
(341,222,o),
(225,110,o),
(161,-36,o),
(161,-117,qs),
(161,-227,o),
(268,-412,o),
(453,-521,o),
(563,-521,qs),
(1177,-521,l),
(1177,-461,l),
(563,-461,l),
(456,-461,o),
(280,-340,o),
(242,-241,qs),
(209,-154,o),
(239,22,o),
(353,164,o),
(441,204,qs),
(1236,583,l),
(1239,638,l),
(1239,638,o),
(1005,774,o),
(745,924,o),
(654,976,qs),
(577,1020,o),
(412,1004,o),
(275,889,o),
(240,791,q),
(231,769,l),
(286,747,l),
(295,770,l),
(324,853,o),
(435,948,o),
(567,960,o),
(628,925,qs),
(922,755,o),
(1092,658,qs),
(1141,629,o),
(1169,614,q)
);
}
);
width = 1336;
},
{
layerId = m001;
shapes = (
{
closed = 1;
nodes = (
(576,512,l),
(412,449,o),
(197,254,o),
(101,25,o),
(108,-92,qs),
(118,-248,o),
(261,-483,o),
(527,-614,o),
(713,-614,qs),
(1210,-614,l),
(1210,-275,l),
(713,-275,l),
(590,-275,o),
(455,-188,o),
(441,-128,qs),
(426,-65,o),
(456,50,o),
(571,160,o),
(690,215,qs),
(1259,479,l),
(1273,825,l),
(1273,825,o),
(1077,941,o),
(843,1066,o),
(747,1106,qs),
(637,1152,o),
(416,1122,o),
(235,981,o),
(185,866,qs),
(151,793,l),
(442,662,l),
(476,736,l),
(485,758,o),
(522,806,o),
(584,830,o),
(626,813,qs),
(696,783,o),
(895,696,qs),
(944,673,o),
(968,663,q)
);
}
);
width = 1351;
}
);
unicode = 57352;
},
{
glyphname = glyph189;
layers = (
{
layerId = m000;
shapes = (
{
closed = 1;
nodes = (
(1236,586,l),
(1239,638,l),
(1239,638,o),
(1005,774,o),
(745,924,o),
(654,976,qs),
(577,1020,o),
(412,1004,o),
(275,889,o),
(240,791,q),
(231,769,l),
(286,747,l),
(295,770,l),
(324,853,o),
(435,948,o),
(567,960,o),
(628,925,qs),
(922,755,o),
(1092,658,qs),
(1141,629,o),
(1169,614,q),
(419,257,l),
(341,222,o),
(225,110,o),
(161,-36,o),
(161,-117,qs),
(161,-227,o),
(268,-412,o),
(453,-521,o),
(563,-521,qs),
(1177,-521,l),
(1177,-461,l),
(563,-461,l),
(456,-461,o),
(280,-340,o),
(242,-241,qs),
(209,-154,o),
(239,22,o),
(353,164,o),
(441,204,qs),
(1021,483,l),
(1084,190,l),
(1104,86,o),
(1267,0,o),
(1348,0,qs),
(1398,0,l),
(1398,60,l),
(1348,60,l),
(1280,60,o),
(1154,123,o),
(1137,209,qs),
(1072,507,l)
);
}
);
width = 1398;
},
{
layerId = m001;
shapes = (
{
closed = 1;
nodes = (
(1259,508,l),
(1273,825,l),
(1273,825,o),
(1077,941,o),
(843,1066,o),
(747,1106,qs),
(637,1152,o),
(416,1122,o),
(235,981,o),
(185,866,qs),
(151,793,l),
(442,662,l),
(476,736,l),
(485,758,o),
(522,806,o),
(584,830,o),
(626,813,qs),
(696,783,o),
(895,696,qs),
(944,673,o),
(968,663,q),
(576,512,l),
(412,449,o),
(197,254,o),
(101,25,o),
(108,-92,qs),
(118,-248,o),
(261,-483,o),
(527,-614,o),
(713,-614,qs),
(1210,-614,l),
(1210,-275,l),
(713,-275,l),
(590,-275,o),
(455,-188,o),
(441,-128,qs),
(426,-65,o),
(456,50,o),
(571,160,o),
(690,215,qs),
(937,329,l),
(967,191,l),
(988,101,o),
(1126,0,o),
(1231,0,qs),
(1450,0,l),
(1450,340,l),
(1241,340,l),
(1221,340,o),
(1189,356,o),
(1185,374,q),
(1166,450,l)
);
}
);
width = 1451;
}
);
unicode = 57353;
},
{
glyphname = "hah-arab";
layers = (
{
anchors = (
{
name = "top-arab";
pos = (655,1013);
},
{
name = "bottom-arab";
pos = (759,-521);
}
);
layerId = m000;
shapes = (
{
closed = 1;
nodes = (
(419,257,l),
(301,204,o),
(161,5,o),
(161,-117,qs),
(161,-227,o),
(268,-412,o),
(453,-521,o),
(563,-521,qs),
(1177,-521,l),
(1177,-461,l),
(563,-461,l),
(456,-461,o),
(280,-340,o),
(242,-241,qs),
(209,-154,o),
(239,22,o),
(353,164,o),
(441,204,qs),
(1236,583,l),
(1239,638,l),
(1239,638,o),
(1005,774,o),
(745,924,o),
(654,976,qs),
(577,1020,o),
(412,1004,o),
(275,889,o),
(240,791,q),
(231,769,l),
(286,747,l),
(295,770,l),
(324,853,o),
(435,948,o),
(567,960,o),
(628,925,qs),
(922,755,o),
(1092,658,qs),
(1141,629,o),
(1169,614,q)
);
}
);
width = 1338;
},
{
anchors = (
{
name = "top-arab";
pos = (747,1140);
},
{
name = "bottom-arab";
pos = (748,-508);
}
);
layerId = m001;
shapes = (
{
closed = 1;
nodes = (
(430,456,l),
(285,399,o),
(109,144,o),
(109,-10,qs),
(110,-146,o),
(243,-374,o),
(472,-508,o),
(607,-508,qs),
(1210,-508,l),
(1210,-169,l),
(607,-169,l),
(548,-169,o),
(460,-123,o),
(441,-75,qs),
(424,-30,o),
(439,62,o),
(498,136,o),
(544,158,qs),
(1259,479,l),
(1273,825,l),
(1273,825,o),
(1077,942,o),
(843,1066,o),
(747,1106,qs),
(637,1152,o),
(416,1122,o),
(235,981,o),
(185,866,qs),
(151,793,l),
(442,662,l),
(476,736,l),
(485,758,o),
(522,806,o),
(584,830,o),
(626,813,qs),
(696,783,o),
(895,696,qs),
(944,673,o),
(968,664,q)
);
}
);
width = 1354;
}
);
unicode = (1581,65185);
},
{
glyphname = "hah-arab.fina";
layers = (
{
anchors = (
{
name = "top-arab";
pos = (655,1013);
},
{
name = "bottom-arab";
pos = (759,-521);
}
);
layerId = m000;
shapes = (
{
closed = 1;
nodes = (
(1236,586,l),
(1239,638,l),
(1239,638,o),
(1005,774,o),
(745,924,o),
(654,976,qs),
(577,1020,o),
(412,1004,o),
(275,889,o),
(240,791,q),
(231,769,l),
(286,747,l),
(295,770,l),
(324,853,o),
(435,948,o),
(567,960,o),
(628,925,qs),
(922,755,o),
(1092,658,qs),
(1141,629,o),
(1169,614,q),
(419,257,l),
(301,204,o),
(161,5,o),
(161,-117,qs),
(161,-227,o),
(268,-412,o),
(453,-521,o),
(563,-521,qs),
(1177,-521,l),
(1177,-461,l),
(563,-461,l),
(456,-461,o),
(280,-340,o),
(242,-241,qs),
(209,-154,o),
(239,22,o),
(353,164,o),
(441,204,qs),
(1021,483,l),
(1084,190,l),
(1104,86,o),
(1267,0,o),
(1348,0,qs),
(1398,0,l),
(1398,60,l),
(1348,60,l),
(1280,60,o),
(1154,123,o),
(1137,209,qs),
(1072,507,l)
);
}
);
width = 1398;
},
{
anchors = (
{
name = "top-arab";
pos = (747,1140);
},
{
name = "bottom-arab";
pos = (748,-508);
}
);
layerId = m001;
shapes = (
{
closed = 1;
nodes = (
(1259,508,l),
(1273,825,l),
(1273,825,o),
(1077,942,o),
(843,1066,o),
(747,1106,qs),
(637,1152,o),
(416,1122,o),
(235,981,o),
(185,866,qs),
(151,793,l),
(442,662,l),
(476,736,l),
(485,758,o),
(522,806,o),
(584,830,o),
(626,813,qs),
(696,783,o),
(895,696,qs),
(944,673,o),
(968,664,q),
(430,456,l),
(285,399,o),
(109,144,o),
(109,-10,qs),
(110,-146,o),
(243,-374,o),
(472,-508,o),
(607,-508,qs),
(1210,-508,l),
(1210,-169,l),
(607,-169,l),
(548,-169,o),
(460,-123,o),
(441,-75,qs),
(424,-30,o),
(439,62,o),
(498,136,o),
(544,158,qs),
(936,333,l),
(967,191,l),
(988,101,o),
(1126,0,o),
(1231,0,qs),
(1450,0,l),
(1450,340,l),
(1241,340,l),
(1221,340,o),
(1189,356,o),
(1185,374,qs),
(1166,451,l)
);
}
);
width = 1450;
}
);
unicode = 65186;
},
{
glyphname = "hah-arab.init";
layers = (
{
anchors = (
{
name = "top-arab";
pos = (629,790);
},
{
name = "bottom-arab";
pos = (629,29);
}
);
layerId = m000;
shapes = (
{
closed = 1;
nodes = (
(-38,57,o),
(-68,30,o),
(-38,3,o),
(0,0,q),
(218,0,l),
(426,0,o),
(846,144,o),
(1133,304,o),
(1210,359,q),
(1216,363,o),
(1218,364,q),
(1215,416,l),
(1215,416,o),
(980,551,o),
(720,701,o),
(629,753,qs),
(552,797,o),
(386,781,o),
(249,666,o),
(214,568,qs),
(206,546,l),
(261,525,l),
(269,547,l),
(298,630,o),
(409,725,o),
(542,736,o),
(602,702,qs),
(617,693,o),
(649,675,qs),
(863,552,o),
(964,494,qs),
(1101,415,o),
(1152,386,q),
(979,275,o),
(477,60,o),
(218,60,qs),
(0,60,l)
);
}
);
width = 1316;
},
{
anchors = (
{
name = "top-arab";
pos = (652,972);
},
{
name = "bottom-arab";
pos = (652,20);
}
);
layerId = m001;
shapes = (
{
closed = 1;
nodes = (
(-42,298,o),
(-72,170,o),
(-42,42,o),
(0,0,q),
(213,0,l),
(474,0,o),
(894,136,o),
(1131,285,o),
(1204,346,q),
(1210,352,o),
(1213,353,q),
(1196,665,l),
(1196,665,o),
(990,777,o),
(749,898,o),
(652,938,qs),
(542,983,o),
(320,953,o),
(139,813,o),
(89,698,qs),
(61,636,l),
(353,506,l),
(381,568,l),
(389,590,o),
(426,638,o),
(489,661,o),
(530,644,q),
(543,638,o),
(557,633,q),
(613,609,o),
(750,549,qs),
(864,499,o),
(919,475,q),
(775,414,o),
(406,340,o),
(213,340,qs),
(0,340,l)
);
}
);
width = 1294;
}
);
unicode = 65187;
},
{
glyphname = "hah-arab.medi";
layers = (
{
anchors = (
{
name = "top-arab";
pos = (629,790);
},
{
name = "bottom-arab";
pos = (629,0);
}
);
layerId = m000;
shapes = (
{
closed = 1;
nodes = (
(-38,57,o),
(-68,30,o),
(-38,3,o),
(0,0,q),
(218,0,l),
(399,0,o),
(770,114,o),
(940,201,q),
(1083,78,l),
(1125,41,o),
(1233,0,o),
(1290,0,qs),
(1387,0,l),
(1387,60,l),
(1290,60,l),
(1197,60,o),
(1120,121,qs),
(991,230,l),
(1098,288,o),
(1187,347,qs),
(1215,365,o),
(1217,368,q),
(1215,416,l),
(1215,416,o),
(980,551,o),
(720,701,o),
(629,753,qs),
(552,797,o),
(386,781,o),
(249,666,o),
(214,568,qs),
(206,546,l),
(261,525,l),
(269,547,l),
(298,630,o),
(409,725,o),
(542,736,o),
(602,702,qs),
(617,693,o),
(649,675,qs),
(863,552,o),
(964,494,qs),
(1101,415,o),
(1152,386,q),
(979,275,o),
(477,60,o),
(218,60,qs),
(0,60,l)
);
}
);
width = 1387;
},
{
anchors = (
{
name = "top-arab";
pos = (652,972);
},
{
name = "bottom-arab";
pos = (652,0);
}
);
layerId = m001;
shapes = (
{
closed = 1;
nodes = (
(-42,298,o),
(-72,170,o),
(-42,42,o),
(0,0,q),
(213,0,l),
(422,0,o),
(778,106,o),
(924,190,q),
(953,123,l),
(975,67,o),
(1104,0,o),
(1182,0,qs),
(1382,0,l),
(1382,340,l),
(1182,340,l),
(1158,340,o),
(1143,343,q),
(1140,345,l),
(1168,370,o),
(1197,397,q),
(1206,404,o),
(1207,406,q),
(1196,665,l),
(1196,665,o),
(990,777,o),
(749,898,o),
(652,938,qs),
(542,983,o),
(320,953,o),
(139,813,o),
(89,698,qs),
(61,636,l),
(353,506,l),
(381,568,l),
(389,590,o),
(426,638,o),
(489,661,o),
(530,644,q),
(543,638,o),
(557,633,q),
(613,609,o),
(750,549,qs),
(864,499,o),
(919,475,q),
(775,414,o),
(406,340,o),
(213,340,qs),
(0,340,l)
);
}
);
width = 1382;
}
);
unicode = 65188;
},
{
glyphname = "dal-arab";
layers = (
{
anchors = (
{
name = "top-arab";
pos = (466,894);
},
{
name = "bottom-arab";
pos = (481,0);
}
);
layerId = m000;
shapes = (
{
closed = 1;
nodes = (
(690,0,o),
(817,81,o),
(885,214,o),
(875,365,o),
(826,430,qs),
(470,898,l),
(423,863,l),
(779,395,l),
(828,330,o),
(813,170,o),
(698,59,o),
(612,59,qs),
(93,59,l),
(93,0,l),
(612,0,l)
);
}
);
width = 1037;
},
{
anchors = (
{
name = "top-arab";
pos = (512,1075);
},
{
name = "bottom-arab";
pos = (500,0);
}
);
layerId = m001;
shapes = (
{
closed = 1;
nodes = (
(784,0,o),
(962,114,o),
(1058,300,o),
(1044,512,o),
(975,603,qs),
(571,1134,l),
(318,941,l),
(721,411,l),
(734,393,o),
(731,349,o),
(698,319,o),
(674,319,qs),
(66,319,l),
(66,0,l),
(674,0,l)
);
}
);
width = 1155;
}
);
unicode = (1583,65193);
},
{
glyphname = "dal-arab.fina";
layers = (
{
anchors = (
{
name = "top-arab";
pos = (512,891);
},
{
name = "bottom-arab";
pos = (481,0);
}
);
layerId = m000;
shapes = (
{
closed = 1;
nodes = (
(548,0,l),
(618,0,o),
(734,64,o),
(806,172,o),
(812,236,q),
(859,151,l),
(898,81,o),
(1036,0,o),
(1117,0,qs),
(1145,0,l),
(1145,60,l),
(1117,60,l),
(1050,60,o),
(937,127,o),
(906,185,qs),
(518,897,l),
(466,869,l),
(739,368,l),
(775,301,o),
(746,156,o),
(634,59,o),
(555,59,qs),
(93,59,l),
(93,0,l)
);
}
);
width = 1145;
},
{
anchors = (
{
name = "top-arab";
pos = (582,1050);
},
{
name = "bottom-arab";
pos = (500,0);
}
);
layerId = m001;
shapes = (
{
closed = 1;
nodes = (
(553,0,l),
(637,0,o),
(761,38,o),
(845,106,o),
(872,154,q),
(874,152,l),
(928,79,o),
(1078,0,o),
(1169,0,qs),
(1179,0,l),
(1179,340,l),
(1169,340,l),
(1135,340,o),
(1095,359,o),
(1082,386,q),
(678,1129,l),
(399,975,l),
(711,404,l),
(720,384,o),
(712,345,o),
(681,319,o),
(659,319,qs),
(66,319,l),
(66,0,l)
);
}
);
width = 1179;
}
);
unicode = 65194;
},
{
glyphname = "reh-arab";
layers = (
{
anchors = (
{
name = "top-arab";
pos = (521,610);
},
{
name = "bottom-arab";
pos = (247,-477);
}
);
layerId = m000;
shapes = (
{
closed = 1;
nodes = (
(44,-521,l),
(180,-521,o),
(413,-376,o),
(550,-134,o),
(550,4,qs),
(550,610,l),
(491,610,l),
(491,7,l),
(491,-115,o),
(370,-331,o),
(164,-461,o),
(44,-461,qs),
(-1,-461,l),
(-1,-521,l)
);
}
);
width = 721;
},
{
anchors = (
{
name = "top-arab";
pos = (530,753);
},
{
name = "bottom-arab";
pos = (201,-500);
}
);
layerId = m001;
shapes = (
{
closed = 1;
nodes = (
(96,-508,l),
(255,-508,o),
(528,-345,o),
(689,-71,o),
(689,85,qs),
(689,753,l),
(369,753,l),
(369,128,l),
(369,53,o),
(295,-84,o),
(169,-168,o),
(96,-168,qs),
(-11,-168,l),
(-11,-508,l)
);
}
);
width = 808;
}
);
unicode = (1585,65197);
},
{
glyphname = "reh-arab.fina";
layers = (
{
anchors = (
{
name = "top-arab";
pos = (521,610);
},
{
name = "bottom-arab";
pos = (247,-477);
}
);
layerId = m000;
shapes = (
{
closed = 1;
nodes = (
(597,110,o),
(772,0,o),
(878,0,qs),
(897,0,l),
(897,60,l),
(878,60,l),
(789,60,o),
(638,148,o),
(550,299,o),
(550,388,qs),
(550,610,l),
(491,610,l),
(491,7,l),
(491,-115,o),
(370,-331,o),
(164,-461,o),
(44,-461,qs),
(-1,-461,l),
(-1,-521,l),
(44,-521,l),
(180,-521,o),
(413,-376,o),
(550,-134,o),
(550,3,qs),
(550,201,l)
);
}
);
width = 897;
},
{
anchors = (
{
name = "top-arab";
pos = (530,753);
},
{
name = "bottom-arab";
pos = (201,-500);
}
);
layerId = m001;
shapes = (
{
closed = 1;
nodes = (
(728,40,o),
(804,0,o),
(844,0,qs),
(855,0,l),
(855,340,l),
(844,340,l),
(804,340,o),
(732,384,o),
(689,461,o),
(689,505,qs),
(689,753,l),
(369,753,l),
(369,128,l),
(369,53,o),
(295,-84,o),
(169,-168,o),
(96,-168,qs),
(-11,-168,l),
(-11,-508,l),
(96,-508,l),
(254,-508,o),
(525,-348,o),
(686,-80,o),
(689,73,qs),
(689,78,l)
);
}
);
width = 855;
}
);
unicode = 65198;
},
{
glyphname = "seen-arab";
layers = (
{
anchors = (
{
name = "top-arab";
pos = (1825,610);
},
{
name = "bottom-arab";
pos = (719,-549);
}
);
layerId = m000;
shapes = (
{
closed = 1;
nodes = (
(1546,0,l),
(1644,0,o),
(1791,107,o),
(1825,197,q),
(1859,106,o),
(2007,0,o),
(2103,0,qs),
(2133,0,l),
(2222,0,o),
(2362,87,o),
(2441,237,o),
(2441,327,qs),
(2441,632,l),
(2383,632,l),
(2383,329,l),
(2383,257,o),
(2321,133,o),
(2207,60,o),
(2133,60,qs),
(2103,60,l),
(2029,60,o),
(1916,133,o),
(1854,256,o),
(1854,329,qs),
(1854,610,l),
(1795,610,l),
(1795,329,l),
(1795,257,o),
(1734,133,o),
(1620,60,o),
(1546,60,qs),
(1516,60,l),
(1447,60,o),
(1333,134,o),
(1267,258,o),
(1267,329,qs),
(1267,610,l),
(1208,610,l),
(1208,-21,l),
(1208,-154,o),
(1091,-368,o),
(882,-489,o),
(750,-489,qs),
(688,-489,l),
(549,-489,o),
(341,-361,o),
(230,-147,o),
(230,-21,qs),
(230,381,l),
(171,381,l),
(171,-24,l),
(171,-166,o),
(299,-406,o),
(534,-549,o),
(688,-549,qs),
(750,-549,l),
(897,-549,o),
(1132,-414,o),
(1265,-176,o),
(1267,-29,qs),
(1267,155,l),
(1305,86,o),
(1440,0,o),
(1516,0,qs)
);
}
);
width = 2612;
},
{
anchors = (
{
name = "top-arab";
pos = (1820,753);
},
{
name = "bottom-arab";
pos = (777,-509);
}
);
layerId = m001;
shapes = (
{
closed = 1;
nodes = (
(1562,0,l),
(1643,0,o),
(1768,69,o),
(1821,138,q),
(1873,71,o),
(1999,0,o),
(2080,0,qs),
(2107,0,l),
(2224,0,o),
(2416,114,o),
(2527,312,o),
(2527,429,qs),
(2527,797,l),
(2209,797,l),
(2209,452,l),
(2209,421,o),
(2184,369,o),
(2138,340,o),
(2107,340,qs),
(2080,340,l),
(2050,340,o),
(2005,369,o),
(1980,420,o),
(1980,452,qs),
(1980,753,l),
(1661,753,l),
(1661,452,l),
(1661,421,o),
(1637,369,o),
(1591,340,o),
(1562,340,qs),
(1534,340,l),
(1505,340,o),
(1459,370,o),
(1434,421,o),
(1434,452,qs),
(1434,753,l),
(1115,753,l),
(1115,127,l),
(1115,48,o),
(1050,-87,o),
(917,-169,o),
(820,-169,qs),
(734,-169,l),
(636,-169,o),
(503,-87,o),
(439,48,o),
(439,127,qs),
(439,537,l),
(120,537,l),
(120,84,l),
(120,-89,o),
(282,-358,o),
(563,-509,o),
(734,-509,qs),
(820,-509,l),
(980,-509,o),
(1245,-379,o),
(1412,-139,o),
(1431,19,q),
(1431,24,l),
(1451,12,o),
(1502,0,o),
(1534,0,qs)
);
}
);
width = 2647;
}
);
unicode = (1587,65201);
},
{
glyphname = "seen-arab.fina";
layers = (
{
anchors = (
{
name = "top-arab";
pos = (1825,610);
},
{
name = "bottom-arab";
pos = (719,-549);
}
);
layerId = m000;
shapes = (
{
closed = 1;
nodes = (
(2745,60,l),
(2710,60,l),
(2637,60,o),
(2513,132,o),
(2441,256,o),
(2441,329,qs),
(2441,610,l),
(2383,610,l),
(2383,329,l),
(2383,255,o),
(2320,132,o),
(2206,60,o),
(2133,60,qs),
(2103,60,l),
(2031,60,o),
(1917,132,o),
(1854,255,o),
(1854,329,qs),
(1854,610,l),
(1795,610,l),
(1795,329,l),
(1795,255,o),
(1732,132,o),
(1618,60,o),
(1546,60,qs),
(1516,60,l),
(1452,60,o),
(1337,133,o),
(1267,256,o),
(1267,329,qs),
(1267,610,l),
(1208,610,l),
(1208,-21,l),
(1208,-147,o),
(1097,-361,o),
(889,-489,o),
(750,-489,qs),
(688,-489,l),
(549,-489,o),
(341,-361,o),
(230,-147,o),
(230,-21,qs),
(230,381,l),
(171,381,l),
(171,-24,l),
(171,-165,o),
(298,-405,o),
(533,-549,o),
(688,-549,qs),
(750,-549,l),
(904,-549,o),
(1138,-407,o),
(1266,-168,o),
(1267,-29,qs),
(1267,155,l),
(1306,85,o),
(1440,0,o),
(1516,0,qs),
(1546,0,l),
(1644,0,o),
(1791,108,o),
(1825,197,q),
(1858,108,o),
(2006,0,o),
(2103,0,qs),
(2133,0,l),
(2232,0,o),
(2380,110,o),
(2413,200,q),
(2449,111,o),
(2610,0,o),
(2710,0,qs),
(2745,0,l)
);
}
);
width = 2745;
},
{
anchors = (
{
name = "top-arab";
pos = (1821,753);
},
{
name = "bottom-arab";
pos = (777,-509);
}
);
layerId = m001;
shapes = (
{
closed = 1;
nodes = (
(2745,340,l),
(2639,340,l),
(2608,340,o),
(2557,370,o),
(2527,421,o),
(2527,452,qs),
(2527,753,l),
(2209,753,l),
(2209,452,l),
(2209,421,o),
(2184,370,o),
(2138,340,o),
(2107,340,qs),
(2080,340,l),
(2051,340,o),
(2005,370,o),
(1980,421,o),
(1980,452,qs),
(1980,753,l),
(1661,753,l),
(1661,452,l),
(1661,421,o),
(1637,370,o),
(1591,340,o),
(1562,340,qs),
(1534,340,l),
(1504,340,o),
(1458,370,o),
(1434,420,o),
(1434,452,qs),
(1434,753,l),
(1115,753,l),
(1115,127,l),
(1115,48,o),
(1050,-87,o),
(917,-169,o),
(820,-169,qs),
(734,-169,l),
(636,-169,o),
(503,-87,o),
(439,48,o),
(439,127,qs),
(439,537,l),
(120,537,l),
(120,84,l),
(120,-75,o),
(270,-346,o),
(549,-509,o),
(734,-509,qs),
(820,-509,l),
(991,-509,o),
(1258,-368,o),
(1416,-126,o),
(1431,19,q),
(1431,24,l),
(1451,13,o),
(1501,0,o),
(1534,0,qs),
(1562,0,l),
(1643,0,o),
(1769,71,o),
(1821,138,q),
(1873,71,o),
(1999,0,o),
(2080,0,qs),
(2107,0,l),
(2195,0,o),
(2322,69,o),
(2372,133,q),
(2423,69,o),
(2551,0,o),
(2639,0,qs),
(2745,0,l)
);
}
);
width = 2745;
}
);
unicode = 65202;
},
{
glyphname = "seen-arab.init";
layers = (
{
anchors = (
{
name = "top-arab";
pos = (920,610);
},
{
name = "bottom-arab";
pos = (920,0);
}
);
layerId = m000;
shapes = (
{
closed = 1;
nodes = (
(-38,57,o),
(-68,30,o),
(-38,3,o),
(0,0,q),
(35,0,l),
(136,0,o),
(298,112,o),
(333,203,q),
(368,113,o),
(521,0,o),
(612,0,qs),
(642,0,l),
(739,0,o),
(887,108,o),
(920,197,q),
(954,108,o),
(1101,0,o),
(1199,0,qs),
(1229,0,l),
(1317,0,o),
(1458,87,o),
(1537,237,o),
(1537,327,qs),
(1537,632,l),
(1478,632,l),
(1478,329,l),
(1478,255,o),
(1415,132,o),
(1301,60,o),
(1229,60,qs),
(1199,60,l),
(1126,60,o),
(1013,132,o),
(950,255,o),
(950,329,qs),
(950,610,l),
(891,610,l),
(891,329,l),
(891,255,o),
(828,132,o),
(714,60,o),
(642,60,qs),
(612,60,l),
(547,60,o),
(432,133,o),
(362,256,o),
(362,329,qs),
(362,610,l),
(304,610,l),
(304,329,l),
(304,256,o),
(232,132,o),
(108,60,o),
(35,60,qs),
(0,60,l)
);
}
);
width = 1708;
},
{
anchors = (
{
name = "top-arab";
pos = (923,753);
},
{
name = "bottom-arab";
pos = (924,0);
}
);
layerId = m001;
shapes = (
{
closed = 1;
nodes = (
(-42,298,o),
(-72,170,o),
(-42,42,o),
(0,0,q),
(106,0,l),
(193,0,o),
(324,67,o),
(375,132,q),
(425,68,o),
(551,0,o),
(638,0,qs),
(665,0,l),
(746,0,o),
(872,71,o),
(924,138,q),
(976,71,o),
(1102,0,o),
(1183,0,qs),
(1211,0,l),
(1327,0,o),
(1519,115,o),
(1630,312,o),
(1630,429,qs),
(1630,797,l),
(1311,797,l),
(1311,452,l),
(1311,421,o),
(1286,370,o),
(1240,340,o),
(1211,340,qs),
(1183,340,l),
(1153,340,o),
(1108,370,o),
(1084,421,o),
(1084,452,qs),
(1084,753,l),
(765,753,l),
(765,452,l),
(765,421,o),
(740,370,o),
(694,340,o),
(665,340,qs),
(638,340,l),
(607,340,o),
(561,370,o),
(536,420,o),
(536,452,qs),
(536,753,l),
(218,753,l),
(218,452,l),
(218,421,o),
(188,370,o),
(137,340,o),
(106,340,qs),
(0,340,l)
);
}
);
width = 1750;
}
);
unicode = 65203;
},
{
glyphname = "seen-arab.medi";
layers = (
{
anchors = (
{
name = "top-arab";
pos = (920,610);
},
{
name = "bottom-arab";
pos = (920,0);
}
);
layerId = m000;
shapes = (
{
closed = 1;
nodes = (
(-38,57,o),
(-68,30,o),
(-38,3,o),
(0,0,q),
(35,0,l),
(136,0,o),
(298,112,o),
(333,203,q),
(368,113,o),
(521,0,o),
(612,0,qs),
(642,0,l),
(739,0,o),
(887,108,o),
(920,197,q),
(954,108,o),
(1101,0,o),
(1199,0,qs),
(1229,0,l),
(1328,0,o),
(1476,110,o),
(1508,200,q),
(1544,111,o),
(1706,0,o),
(1805,0,qs),
(1841,0,l),
(1841,60,l),
(1805,60,l),
(1732,60,o),
(1609,132,o),
(1537,256,o),
(1537,329,qs),
(1537,610,l),
(1478,610,l),
(1478,329,l),
(1478,255,o),
(1415,132,o),
(1301,60,o),
(1229,60,qs),
(1199,60,l),
(1126,60,o),
(1013,132,o),
(950,255,o),
(950,329,qs),
(950,610,l),
(891,610,l),
(891,329,l),
(891,255,o),
(828,132,o),
(714,60,o),
(642,60,qs),
(612,60,l),
(547,60,o),
(432,133,o),
(362,256,o),
(362,329,qs),
(362,610,l),
(304,610,l),
(304,329,l),
(304,256,o),
(232,132,o),
(108,60,o),
(35,60,qs),
(0,60,l)
);
}
);
width = 1841;
},
{
anchors = (
{
name = "top-arab";
pos = (924,753);
},
{
name = "bottom-arab";
pos = (924,0);
}
);
layerId = m001;
shapes = (
{
closed = 1;
nodes = (
(-42,298,o),
(-72,170,o),
(-42,42,o),
(0,0,q),
(106,0,l),
(193,0,o),
(324,67,o),
(375,132,q),
(425,68,o),
(551,0,o),
(638,0,qs),
(665,0,l),
(746,0,o),
(872,71,o),
(924,138,q),
(976,71,o),
(1102,0,o),
(1183,0,qs),
(1211,0,l),
(1298,0,o),
(1423,67,o),
(1472,131,q),
(1523,68,o),
(1655,0,o),
(1741,0,qs),
(1848,0,l),
(1848,340,l),
(1741,340,l),
(1711,340,o),
(1660,370,o),
(1630,421,o),
(1630,452,qs),
(1630,753,l),
(1311,753,l),
(1311,452,l),
(1311,421,o),
(1286,370,o),
(1240,340,o),
(1211,340,qs),
(1183,340,l),
(1153,340,o),
(1108,370,o),
(1084,421,o),
(1084,452,qs),
(1084,753,l),
(765,753,l),
(765,452,l),
(765,421,o),
(740,370,o),
(694,340,o),
(665,340,qs),
(638,340,l),
(607,340,o),
(561,370,o),
(536,420,o),
(536,452,qs),
(536,753,l),
(218,753,l),
(218,452,l),
(218,421,o),
(188,370,o),
(137,340,o),
(106,340,qs),
(0,340,l)
);
}
);
width = 1848;
}
);
unicode = 65204;
},
{
glyphname = "sad-arab";
layers = (
{
anchors = (
{
name = "top-arab";
pos = (2101,762);
},
{
name = "bottom-arab";
pos = (719,-549);
}
);
layerId = m000;
shapes = (
{
closed = 1;
nodes = (
(2213,0,o),
(2401,98,o),
(2507,272,o),
(2507,381,qs),
(2507,489,o),
(2415,665,o),
(2232,766,o),
(2101,762,qs),
(1934,756,o),
(1681,467,o),
(1549,169,o),
(1517,65,q),
(1516,63,o),
(1516,62,q),
(1447,66,o),
(1333,140,o),
(1267,258,o),
(1267,327,qs),
(1267,574,l),
(1208,574,l),
(1208,-21,l),
(1208,-147,o),
(1097,-361,o),
(889,-489,o),
(750,-489,qs),
(688,-489,l),
(549,-489,o),
(341,-361,o),
(230,-147,o),
(230,-21,qs),
(230,381,l),
(171,381,l),
(171,-24,l),
(171,-165,o),
(298,-405,o),
(533,-549,o),
(688,-549,qs),
(750,-549,l),
(905,-549,o),
(1139,-406,o),
(1266,-167,o),
(1267,-26,qs),
(1267,158,l),
(1310,86,o),
(1456,0,o),
(1543,0,qs),
(2095,0,l)
);
},
{
closed = 1;
nodes = (
(1609,162,o),
(1735,439,o),
(1961,698,o),
(2103,703,qs),
(2215,708,o),
(2371,625,o),
(2448,476,o),
(2448,381,qs),
(2448,288,o),
(2357,142,o),
(2196,60,o),
(2095,60,qs),
(1576,60,l)
);
}
);
width = 2663;
},
{
anchors = (
{
name = "top-arab";
pos = (2054,958);
},
{
name = "bottom-arab";
pos = (777,-509);
}
);
layerId = m001;
shapes = (
{
closed = 1;
nodes = (
(2196,0,o),
(2428,125,o),
(2560,344,o),
(2560,479,qs),
(2560,591,o),
(2459,816,o),
(2231,964,o),
(2054,958,qs),
(1890,952,o),
(1645,751,o),
(1500,500,o),
(1457,381,q),
(1455,376,o),
(1454,370,q),
(1447,379,o),
(1438,399,o),
(1434,419,o),
(1434,429,qs),
(1434,752,l),
(1115,752,l),
(1115,127,l),
(1115,48,o),
(1050,-87,o),
(917,-169,o),
(820,-169,qs),
(734,-169,l),
(636,-169,o),
(503,-87,o),
(439,48,o),
(439,127,qs),
(439,537,l),
(120,537,l),
(120,84,l),
(120,-75,o),
(270,-346,o),
(549,-509,o),
(734,-509,qs),
(820,-509,l),
(999,-509,o),
(1271,-356,o),
(1425,-99,o),
(1433,55,q),
(1433,58,l),
(1485,30,o),
(1595,0,o),
(1651,0,qs),
(2053,0,l)
);
},
{
closed = 1;
nodes = (
(1808,412,o),
(1890,540,o),
(2002,637,o),
(2065,639,qs),
(2114,641,o),
(2192,615,o),
(2241,544,o),
(2241,479,qs),
(2241,427,o),
(2189,365,o),
(2105,340,o),
(2053,340,qs),
(1774,340,l)
);
}
);
width = 2669;
}
);
unicode = (1589,65209);
},
{
glyphname = "sad-arab.fina";
layers = (
{
anchors = (
{
name = "top-arab";
pos = (2101,762);
},
{
name = "bottom-arab";
pos = (719,-549);
}
);
layerId = m000;
shapes = (
{
closed = 1;
nodes = (
(2200,0,o),
(2373,80,o),
(2428,150,q),
(2483,105,o),
(2573,44,o),
(2699,0,o),
(2775,0,qs),
(2786,0,l),
(2786,60,l),
(2774,60,l),
(2707,60,o),
(2595,99,o),
(2513,154,o),
(2459,197,q),
(2507,280,o),
(2507,381,qs),
(2507,489,o),
(2415,665,o),
(2232,766,o),
(2101,762,qs),
(1934,756,o),
(1681,467,o),
(1549,169,o),
(1517,65,q),
(1516,63,o),
(1516,62,q),
(1447,66,o),
(1333,140,o),
(1267,258,o),
(1267,327,qs),
(1267,574,l),
(1208,574,l),
(1208,-21,l),
(1208,-147,o),
(1097,-361,o),
(889,-489,o),
(750,-489,qs),
(688,-489,l),
(549,-489,o),
(341,-361,o),
(230,-147,o),
(230,-21,qs),
(230,381,l),
(171,381,l),
(171,-24,l),
(171,-165,o),
(298,-405,o),
(533,-549,o),
(688,-549,qs),
(750,-549,l),
(905,-549,o),
(1139,-406,o),
(1266,-167,o),
(1267,-26,qs),
(1267,158,l),
(1310,86,o),
(1456,0,o),
(1543,0,qs),
(2095,0,l)
);
},
{
closed = 1;
nodes = (
(1609,162,o),
(1735,439,o),
(1961,698,o),
(2103,703,qs),
(2215,708,o),
(2371,625,o),
(2448,476,o),
(2448,381,qs),
(2448,288,o),
(2357,142,o),
(2196,60,o),
(2095,60,qs),
(1576,60,l)
);
}
);
width = 2786;
},
{
anchors = (
{
name = "top-arab";
pos = (2054,958);
},
{
name = "bottom-arab";
pos = (777,-509);
}
);
layerId = m001;
shapes = (
{
closed = 1;
nodes = (
(2148,0,o),
(2316,57,o),
(2383,109,q),
(2428,78,o),
(2523,30,o),
(2642,0,o),
(2710,0,qs),
(2725,0,l),
(2725,340,l),
(2711,340,l),
(2676,340,o),
(2622,343,o),
(2572,349,o),
(2544,354,q),
(2560,414,o),
(2560,479,qs),
(2560,591,o),
(2459,816,o),
(2231,964,o),
(2054,958,qs),
(1890,952,o),
(1645,751,o),
(1500,500,o),
(1457,381,q),
(1455,376,o),
(1454,370,q),
(1447,379,o),
(1438,399,o),
(1434,419,o),
(1434,429,qs),
(1434,752,l),
(1115,752,l),
(1115,127,l),
(1115,48,o),
(1050,-87,o),
(917,-169,o),
(820,-169,qs),
(734,-169,l),
(636,-169,o),
(503,-87,o),
(439,48,o),
(439,127,qs),
(439,537,l),
(120,537,l),
(120,84,l),
(120,-75,o),
(270,-346,o),
(549,-509,o),
(734,-509,qs),
(820,-509,l),
(999,-509,o),
(1271,-356,o),
(1425,-99,o),
(1433,55,q),
(1433,58,l),
(1485,30,o),
(1595,0,o),
(1651,0,qs),
(2053,0,l)
);
},
{
closed = 1;
nodes = (
(1808,412,o),
(1890,540,o),
(2002,637,o),
(2065,639,qs),
(2114,641,o),
(2192,615,o),
(2241,544,o),
(2241,479,qs),
(2241,427,o),
(2189,365,o),
(2105,340,o),
(2053,340,qs),
(1774,340,l)
);
}
);
width = 2724;
}
);
unicode = 65210;
},
{
glyphname = "sad-arab.init";
layers = (
{
anchors = (
{
name = "top-arab";
pos = (1193,762);
},
{
name = "bottom-arab";
pos = (533,0);
}
);
layerId = m000;
shapes = (
{
closed = 1;
nodes = (
(701,162,o),
(827,439,o),
(1053,698,o),
(1195,703,qs),
(1307,708,o),
(1463,625,o),
(1540,476,o),
(1540,381,qs),
(1540,288,o),
(1449,142,o),
(1288,60,o),
(1187,60,qs),
(668,60,l)
);
},
{
closed = 1;
nodes = (
(-38,57,o),
(-68,30,o),
(-38,3,o),
(0,0,q),
(32,0,l),
(133,0,o),
(294,112,o),
(330,203,q),
(365,112,o),
(526,0,o),
(628,0,qs),
(1187,0,l),
(1305,0,o),
(1493,98,o),
(1599,272,o),
(1599,381,qs),
(1599,489,o),
(1507,665,o),
(1324,766,o),
(1193,762,qs),
(1026,756,o),
(773,467,o),
(641,169,o),
(609,65,q),
(608,63,o),
(608,62,q),
(539,66,o),
(425,140,o),
(359,258,o),
(359,327,qs),
(359,610,l),
(300,610,l),
(300,329,l),
(300,256,o),
(228,132,o),
(105,60,o),
(32,60,qs),
(0,60,l)
);
}
);
width = 1755;
},
{
anchors = (
{
name = "top-arab";
pos = (1104,958);
},
{
name = "bottom-arab";
pos = (991,0);
}
);
layerId = m001;
shapes = (
{
closed = 1;
nodes = (
(858,412,o),
(940,540,o),
(1052,637,o),
(1114,639,qs),
(1164,641,o),
(1242,615,o),
(1291,544,o),
(1291,479,qs),
(1291,427,o),
(1239,365,o),
(1155,340,o),
(1103,340,qs),
(824,340,l)
);
},
{
closed = 1;
nodes = (
(-42,298,o),
(-72,170,o),
(-42,42,o),
(0,0,q),
(54,0,l),
(142,0,o),
(272,69,o),
(325,134,q),
(376,69,o),
(506,0,o),
(595,0,qs),
(1103,0,l),
(1246,0,o),
(1478,125,o),
(1610,344,o),
(1610,479,qs),
(1610,591,o),
(1508,816,o),
(1281,964,o),
(1104,958,qs),
(940,952,o),
(695,751,o),
(550,500,o),
(507,381,q),
(505,376,o),
(504,370,q),
(497,379,o),
(488,399,o),
(483,419,o),
(483,429,qs),
(483,753,l),
(165,753,l),
(165,452,l),
(165,421,o),
(135,370,o),
(84,340,o),
(54,340,qs),
(0,340,l)
);
}
);
width = 1719;
}
);
unicode = 65211;
},
{
glyphname = "sad-arab.medi";
layers = (
{
anchors = (
{
name = "top-arab";
pos = (1193,762);
},
{
name = "bottom-arab";
pos = (533,0);
}
);
layerId = m000;
shapes = (
{
closed = 1;
nodes = (
(701,162,o),
(827,439,o),
(1053,698,o),
(1195,703,qs),
(1307,708,o),
(1463,625,o),
(1540,476,o),
(1540,381,qs),
(1540,288,o),
(1449,142,o),
(1288,60,o),
(1187,60,qs),
(668,60,l)
);
},
{
closed = 1;
nodes = (
(-38,57,o),
(-68,30,o),
(-38,3,o),
(0,0,q),
(32,0,l),
(133,0,o),
(294,112,o),
(330,203,q),
(365,112,o),
(526,0,o),
(628,0,qs),
(1187,0,l),
(1292,0,o),
(1465,80,o),
(1520,150,q),
(1576,104,o),
(1666,44,o),
(1791,0,o),
(1867,0,qs),
(1878,0,l),
(1878,60,l),
(1867,60,l),
(1800,60,o),
(1687,99,o),
(1604,154,o),
(1551,197,q),
(1599,280,o),
(1599,381,qs),
(1599,489,o),
(1507,665,o),
(1324,766,o),
(1193,762,qs),
(1026,756,o),
(773,467,o),
(641,169,o),
(609,65,q),
(608,63,o),
(608,62,q),
(539,66,o),
(425,140,o),
(359,258,o),
(359,327,qs),
(359,610,l),
(300,610,l),
(300,329,l),
(300,256,o),
(228,132,o),
(105,60,o),
(32,60,qs),
(0,60,l)
);
}
);
width = 1878;
},
{
anchors = (
{
name = "top-arab";
pos = (1104,958);
},
{
name = "bottom-arab";
pos = (991,0);
}
);
layerId = m001;
shapes = (
{
closed = 1;
nodes = (
(858,412,o),
(940,540,o),
(1052,637,o),
(1114,639,qs),
(1164,641,o),
(1242,615,o),
(1291,544,o),
(1291,479,qs),
(1291,427,o),
(1239,365,o),
(1155,340,o),
(1103,340,qs),
(824,340,l)
);
},
{
closed = 1;
nodes = (
(-42,298,o),
(-72,170,o),
(-42,42,o),
(0,0,q),
(54,0,l),
(142,0,o),
(272,69,o),
(325,134,q),
(376,69,o),
(506,0,o),
(595,0,qs),
(1103,0,l),
(1198,0,o),
(1366,57,o),
(1433,109,q),
(1477,78,o),
(1573,30,o),
(1692,0,o),
(1760,0,qs),
(1775,0,l),
(1775,340,l),
(1761,340,l),
(1726,340,o),
(1671,343,o),
(1621,349,o),
(1594,354,q),
(1610,414,o),
(1610,479,qs),
(1610,591,o),
(1508,816,o),
(1281,964,o),
(1104,958,qs),
(940,952,o),
(695,751,o),
(550,500,o),
(507,381,q),
(505,376,o),
(504,370,q),
(497,379,o),
(488,399,o),
(483,419,o),
(483,429,qs),
(483,753,l),
(165,753,l),
(165,452,l),
(165,421,o),
(135,370,o),
(84,340,o),
(54,340,qs),
(0,340,l)
);
}
);
width = 1774;
}
);
unicode = 65212;
},
{
glyphname = "tah-arab";
layers = (
{
anchors = (
{
name = "top-arab";
pos = (451,1413);
},
{
name = "bottom-arab";
pos = (753,0);
}
);
layerId = m000;
shapes = (
{
closed = 1;
nodes = (
(422,209,l),
(403,161,o),
(387,115,qs),
(373,74,o),
(369,60,q),
(171,60,l),
(171,0,l),
(950,0,l),
(1068,0,o),
(1256,98,o),
(1362,272,o),
(1362,381,qs),
(1362,489,o),
(1270,666,o),
(1087,767,o),
(956,762,qs),
(804,756,o),
(566,504,o),
(479,326,q),
(480,905,l),
(480,1413,l),
(422,1413,l)
);
},
{
closed = 1;
nodes = (
(431,60,l),
(464,162,o),
(590,439,o),
(816,698,o),
(958,703,qs),
(1070,708,o),
(1225,625,o),
(1303,476,o),
(1303,381,qs),
(1303,288,o),
(1212,142,o),
(1051,60,o),
(950,60,qs)
);
}
);
width = 1518;
},
{
anchors = (
{
name = "top-arab";
pos = (507,1454);
},
{
name = "bottom-arab";
pos = (799,0);
}
);
layerId = m001;
shapes = (
{
closed = 1;
nodes = (
(348,377,l),
(345,370,o),
(340,357,q),
(336,344,o),
(333,340,q),
(120,340,l),
(120,0,l),
(950,0,l),
(1093,0,o),
(1325,125,o),
(1457,344,o),
(1457,479,qs),
(1457,591,o),
(1353,819,o),
(1126,967,o),
(951,958,qs),
(866,954,o),
(716,891,o),
(651,838,q),
(666,972,l),
(666,1454,l),
(348,1454,l)
);
},
{
closed = 1;
nodes = (
(670,340,l),
(704,411,o),
(787,540,o),
(899,637,o),
(962,639,q),
(1010,642,o),
(1088,616,o),
(1138,543,o),
(1138,479,qs),
(1138,427,o),
(1086,365,o),
(1002,340,o),
(950,340,qs)
);
}
);
width = 1566;
}
);
unicode = (1591,65217);
},
{
glyphname = "tah-arab.fina";
layers = (
{
anchors = (
{
name = "top-arab";
pos = (451,1413);
},
{
name = "bottom-arab";
pos = (753,0);
}
);
layerId = m000;
shapes = (
{
closed = 1;
nodes = (
(1638,60,l),
(1628,60,l),
(1532,60,o),
(1394,132,o),
(1314,197,q),
(1362,280,o),
(1362,381,qs),
(1362,489,o),
(1270,666,o),
(1087,767,o),
(956,762,qs),
(804,756,o),
(566,504,o),
(479,326,q),
(480,905,l),
(480,1413,l),
(422,1413,l),
(422,209,l),
(403,161,o),
(387,115,qs),
(373,74,o),
(369,60,q),
(171,60,l),
(171,0,l),
(950,0,l),
(1054,0,o),
(1227,79,o),
(1281,149,q),
(1338,103,o),
(1427,44,o),
(1552,0,o),
(1628,0,qs),
(1638,0,l)
);
},
{
closed = 1;
nodes = (
(431,60,l),
(464,162,o),
(590,439,o),
(816,698,o),
(958,703,qs),
(1070,708,o),
(1225,625,o),
(1303,476,o),
(1303,381,qs),
(1303,288,o),
(1212,142,o),
(1051,60,o),
(950,60,qs)
);
}
);
width = 1638;
},
{
anchors = (
{
name = "top-arab";
pos = (507,1454);
},
{
name = "bottom-arab";
pos = (799,0);
}
);
layerId = m001;
shapes = (
{
closed = 1;
nodes = (
(1579,340,l),
(1567,340,l),
(1529,340,o),
(1468,344,o),
(1439,348,q),
(1457,418,o),
(1457,479,qs),
(1457,591,o),
(1353,819,o),
(1126,967,o),
(951,958,qs),
(866,954,o),
(716,891,o),
(651,838,q),
(666,972,l),
(666,1454,l),
(348,1454,l),
(348,377,l),
(345,370,o),
(340,357,q),
(336,344,o),
(333,340,q),
(120,340,l),
(120,0,l),
(950,0,l),
(1037,0,o),
(1196,49,o),
(1259,94,q),
(1301,66,o),
(1392,25,o),
(1503,0,o),
(1566,0,qs),
(1579,0,l)
);
},
{
closed = 1;
nodes = (
(670,340,l),
(704,411,o),
(787,540,o),
(899,637,o),
(962,639,q),
(1010,642,o),
(1088,616,o),
(1138,543,o),
(1138,479,qs),
(1138,427,o),
(1086,365,o),
(1002,340,o),
(950,340,qs)
);
}
);
width = 1579;
}
);
unicode = 65218;
},
{
glyphname = "tah-arab.init";
layers = (
{
anchors = (
{
name = "top-arab";
pos = (380,1413);
},
{
name = "bottom-arab";
pos = (683,0);
}
);
layerId = m000;
shapes = (
{
closed = 1;
nodes = (
(734,756,o),
(496,504,o),
(409,325,q),
(410,905,l),
(410,1413,l),
(351,1413,l),
(351,207,l),
(303,80,o),
(300,60,q),
(0,60,l),
(-38,57,o),
(-68,30,o),
(-38,3,o),
(0,0,q),
(880,0,l),
(998,0,o),
(1186,98,o),
(1292,272,o),
(1292,381,qs),
(1292,489,o),
(1200,666,o),
(1017,767,o),
(886,762,qs),
(886,762,l)
);
},
{
closed = 1;
nodes = (
(1234,288,o),
(1142,142,o),
(981,60,o),
(880,60,qs),
(361,60,l),
(394,161,o),
(520,439,o),
(746,698,o),
(889,703,qs),
(1000,708,o),
(1156,625,o),
(1234,476,o),
(1234,381,qs),
(1234,381,l)
);
}
);
width = 1448;
},
{
anchors = (
{
name = "top-arab";
pos = (357,1454);
},
{
name = "bottom-arab";
pos = (660,0);
}
);
layerId = m001;
shapes = (
{
closed = 1;
nodes = (
(723,954,o),
(569,886,o),
(501,829,q),
(517,972,l),
(517,1454,l),
(198,1454,l),
(198,348,l),
(196,344,o),
(195,340,q),
(0,340,l),
(-42,298,o),
(-72,170,o),
(-42,42,o),
(0,0,q),
(811,0,l),
(953,0,o),
(1185,125,o),
(1318,344,o),
(1318,479,qs),
(1318,591,o),
(1214,819,o),
(987,966,o),
(812,958,qs),
(812,958,l)
);
},
{
closed = 1;
nodes = (
(1000,427,o),
(947,365,o),
(863,340,o),
(810,340,qs),
(531,340,l),
(566,411,o),
(648,540,o),
(760,637,o),
(823,639,q),
(871,642,o),
(950,616,o),
(1000,543,o),
(1000,479,qs),
(1000,479,l)
);
}
);
width = 1426;
}
);
unicode = 65219;
},
{
glyphname = "tah-arab.medi";
layers = (
{
anchors = (
{
name = "top-arab";
pos = (380,1413);
},
{
name = "bottom-arab";
pos = (683,0);
}
);
layerId = m000;
shapes = (
{
closed = 1;
nodes = (
(1462,60,o),
(1324,132,o),
(1245,197,q),
(1293,283,o),
(1292,381,qs),
(1292,489,o),
(1201,666,o),
(1017,767,o),
(886,762,qs),
(734,756,o),
(496,504,o),
(409,325,q),
(410,905,l),
(410,1413,l),
(352,1413,l),
(352,207,l),
(303,80,o),
(300,60,q),
(0,60,l),
(-38,57,o),
(-68,30,o),
(-38,3,o),
(0,0,q),
(880,0,l),
(985,0,o),
(1157,79,o),
(1211,149,q),
(1268,103,o),
(1357,44,o),
(1482,0,o),
(1557,0,qs),
(1567,0,l),
(1567,60,l),
(1557,60,l)
);
},
{
closed = 1;
nodes = (
(1234,288,o),
(1142,142,o),
(981,60,o),
(880,60,qs),
(361,60,l),
(394,161,o),
(520,439,o),
(746,698,o),
(889,703,qs),
(1000,708,o),
(1156,625,o),
(1234,476,o),
(1234,381,qs)
);
}
);
width = 1567;
},
{
anchors = (
{
name = "top-arab";
pos = (357,1454);
},
{
name = "bottom-arab";
pos = (660,0);
}
);
layerId = m001;
shapes = (
{
closed = 1;
nodes = (
(1388,340,o),
(1329,343,o),
(1301,347,q),
(1318,412,o),
(1318,479,qs),
(1318,591,o),
(1215,819,o),
(986,966,o),
(812,958,qs),
(723,954,o),
(569,886,o),
(500,829,q),
(517,972,l),
(517,1454,l),
(199,1454,l),
(199,348,l),
(196,344,o),
(195,340,q),
(0,340,l),
(-42,298,o),
(-72,170,o),
(-42,41,o),
(0,0,q),
(811,0,l),
(898,0,o),
(1053,47,o),
(1115,91,q),
(1157,65,o),
(1247,25,o),
(1355,0,o),
(1415,0,qs),
(1429,0,l),
(1429,340,l),
(1416,340,l)
);
},
{
closed = 1;
nodes = (
(1000,427,o),
(947,365,o),
(863,340,o),
(810,340,qs),
(531,340,l),
(566,411,o),
(648,540,o),
(760,637,o),
(823,639,q),
(871,642,o),
(950,616,o),
(1000,543,o),
(1000,479,qs)
);
}
);
width = 1429;
}
);
unicode = 65220;
},
{
glyphname = "ain-arab";
layers = (
{
anchors = (
{
name = "top-arab";
pos = (679,1055);
},
{
name = "bottom-arab";
pos = (700,-521);
}
);
layerId = m000;
shapes = (
{
closed = 1;
nodes = (
(1049,-461,l),
(584,-461,l),
(485,-461,o),
(318,-364,o),
(220,-197,o),
(220,-98,qs),
(220,1,o),
(318,168,o),
(485,266,o),
(584,266,qs),
(1047,266,l),
(1047,326,l),
(682,326,l),
(588,325,o),
(446,417,o),
(370,568,o),
(370,654,qs),
(370,754,o),
(448,912,o),
(590,1000,o),
(682,1001,qs),
(769,1001,o),
(897,951,o),
(949,913,q),
(962,976,l),
(917,1008,o),
(776,1061,o),
(679,1060,qs),
(572,1059,o),
(405,955,o),
(311,771,o),
(311,655,qs),
(311,546,o),
(417,360,o),
(509,313,q),
(411,296,o),
(252,179,o),
(161,4,o),
(161,-98,qs),
(161,-213,o),
(275,-407,o),
(469,-521,o),
(584,-521,qs),
(1049,-521,l)
);
}
);
width = 1215;
},
{
anchors = (
{
name = "top-arab";
pos = (672,1157);
},
{
name = "bottom-arab";
pos = (700,-508);
}
);
layerId = m001;
shapes = (
{
closed = 1;
nodes = (
(1101,-169,l),
(626,-169,l),
(571,-169,o),
(481,-126,o),
(428,-45,o),
(428,8,qs),
(428,62,o),
(482,153,o),
(573,207,o),
(626,207,qs),
(1070,207,l),
(1070,547,l),
(713,547,l),
(667,553,o),
(605,585,o),
(574,638,o),
(574,675,qs),
(574,714,o),
(603,787,o),
(663,836,o),
(708,841,qs),
(763,847,o),
(848,820,o),
(927,773,q),
(1032,1079,l),
(960,1125,o),
(787,1170,o),
(672,1157,qs),
(553,1144,o),
(363,1011,o),
(255,800,o),
(255,675,qs),
(255,603,o),
(310,474,o),
(360,419,q),
(281,370,o),
(170,250,o),
(109,100,o),
(109,8,qs),
(109,-132,o),
(248,-369,o),
(485,-508,o),
(626,-508,qs),
(1101,-508,l)
);
}
);
width = 1221;
}
);
unicode = (1593,65225);
},
{
glyphname = "ain-arab.fina";
layers = (
{
anchors = (
{
name = "top-arab";
pos = (671,1005);
},
{
name = "bottom-arab";
pos = (700,-521);
}
);
layerId = m000;
shapes = (
{
closed = 1;
nodes = (
(999,-461,l),
(611,-461,l),
(507,-461,o),
(327,-370,o),
(220,-216,o),
(220,-127,qs),
(220,-50,o),
(288,69,o),
(424,168,o),
(535,218,q),
(543,222,o),
(552,226,q),
(562,230,o),
(572,235,qs),
(591,244,o),
(626,261,q),
(633,265,o),
(636,267,q),
(639,263,o),
(648,249,qs),
(686,193,o),
(777,89,o),
(930,0,o),
(1025,0,qs),
(1316,0,l),
(1316,60,l),
(1024,60,l),
(899,60,o),
(757,174,o),
(711,246,qs),
(706,254,o),
(703,257,q),
(1069,684,l),
(1103,723,o),
(1114,821,o),
(1074,910,o),
(992,965,o),
(939,965,qs),
(244,965,l),
(219,914,l),
(598,314,l),
(369,231,o),
(161,13,o),
(161,-127,qs),
(161,-232,o),
(284,-413,o),
(491,-521,o),
(611,-521,qs),
(999,-521,l)
);
},
{
closed = 1;
nodes = (
(937,905,l),
(983,905,o),
(1047,842,o),
(1054,753,o),
(1023,717,qs),
(671,304,l),
(291,905,l)
);
}
);
width = 1317;
},
{
anchors = (
{
name = "top-arab";
pos = (720,1167);
},
{
name = "bottom-arab";
pos = (700,-508);
}
);
layerId = m001;
shapes = (
{
closed = 1;
nodes = (
(1115,-169,l),
(651,-169,l),
(589,-169,o),
(487,-119,o),
(427,-28,o),
(427,31,qs),
(427,78,o),
(477,146,o),
(545,190,o),
(598,216,qs),
(602,218,o),
(604,219,qs),
(610,222,o),
(622,228,qs),
(657,245,o),
(667,250,q),
(670,253,o),
(672,254,q),
(687,233,o),
(706,213,qs),
(756,159,o),
(890,61,o),
(1027,0,o),
(1078,0,qs),
(1339,0,l),
(1339,340,l),
(1144,340,l),
(1085,340,o),
(978,378,o),
(951,403,q),
(947,407,o),
(943,411,q),
(1143,639,l),
(1207,715,o),
(1227,900,o),
(1150,1065,o),
(996,1167,o),
(898,1167,qs),
(322,1167,l),
(192,835,l),
(442,466,l),
(271,380,o),
(108,175,o),
(108,31,qs),
(108,-115,o),
(255,-362,o),
(504,-508,o),
(651,-508,qs),
(1115,-508,l)
);
},
{
closed = 1;
nodes = (
(860,829,l),
(879,829,o),
(898,813,o),
(895,785,o),
(883,769,q),
(720,574,l),
(533,829,l)
);
}
);
width = 1340;
}
);
unicode = 65226;
},
{
glyphname = "ain-arab.init";
layers = (
{
anchors = (
{
name = "top-arab";
pos = (629,790);
},
{
name = "bottom-arab";
pos = (629,0);
}
);
layerId = m000;
shapes = (
{
closed = 1;
nodes = (
(-38,57,o),
(-68,30,o),
(-38,3,o),
(0,0,q),
(974,0,l),
(974,60,l),
(631,60,l),
(538,60,o),
(395,151,o),
(319,303,o),
(319,390,qs),
(319,490,o),
(398,648,o),
(540,736,o),
(631,737,qs),
(718,737,o),
(849,686,o),
(901,648,q),
(911,712,l),
(866,743,o),
(725,796,o),
(629,795,qs),
(522,794,o),
(354,691,o),
(260,507,o),
(260,390,qs),
(260,286,o),
(360,106,o),
(447,60,q),
(0,60,l)
);
}
);
width = 1145;
},
{
anchors = (
{
name = "top-arab";
pos = (555,951);
},
{
name = "bottom-arab";
pos = (555,0);
}
);
layerId = m001;
shapes = (
{
closed = 1;
nodes = (
(-42,298,o),
(-72,170,o),
(-42,42,o),
(0,0,q),
(940,0,l),
(940,340,l),
(595,340,l),
(550,347,o),
(488,378,o),
(456,431,o),
(456,469,qs),
(456,508,o),
(486,581,o),
(546,629,o),
(590,635,q),
(651,641,o),
(770,607,o),
(850,555,q),
(914,873,l),
(841,918,o),
(669,964,o),
(555,951,qs),
(436,937,o),
(245,805,o),
(137,594,o),
(137,469,qs),
(137,435,o),
(151,370,o),
(164,340,q),
(0,340,l)
);
}
);
width = 1054;
}
);
unicode = 65227;
},
{
glyphname = "ain-arab.medi";
layers = (
{
anchors = (
{
name = "top-arab";
pos = (649,737);
},
{
name = "bottom-arab";
pos = (648,0);
}
);
layerId = m000;
shapes = (
{
closed = 1;
nodes = (
(915,677,l),
(961,677,o),
(1025,614,o),
(1032,524,o),
(1001,488,qs),
(649,75,l),
(270,677,l)
);
},
{
closed = 1;
nodes = (
(-38,57,o),
(-68,30,o),
(-38,3,o),
(0,0,q),
(580,0,l),
(604,0,o),
(647,15,o),
(648,23,q),
(649,15,o),
(691,0,o),
(716,0,qs),
(1295,0,l),
(1295,60,l),
(722,60,l),
(720,60,o),
(712,60,o),
(710,59,q),
(1048,455,l),
(1081,495,o),
(1093,592,o),
(1052,681,o),
(970,737,o),
(917,737,qs),
(222,737,l),
(197,685,l),
(592,59,l),
(589,60,o),
(580,60,qs),
(0,60,l)
);
}
);
width = 1295;
},
{
anchors = (
{
name = "top-arab";
pos = (604,968);
},
{
name = "bottom-arab";
pos = (588,0);
}
);
layerId = m001;
shapes = (
{
closed = 1;
nodes = (
(743,631,l),
(762,631,o),
(782,614,o),
(779,586,o),
(767,570,q),
(604,374,l),
(417,631,l)
);
},
{
closed = 1;
nodes = (
(-42,298,o),
(-72,170,o),
(-42,42,o),
(0,0,q),
(270,0,l),
(410,0,o),
(566,41,o),
(589,64,q),
(610,42,o),
(766,0,o),
(907,0,qs),
(1223,0,l),
(1223,340,l),
(977,340,l),
(968,340,o),
(940,335,o),
(935,329,q),
(1028,440,l),
(1091,517,o),
(1112,701,o),
(1034,866,o),
(880,969,o),
(782,969,qs),
(206,969,l),
(75,636,l),
(282,330,l),
(275,340,o),
(250,340,qs),
(0,340,l)
);
}
);
width = 1223;
}
);
unicode = 65228;
},
{
glyphname = "dotlessfeh-arab";
layers = (
{
anchors = (
{
name = "top-arab";
pos = (1244,1001);
},
{
name = "bottom-arab";
pos = (870,0);
}
);
layerId = m000;
shapes = (
{
closed = 1;
nodes = (
(1570,754,o),
(1485,915,o),
(1336,1005,o),
(1244,1005,qs),
(1155,1005,o),
(1010,920,o),
(921,766,o),
(912,667,qs),
(904,562,o),
(972,410,o),
(1107,331,o),
(1198,331,qs),
(1511,331,l),
(1511,326,l),
(1511,253,o),
(1439,131,o),
(1315,60,o),
(1242,60,qs),
(499,60,l),
(425,60,o),
(302,132,o),
(230,256,o),
(230,329,qs),
(230,632,l),
(171,632,l),
(171,326,l),
(171,237,o),
(259,88,o),
(410,0,o),
(499,0,qs),
(1242,0,l),
(1331,0,o),
(1482,88,o),
(1570,237,o),
(1570,326,qs),
(1570,653,l)
);
},
{
closed = 1;
nodes = (
(1203,389,l),
(1086,389,o),
(960,537,o),
(971,665,qs),
(980,775,o),
(1123,947,o),
(1244,947,qs),
(1322,947,o),
(1444,867,o),
(1511,725,o),
(1511,635,qs),
(1511,389,l)
);
}
);
width = 1741;
},
{
anchors = (
{
name = "top-arab";
pos = (1327,1254);
},
{
name = "bottom-arab";
pos = (941,0);
}
);
layerId = m001;
shapes = (
{
closed = 1;
nodes = (
(1779,921,o),
(1661,1129,o),
(1454,1258,o),
(1327,1258,qs),
(1204,1258,o),
(997,1132,o),
(876,917,o),
(875,791,qs),
(875,666,o),
(937,494,o),
(1092,410,o),
(1231,410,qs),
(1460,410,l),
(1460,404,l),
(1460,381,o),
(1426,353,o),
(1369,340,o),
(1334,340,qs),
(550,340,l),
(519,340,o),
(469,370,o),
(439,421,o),
(439,452,qs),
(439,797,l),
(120,797,l),
(120,409,l),
(120,297,o),
(235,110,o),
(433,0,o),
(550,0,qs),
(1334,0,l),
(1453,0,o),
(1658,109,o),
(1779,294,o),
(1779,404,qs),
(1779,812,l)
);
},
{
closed = 1;
nodes = (
(1305,728,l),
(1234,728,o),
(1193,772,o),
(1195,823,q),
(1195,876,o),
(1261,951,o),
(1327,951,qs),
(1368,951,o),
(1429,905,o),
(1460,844,o),
(1460,823,qs),
(1460,728,l)
);
}
);
width = 1899;
}
);
unicode = (1697,2235);
},
{
glyphname = glyph249;
layers = (
{
anchors = (
{
name = "top-arab";
pos = (1292,801);
},
{
name = "bottom-arab";
pos = (870,0);
}
);
layerId = m000;
shapes = (
{
closed = 1;
nodes = (
(1375,745,o),
(1512,675,o),
(1590,553,o),
(1590,476,qs),
(1590,318,o),
(1387,111,o),
(1292,62,q),
(1197,111,o),
(993,318,o),
(993,476,qs),
(993,553,o),
(1072,675,o),
(1208,745,o),
(1292,745,qs)
);
},
{
closed = 1;
nodes = (
(1224,0,l),
(1240,0,o),
(1271,7,o),
(1291,18,o),
(1292,23,q),
(1293,15,o),
(1335,0,o),
(1360,0,qs),
(1854,0,l),
(1854,60,l),
(1391,60,l),
(1491,125,o),
(1649,333,o),
(1649,476,qs),
(1649,568,o),
(1555,718,o),
(1392,804,o),
(1292,804,qs),
(1192,804,o),
(1028,718,o),
(935,568,o),
(935,476,qs),
(935,333,o),
(1092,125,o),
(1193,60,q),
(499,60,l),
(425,60,o),
(302,132,o),
(230,256,o),
(230,329,qs),
(230,632,l),
(171,632,l),
(171,326,l),
(171,237,o),
(259,88,o),
(410,0,o),
(499,0,qs)
);
}
);
width = 1854;
},
{
anchors = (
{
name = "top-arab";
pos = (1387,991);
},
{
name = "bottom-arab";
pos = (941,0);
}
);
layerId = m001;
shapes = (
{
closed = 1;
nodes = (
(1416,676,o),
(1480,655,o),
(1525,606,o),
(1525,565,qs),
(1525,498,o),
(1446,384,o),
(1387,340,q),
(1328,384,o),
(1248,498,o),
(1248,565,qs),
(1248,606,o),
(1294,655,o),
(1357,676,o),
(1387,676,qs)
);
},
{
closed = 1;
nodes = (
(1068,0,l),
(1174,0,o),
(1301,21,o),
(1373,51,o),
(1387,64,q),
(1409,42,o),
(1565,0,o),
(1706,0,qs),
(1976,0,l),
(1976,340,l),
(1778,340,l),
(1809,379,o),
(1844,499,o),
(1844,565,qs),
(1844,684,o),
(1722,881,o),
(1513,996,o),
(1387,996,qs),
(1261,996,o),
(1050,881,o),
(930,684,o),
(930,565,qs),
(930,499,o),
(964,379,o),
(995,340,q),
(550,340,l),
(519,340,o),
(469,370,o),
(439,421,o),
(439,452,qs),
(439,797,l),
(120,797,l),
(120,409,l),
(120,297,o),
(235,110,o),
(433,0,o),
(550,0,qs)
);
}
);
width = 1975;
}
);
},
{
glyphname = glyph250;
layers = (
{
anchors = (
{
name = "top-arab";
pos = (533,1002);
},
{
name = "bottom-arab";
pos = (531,0);
}
);
layerId = m000;
shapes = (
{
closed = 1;
nodes = (
(493,388,l),
(375,388,o),
(249,537,o),
(261,665,qs),
(269,774,o),
(413,947,o),
(533,947,qs),
(611,947,o),
(733,866,o),
(801,724,o),
(801,635,qs),
(801,388,l)
);
},
{
closed = 1;
nodes = (
(-38,57,o),
(-68,30,o),
(-38,3,o),
(0,0,q),
(531,0,l),
(620,0,o),
(771,88,o),
(859,237,o),
(859,326,qs),
(859,653,l),
(859,754,o),
(775,915,o),
(626,1005,o),
(533,1005,qs),
(444,1005,o),
(299,920,o),
(210,766,o),
(202,667,qs),
(193,563,o),
(261,411,o),
(396,331,o),
(488,331,qs),
(801,331,l),
(801,326,l),
(801,253,o),
(728,131,o),
(605,60,o),
(531,60,qs),
(0,60,l)
);
}
);
width = 1031;
},
{
anchors = (
{
name = "top-arab";
pos = (540,1254);
},
{
name = "bottom-arab";
pos = (546,0);
}
);
layerId = m001;
shapes = (
{
closed = 1;
nodes = (
(519,716,l),
(447,716,o),
(405,762,o),
(408,813,q),
(408,865,o),
(474,941,o),
(539,941,qs),
(580,941,o),
(641,894,o),
(673,833,o),
(673,813,qs),
(673,716,l)
);
},
{
closed = 1;
nodes = (
(-42,298,o),
(-72,170,o),
(-42,42,o),
(0,0,q),
(546,0,l),
(665,0,o),
(870,109,o),
(991,294,o),
(991,404,qs),
(991,812,l),
(991,921,o),
(875,1129,o),
(668,1258,o),
(539,1258,qs),
(416,1258,o),
(209,1132,o),
(88,917,o),
(89,791,qs),
(88,670,o),
(140,507,o),
(295,410,o),
(444,410,qs),
(673,410,l),
(673,404,l),
(673,381,o),
(638,353,o),
(582,340,o),
(546,340,qs),
(0,340,l)
);
}
);
width = 1111;
}
);
},
{
glyphname = glyph251;
layers = (
{
anchors = (
{
name = "top-arab";
pos = (562,801);
},
{
name = "bottom-arab";
pos = (562,0);
}
);
layerId = m000;
shapes = (
{
closed = 1;
nodes = (
(645,745,o),
(782,675,o),
(860,553,o),
(860,476,qs),
(860,318,o),
(657,111,o),
(562,62,q),
(467,111,o),
(263,318,o),
(263,476,qs),
(263,553,o),
(342,675,o),
(479,745,o),
(562,745,qs)
);
},
{
closed = 1;
nodes = (
(-38,57,o),
(-68,30,o),
(-38,3,o),
(0,0,q),
(494,0,l),
(518,0,o),
(561,15,o),
(562,23,q),
(563,15,o),
(606,0,o),
(630,0,qs),
(1124,0,l),
(1124,60,l),
(661,60,l),
(761,125,o),
(919,333,o),
(919,476,qs),
(919,568,o),
(826,718,o),
(662,804,o),
(562,804,qs),
(462,804,o),
(299,718,o),
(205,568,o),
(205,476,qs),
(205,333,o),
(362,125,o),
(463,60,q),
(0,60,l)
);
}
);
width = 1124;
},
{
anchors = (
{
name = "top-arab";
pos = (588,991);
},
{
name = "bottom-arab";
pos = (588,0);
}
);
layerId = m001;
shapes = (
{
closed = 1;
nodes = (
(617,676,o),
(681,655,o),
(726,606,o),
(726,565,qs),
(726,498,o),
(648,385,o),
(589,340,q),
(529,384,o),
(450,498,o),
(450,565,qs),
(450,606,o),
(495,655,o),
(560,676,o),
(589,676,qs)
);
},
{
closed = 1;
nodes = (
(-42,298,o),
(-72,170,o),
(-42,42,o),
(0,0,q),
(270,0,l),
(410,0,o),
(566,41,o),
(589,64,q),
(611,41,o),
(767,0,o),
(907,0,qs),
(1177,0,l),
(1177,340,l),
(980,340,l),
(1011,379,o),
(1045,499,o),
(1045,565,qs),
(1045,684,o),
(924,881,o),
(714,996,o),
(589,996,qs),
(462,996,o),
(253,881,o),
(132,684,o),
(132,565,qs),
(131,499,o),
(165,379,o),
(197,340,q),
(0,340,l)
);
}
);
width = 1177;
}
);
},
{
glyphname = "dotlessqaf-arab";
layers = (
{
anchors = (
{
name = "top-arab";
pos = (1102,721);
},
{
name = "bottom-arab";
pos = (777,-549);
}
);
layerId = m000;
shapes = (
{
closed = 1;
nodes = (
(1206,726,o),
(1365,628,o),
(1453,450,o),
(1453,333,qs),
(1453,10,l),
(1453,-165,o),
(1313,-416,o),
(1049,-549,o),
(867,-549,qs),
(688,-549,l),
(533,-549,o),
(298,-405,o),
(171,-165,o),
(171,-24,qs),
(171,381,l),
(230,381,l),
(230,-21,l),
(230,-147,o),
(341,-361,o),
(549,-489,o),
(688,-489,qs),
(867,-489,l),
(1033,-489,o),
(1270,-374,o),
(1394,-154,o),
(1394,0,q),
(1102,0,l),
(990,0,o),
(833,80,o),
(751,230,o),
(751,333,qs),
(751,447,o),
(840,626,o),
(1000,726,o),
(1102,726,qs)
);
},
{
closed = 1;
nodes = (
(1394,333,l),
(1394,417,o),
(1335,569,o),
(1204,668,o),
(1102,668,qs),
(1014,668,o),
(881,583,o),
(809,431,o),
(809,333,qs),
(809,247,o),
(877,124,o),
(1008,60,o),
(1102,60,qs),
(1394,60,l)
);
}
);
width = 1624;
},
{
anchors = (
{
name = "top-arab";
pos = (1113,920);
},
{
name = "bottom-arab";
pos = (847,-509);
}
);
layerId = m001;
shapes = (
{
closed = 1;
nodes = (
(1244,925,o),
(1450,801,o),
(1565,579,o),
(1565,435,qs),
(1565,48,l),
(1565,-99,o),
(1408,-355,o),
(1131,-509,o),
(960,-509,qs),
(734,-509,l),
(549,-509,o),
(270,-346,o),
(120,-75,o),
(120,84,qs),
(120,537,l),
(439,537,l),
(439,127,l),
(439,48,o),
(503,-87,o),
(636,-169,o),
(734,-169,qs),
(960,-169,l),
(1037,-169,o),
(1167,-120,o),
(1241,-41,o),
(1241,0,q),
(1113,0,l),
(935,0,o),
(738,106,o),
(661,295,o),
(661,435,qs),
(661,575,o),
(778,799,o),
(984,925,o),
(1113,925,qs)
);
},
{
closed = 1;
nodes = (
(1246,435,l),
(1246,475,o),
(1225,552,o),
(1166,607,o),
(1113,607,qs),
(1058,607,o),
(998,545,o),
(979,468,o),
(979,435,qs),
(979,403,o),
(997,363,o),
(1054,340,o),
(1113,340,qs),
(1246,340,l)
);
}
);
width = 1674;
}
);
unicode = (1647,2236);
},
{
glyphname = glyph261;
layers = (
{
anchors = (
{
name = "top-arab";
pos = (1102,721);
},
{
name = "bottom-arab";
pos = (777,-549);
}
);
layerId = m000;
shapes = (
{
closed = 1;
nodes = (
(1394,333,l),
(1394,417,o),
(1335,569,o),
(1204,668,o),
(1102,668,qs),
(1014,668,o),
(881,583,o),
(809,431,o),
(809,333,qs),
(809,247,o),
(877,124,o),
(1008,60,o),
(1102,60,qs),
(1394,60,l)
);
},
{
closed = 1;
nodes = (
(1452,0,l),
(1450,-172,o),
(1310,-419,o),
(1048,-549,o),
(867,-549,qs),
(688,-549,l),
(533,-549,o),
(298,-405,o),
(171,-165,o),
(171,-24,qs),
(171,381,l),
(230,381,l),
(230,-21,l),
(230,-147,o),
(341,-361,o),
(549,-489,o),
(688,-489,qs),
(867,-489,l),
(1033,-489,o),
(1270,-374,o),
(1394,-154,o),
(1394,0,q),
(1102,0,l),
(990,0,o),
(833,80,o),
(751,230,o),
(751,333,qs),
(751,447,o),
(840,626,o),
(1000,726,o),
(1102,726,qs),
(1206,726,o),
(1365,628,o),
(1453,450,o),
(1453,333,qs),
(1453,60,l),
(1706,60,l),
(1706,0,l)
);
}
);
width = 1706;
},
{
anchors = (
{
name = "top-arab";
pos = (1113,920);
},
{
name = "bottom-arab";
pos = (847,-509);
}
);
layerId = m001;
shapes = (
{
closed = 1;
nodes = (
(1246,435,l),
(1246,475,o),
(1225,552,o),
(1166,607,o),
(1113,607,qs),
(1058,607,o),
(998,545,o),
(979,468,o),
(979,435,qs),
(979,403,o),
(997,363,o),
(1054,340,o),
(1113,340,qs),
(1246,340,l)
);
},
{
closed = 1;
nodes = (
(1552,0,l),
(1552,-150,o),
(1387,-382,o),
(1115,-509,o),
(960,-509,qs),
(734,-509,l),
(549,-509,o),
(270,-346,o),
(120,-75,o),
(120,84,qs),
(120,537,l),
(439,537,l),
(439,127,l),
(439,48,o),
(503,-87,o),
(636,-169,o),
(734,-169,qs),
(960,-169,l),
(1037,-169,o),
(1167,-120,o),
(1241,-41,o),
(1241,0,q),
(1113,0,l),
(935,0,o),
(738,106,o),
(661,295,o),
(661,435,qs),
(661,575,o),
(778,799,o),
(984,925,o),
(1113,925,qs),
(1244,925,o),
(1450,801,o),
(1565,579,o),
(1565,435,qs),
(1565,340,l),
(1718,340,l),
(1718,0,l)
);
}
);
width = 1718;
}
);
},
{
glyphname = "keheh-arab";
layers = (
{
anchors = (
{
name = "top-arab";
pos = (417,632);
},
{
name = "bottom-arab";
pos = (904,0);
}
);
layerId = m000;
shapes = (
{
closed = 1;
nodes = (
(1341,0,l),
(1427,0,o),
(1556,91,o),
(1617,235,o),
(1593,391,o),
(1535,452,qs),
(957,1058,l),
(1599,1302,l),
(1578,1358,l),
(895,1097,l),
(895,1038,l),
(1491,414,l),
(1553,349,o),
(1544,181,o),
(1428,60,o),
(1340,60,qs),
(499,60,l),
(425,60,o),
(302,132,o),
(230,256,o),
(230,329,qs),
(230,632,l),
(171,632,l),
(171,327,l),
(171,238,o),
(259,88,o),
(410,0,o),
(499,0,qs)
);
}
);
width = 1790;
},
{
anchors = (
{
name = "top-arab";
pos = (442,796);
},
{
name = "bottom-arab";
pos = (920,0);
}
);
layerId = m001;
shapes = (
{
closed = 1;
nodes = (
(1290,0,l),
(1410,0,o),
(1593,127,o),
(1679,329,o),
(1646,549,o),
(1563,635,qs),
(1190,1026,l),
(1710,1224,l),
(1597,1523,l),
(853,1238,l),
(853,919,l),
(1312,438,l),
(1329,419,o),
(1328,373,o),
(1297,340,o),
(1270,340,qs),
(550,340,l),
(519,340,o),
(469,370,o),
(439,421,o),
(439,452,qs),
(439,797,l),
(120,797,l),
(120,429,l),
(120,313,o),
(235,116,o),
(433,0,o),
(550,0,qs)
);
}
);
width = 1787;
}
);
unicode = (1705,64398);
},
{
glyphname = "keheh-arab.fina";
layers = (
{
anchors = (
{
name = "top-arab";
pos = (417,632);
},
{
name = "bottom-arab";
pos = (904,0);
}
);
layerId = m000;
shapes = (
{
closed = 1;
nodes = (
(1334,0,l),
(1419,0,o),
(1548,89,o),
(1609,229,o),
(1597,302,q),
(1805,83,l),
(1844,43,o),
(1945,0,o),
(2000,0,qs),
(2010,0,l),
(2010,60,l),
(2000,60,l),
(1914,60,o),
(1847,125,q),
(957,1058,l),
(1599,1302,l),
(1578,1358,l),
(895,1097,l),
(895,1038,l),
(1500,405,l),
(1555,340,o),
(1542,177,o),
(1426,60,o),
(1340,60,qs),
(499,60,l),
(425,60,o),
(302,132,o),
(230,256,o),
(230,329,qs),
(230,632,l),
(171,632,l),
(171,327,l),
(171,238,o),
(259,88,o),
(410,0,o),
(499,0,qs)
);
}
);
width = 2010;
},
{
anchors = (
{
name = "top-arab";
pos = (442,796);
},
{
name = "bottom-arab";
pos = (920,0);
}
);
layerId = m001;
shapes = (
{
closed = 1;
nodes = (
(1184,0,l),
(1276,0,o),
(1421,45,o),
(1525,125,o),
(1557,179,q),
(1616,117,l),
(1670,60,o),
(1812,0,o),
(1889,0,qs),
(1895,0,l),
(1895,340,l),
(1889,340,l),
(1844,340,o),
(1825,358,q),
(1190,1026,l),
(1710,1224,l),
(1597,1523,l),
(853,1238,l),
(853,919,l),
(1312,437,l),
(1328,419,o),
(1328,373,o),
(1297,340,o),
(1270,340,qs),
(550,340,l),
(519,340,o),
(469,370,o),
(439,421,o),
(439,452,qs),
(439,797,l),
(120,797,l),
(120,429,l),
(120,313,o),
(235,116,o),
(433,0,o),
(550,0,qs)
);
}
);
width = 1894;
}
);
unicode = 64399;
},
{
glyphname = "keheh-arab.init";
layers = (
{
anchors = (
{
name = "top-arab";
pos = (261,1104);
},
{
name = "bottom-arab";
pos = (500,0);
}
);
layerId = m000;
shapes = (
{
closed = 1;
nodes = (
(-38,57,o),
(-68,30,o),
(-38,3,o),
(0,0,q),
(689,0,l),
(775,0,o),
(904,91,o),
(965,235,o),
(941,391,o),
(883,452,qs),
(305,1058,l),
(947,1302,l),
(926,1358,l),
(243,1097,l),
(243,1038,l),
(839,414,l),
(901,349,o),
(892,181,o),
(776,60,o),
(688,60,qs),
(0,60,l)
);
}
);
width = 1138;
},
{
anchors = (
{
name = "top-arab";
pos = (280,1290);
},
{
name = "bottom-arab";
pos = (500,0);
}
);
layerId = m001;
shapes = (
{
closed = 1;
nodes = (
(-42,298,o),
(-72,170,o),
(-42,42,o),
(0,0,q),
(581,0,l),
(702,0,o),
(884,127,o),
(970,329,o),
(937,549,o),
(855,635,qs),
(482,1026,l),
(1001,1224,l),
(888,1523,l),
(144,1238,l),
(144,919,l),
(603,438,l),
(620,419,o),
(619,373,o),
(588,340,o),
(562,340,qs),
(0,340,l)
);
}
);
width = 1075;
}
);
unicode = 64400;
},
{
glyphname = "keheh-arab.medi";
layers = (
{
anchors = (
{
name = "top-arab";
pos = (261,1104);
},
{
name = "bottom-arab";
pos = (500,0);
}
);
layerId = m000;
shapes = (
{
closed = 1;
nodes = (
(-38,57,o),
(-68,30,o),
(-38,3,o),
(0,0,q),
(682,0,l),
(767,0,o),
(896,89,o),
(957,229,o),
(945,302,q),
(1153,83,l),
(1192,43,o),
(1293,0,o),
(1348,0,qs),
(1367,0,l),
(1367,60,l),
(1348,60,l),
(1261,60,o),
(1195,125,qs),
(305,1058,l),
(947,1302,l),
(926,1358,l),
(243,1097,l),
(243,1038,l),
(848,405,l),
(903,340,o),
(890,177,o),
(774,60,o),
(688,60,qs),
(0,60,l)
);
}
);
width = 1367;
},
{
anchors = (
{
name = "top-arab";
pos = (280,1290);
},
{
name = "bottom-arab";
pos = (500,0);
}
);
layerId = m001;
shapes = (
{
closed = 1;
nodes = (
(-42,298,o),
(-72,170,o),
(-42,42,o),
(0,0,q),
(475,0,l),
(567,0,o),
(713,45,o),
(816,125,o),
(848,179,q),
(907,117,l),
(962,60,o),
(1103,0,o),
(1181,0,qs),
(1186,0,l),
(1186,340,l),
(1181,340,l),
(1134,340,o),
(1116,358,qs),
(482,1026,l),
(1001,1224,l),
(888,1523,l),
(144,1238,l),
(144,919,l),
(604,437,l),
(619,419,o),
(619,373,o),
(588,340,o),
(562,340,qs),
(0,340,l)
);
}
);
width = 1186;
}
);
unicode = 64401;
},
{
glyphname = glyph270;
layers = (
{
layerId = m000;
shapes = (
{
closed = 1;
nodes = (
(1266,0,o),
(1416,88,o),
(1504,237,o),
(1504,326,qs),
(1504,1413,l),
(1445,1413,l),
(1445,329,l),
(1445,256,o),
(1373,132,o),
(1250,60,o),
(1177,60,qs),
(499,60,l),
(425,60,o),
(302,132,o),
(230,256,o),
(230,329,qs),
(230,632,l),
(171,632,l),
(171,326,l),
(171,237,o),
(259,88,o),
(410,0,o),
(499,0,qs),
(1177,0,l)
);
}
);
width = 1695;
},
{
layerId = m001;
shapes = (
{
closed = 1;
nodes = (
(1316,0,o),
(1514,110,o),
(1629,297,o),
(1629,409,qs),
(1629,1454,l),
(1310,1454,l),
(1310,452,l),
(1310,421,o),
(1280,370,o),
(1230,340,o),
(1200,340,qs),
(550,340,l),
(519,340,o),
(469,370,o),
(439,421,o),
(439,452,qs),
(439,797,l),
(120,797,l),
(120,409,l),
(120,297,o),
(235,110,o),
(433,0,o),
(550,0,qs),
(1200,0,l)
);
}
);
width = 1765;
}
);
unicode = 57377;
},
{
glyphname = glyph271;
layers = (
{
layerId = m000;
shapes = (
{
closed = 1;
nodes = (
(1278,0,o),
(1439,112,o),
(1475,203,q),
(1510,112,o),
(1671,0,o),
(1773,0,qs),
(1833,0,l),
(1833,60,l),
(1773,60,l),
(1700,60,o),
(1576,132,o),
(1504,256,o),
(1504,329,qs),
(1504,1413,l),
(1445,1413,l),
(1445,329,l),
(1445,256,o),
(1373,132,o),
(1250,60,o),
(1177,60,qs),
(499,60,l),
(425,60,o),
(302,132,o),
(230,256,o),
(230,329,qs),
(230,632,l),
(171,632,l),
(171,326,l),
(171,237,o),
(259,88,o),
(410,0,o),
(499,0,qs),
(1177,0,l)
);
}
);
width = 1833;
},
{
layerId = m001;
shapes = (
{
closed = 1;
nodes = (
(1287,0,o),
(1418,69,o),
(1470,134,q),
(1522,69,o),
(1652,0,o),
(1741,0,qs),
(1806,0,l),
(1806,340,l),
(1741,340,l),
(1711,340,o),
(1659,370,o),
(1629,421,o),
(1629,452,qs),
(1629,1454,l),
(1310,1454,l),
(1310,452,l),
(1310,421,o),
(1280,370,o),
(1230,340,o),
(1200,340,qs),
(550,340,l),
(519,340,o),
(469,370,o),
(439,421,o),
(439,452,qs),
(439,797,l),
(120,797,l),
(120,409,l),
(120,297,o),
(235,110,o),
(433,0,o),
(550,0,qs),
(1200,0,l)
);
}
);
width = 1806;
}
);
unicode = 57378;
},
{
glyphname = "lam-arab";
layers = (
{
anchors = (
{
name = "top-arab";
pos = (323,381);
},
{
name = "bottom-arab";
pos = (719,-549);
}
);
layerId = m000;
shapes = (
{
closed = 1;
nodes = (
(750,-549,l),
(905,-549,o),
(1140,-405,o),
(1267,-165,o),
(1267,-24,qs),
(1267,1413,l),
(1208,1413,l),
(1208,-21,l),
(1208,-147,o),
(1097,-361,o),
(889,-489,o),
(750,-489,qs),
(688,-489,l),
(549,-489,o),
(341,-361,o),
(230,-147,o),
(230,-21,qs),
(230,381,l),
(171,381,l),
(171,-24,l),
(171,-165,o),
(298,-405,o),
(533,-549,o),
(688,-549,qs)
);
}
);
width = 1458;
},
{
anchors = (
{
name = "top-arab";
pos = (440,537);
},
{
name = "bottom-arab";
pos = (777,-509);
}
);
layerId = m001;
shapes = (
{
closed = 1;
nodes = (
(820,-509,l),
(1004,-509,o),
(1283,-346,o),
(1434,-75,o),
(1434,84,qs),
(1434,1454,l),
(1115,1454,l),
(1115,127,l),
(1115,48,o),
(1050,-87,o),
(917,-169,o),
(820,-169,qs),
(734,-169,l),
(636,-169,o),
(503,-87,o),
(439,48,o),
(439,127,qs),
(439,537,l),
(120,537,l),
(120,84,l),
(120,-75,o),
(270,-346,o),
(549,-509,o),
(734,-509,qs)
);
}
);
width = 1570;
}
);
unicode = (1604,65245);
},
{
glyphname = "lam-arab.fina";
layers = (
{
anchors = (
{
name = "top-arab";
pos = (323,381);
},
{
name = "bottom-arab";
pos = (719,-549);
}
);
layerId = m000;
shapes = (
{
closed = 1;
nodes = (
(750,-549,l),
(904,-549,o),
(1139,-406,o),
(1266,-167,o),
(1267,-27,qs),
(1267,156,l),
(1308,85,o),
(1451,-1,o),
(1536,-1,qs),
(1568,-1,l),
(1568,59,l),
(1536,59,l),
(1462,59,o),
(1339,131,o),
(1267,255,o),
(1267,328,qs),
(1267,1413,l),
(1208,1413,l),
(1208,-21,l),
(1208,-147,o),
(1097,-361,o),
(889,-489,o),
(750,-489,qs),
(688,-489,l),
(549,-489,o),
(341,-361,o),
(230,-147,o),
(230,-21,qs),
(230,381,l),
(171,381,l),
(171,-24,l),
(171,-165,o),
(298,-405,o),
(533,-549,o),
(688,-549,qs)
);
}
);
width = 1568;
},
{
anchors = (
{
name = "top-arab";
pos = (440,537);
},
{
name = "bottom-arab";
pos = (777,-509);
}
);
layerId = m001;
shapes = (
{
closed = 1;
nodes = (
(820,-509,l),
(996,-509,o),
(1268,-359,o),
(1423,-105,o),
(1433,46,q),
(1433,50,l),
(1462,26,o),
(1516,0,o),
(1545,0,qs),
(1609,0,l),
(1609,340,l),
(1545,340,l),
(1514,340,o),
(1464,370,o),
(1434,421,o),
(1434,452,qs),
(1434,1454,l),
(1115,1454,l),
(1115,127,l),
(1115,48,o),
(1050,-87,o),
(917,-169,o),
(820,-169,qs),
(734,-169,l),
(636,-169,o),
(503,-87,o),
(439,48,o),
(439,127,qs),
(439,537,l),
(120,537,l),
(120,84,l),
(120,-75,o),
(270,-346,o),
(549,-509,o),
(734,-509,qs)
);
}
);
width = 1609;
}
);
unicode = 65246;
},
{
glyphname = "lam-arab.init";
layers = (
{
anchors = (
{
name = "top-arab";
pos = (381,1413);
},
{
name = "bottom-arab";
pos = (287,6);
}
);
layerId = m000;
shapes = (
{
closed = 1;
nodes = (
(-38,57,o),
(-68,30,o),
(-38,3,o),
(0,0,q),
(83,0,l),
(172,0,o),
(322,88,o),
(410,238,o),
(410,327,qs),
(410,1413,l),
(351,1413,l),
(351,329,l),
(351,256,o),
(279,132,o),
(156,60,o),
(83,60,qs),
(0,60,l)
);
}
);
width = 601;
},
{
anchors = (
{
name = "top-arab";
pos = (389,1454);
},
{
name = "bottom-arab";
pos = (387,92);
}
);
layerId = m001;
shapes = (
{
closed = 1;
nodes = (
(-42,298,o),
(-72,170,o),
(-42,42,o),
(0,0,q),
(119,0,l),
(236,0,o),
(433,116,o),
(548,313,o),
(548,429,qs),
(548,1454,l),
(229,1454,l),
(229,452,l),
(229,421,o),
(199,370,o),
(149,340,o),
(119,340,qs),
(0,340,l)
);
}
);
width = 684;
}
);
unicode = 65247;
},
{
glyphname = "lam-arab.medi";
layers = (
{
anchors = (
{
name = "top-arab";
pos = (381,1413);
},
{
name = "bottom-arab";
pos = (381,0);
}
);
layerId = m000;
shapes = (
{
closed = 1;
nodes = (
(-38,57,o),
(-68,30,o),
(-38,3,o),
(0,0,q),
(83,0,l),
(184,0,o),
(345,112,o),
(381,203,q),
(416,112,o),
(577,0,o),
(679,0,qs),
(711,0,l),
(711,60,l),
(679,60,l),
(605,60,o),
(482,132,o),
(410,256,o),
(410,329,qs),
(410,1413,l),
(351,1413,l),
(351,329,l),
(351,256,o),
(279,132,o),
(156,60,o),
(83,60,qs),
(0,60,l)
);
}
);
width = 711;
},
{
anchors = (
{
name = "top-arab";
pos = (389,1454);
},
{
name = "bottom-arab";
pos = (389,0);
}
);
layerId = m001;
shapes = (
{
closed = 1;
nodes = (
(-42,298,o),
(-72,170,o),
(-42,42,o),
(0,0,q),
(119,0,l),
(206,0,o),
(337,69,o),
(389,134,q),
(441,69,o),
(571,0,o),
(660,0,qs),
(724,0,l),
(724,340,l),
(660,340,l),
(629,340,o),
(578,370,o),
(548,421,o),
(548,452,qs),
(548,1454,l),
(229,1454,l),
(229,452,l),
(229,421,o),
(199,370,o),
(149,340,o),
(119,340,qs),
(0,340,l)
);
}
);
width = 724;
}
);
unicode = 65248;
},
{
glyphname = "meem-arab";
layers = (
{
anchors = (
{
name = "top-arab";
pos = (769,753);
},
{
name = "bottom-arab";
pos = (982,0);
}
);
layerId = m000;
shapes = (
{
closed = 1;
nodes = (
(230,368,l),
(230,456,o),
(318,607,o),
(468,695,o),
(557,695,qs),
(627,695,l),
(626,557,o),
(626,365,qs),
(626,250,o),
(716,74,o),
(878,-23,o),
(982,-23,qs),
(1082,-23,o),
(1246,67,o),
(1341,242,o),
(1339,365,qs),
(1337,485,o),
(1251,660,o),
(1091,753,o),
(982,753,qs),
(557,753,l),
(452,753,o),
(275,649,o),
(171,472,o),
(171,368,qs),
(171,-528,l),
(230,-528,l)
);
},
{
closed = 1;
nodes = (
(1120,694,o),
(1279,520,o),
(1281,365,qs),
(1282,262,o),
(1203,113,o),
(1066,35,o),
(982,35,qs),
(876,35,o),
(742,137,o),
(684,288,o),
(684,365,qs),
(684,695,l),
(982,695,l)
);
}
);
width = 1496;
},
{
anchors = (
{
name = "top-arab";
pos = (813,936);
},
{
name = "bottom-arab";
pos = (1041,0);
}
);
layerId = m001;
shapes = (
{
closed = 1;
nodes = (
(439,473,l),
(439,512,o),
(477,579,o),
(544,618,o),
(584,618,qs),
(610,618,l),
(604,556,o),
(604,464,qs),
(603,319,o),
(704,106,o),
(901,-11,o),
(1041,-11,qs),
(1174,-11,o),
(1382,109,o),
(1498,324,o),
(1497,463,qs),
(1497,598,o),
(1382,815,o),
(1174,936,o),
(1042,936,qs),
(584,936,l),
(457,936,o),
(244,811,o),
(120,599,o),
(120,473,qs),
(120,-498,l),
(439,-498,l)
);
},
{
closed = 1;
nodes = (
(1117,616,o),
(1179,527,o),
(1179,463,qs),
(1179,393,o),
(1130,325,o),
(1071,307,o),
(1041,307,qs),
(991,307,o),
(929,345,o),
(902,415,o),
(903,462,qs),
(903,618,l),
(1041,618,l)
);
}
);
width = 1607;
}
);
unicode = (1605,65249);
},
{
glyphname = "meem-arab.fina";
layers = (
{
anchors = (
{
name = "top-arab";
pos = (769,753);
},
{
name = "bottom-arab";
pos = (982,0);
}
);
layerId = m000;
shapes = (
{
closed = 1;
nodes = (
(1666,60,l),
(1609,60,l),
(1536,60,o),
(1412,132,o),
(1339,254,o),
(1338,326,q),
(1339,339,o),
(1339,365,qs),
(1337,486,o),
(1251,660,o),
(1091,753,o),
(982,753,qs),
(557,753,l),
(452,753,o),
(275,649,o),
(171,472,o),
(171,368,qs),
(171,-528,l),
(230,-528,l),
(230,368,l),
(230,456,o),
(318,607,o),
(468,695,o),
(557,695,qs),
(627,695,l),
(626,557,o),
(626,365,qs),
(626,250,o),
(716,74,o),
(878,-23,o),
(982,-23,qs),
(1096,-23,o),
(1273,94,o),
(1309,203,q),
(1345,113,o),
(1508,0,o),
(1609,0,qs),
(1666,0,l)
);
},
{
closed = 1;
nodes = (
(1120,694,o),
(1279,520,o),
(1281,365,qs),
(1281,271,o),
(1211,121,o),
(1076,35,o),
(982,35,qs),
(876,35,o),
(742,137,o),
(684,288,o),
(684,365,qs),
(684,695,l),
(982,695,l)
);
}
);
width = 1666;
},
{
anchors = (
{
name = "top-arab";
pos = (813,936);
},
{
name = "bottom-arab";
pos = (1041,0);
}
);
layerId = m001;
shapes = (
{
closed = 1;
nodes = (
(1632,340,l),
(1609,340,l),
(1580,340,o),
(1528,374,o),
(1497,430,o),
(1496,461,q),
(1496,462,o),
(1496,463,qs),
(1496,601,o),
(1382,816,o),
(1175,936,o),
(1042,936,qs),
(584,936,l),
(457,936,o),
(244,811,o),
(120,599,o),
(120,473,qs),
(120,-498,l),
(439,-498,l),
(439,473,l),
(439,512,o),
(477,579,o),
(544,618,o),
(584,618,qs),
(610,618,l),
(604,556,o),
(604,464,qs),
(603,319,o),
(704,106,o),
(901,-11,o),
(1041,-11,qs),
(1143,-11,o),
(1289,64,o),
(1342,137,q),
(1394,71,o),
(1522,0,o),
(1609,0,qs),
(1632,0,l)
);
},
{
closed = 1;
nodes = (
(1117,616,o),
(1179,527,o),
(1179,463,qs),
(1179,394,o),
(1130,325,o),
(1071,307,o),
(1041,307,qs),
(991,307,o),
(929,345,o),
(902,415,o),
(903,462,qs),
(903,618,l),
(1041,618,l)
);
}
);
width = 1632;
}
);
unicode = 65250;
},
{
glyphname = "meem-arab.init";
layers = (
{
anchors = (
{
name = "top-arab";
pos = (683,767);
},
{
name = "bottom-arab";
pos = (682,0);
}
);
layerId = m000;
shapes = (
{
closed = 1;
nodes = (
(983,271,o),
(903,117,o),
(766,36,o),
(683,36,qs),
(577,36,o),
(443,141,o),
(384,297,o),
(384,374,qs),
(384,531,o),
(545,713,o),
(683,713,qs),
(820,713,o),
(979,531,o),
(981,374,qs),
(981,374,l)
);
},
{
closed = 1;
nodes = (
(574,772,o),
(413,670,o),
(326,490,o),
(326,374,qs),
(326,360,o),
(327,331,q),
(327,330,o),
(328,329,q),
(324,215,o),
(172,63,o),
(57,60,q),
(-1,60,l),
(-38,57,o),
(-67,30,o),
(-38,3,o),
(-1,0,q),
(57,0,l),
(158,0,o),
(323,115,o),
(358,210,q),
(396,102,o),
(568,-23,o),
(683,-23,qs),
(782,-23,o),
(946,72,o),
(1042,252,o),
(1040,374,qs),
(1038,495,o),
(951,674,o),
(791,772,o),
(683,772,qs),
(683,772,l)
);
}
);
width = 1196;
},
{
anchors = (
{
name = "top-arab";
pos = (593,931);
},
{
name = "bottom-arab";
pos = (591,0);
}
);
layerId = m001;
shapes = (
{
closed = 1;
nodes = (
(730,394,o),
(680,325,o),
(622,308,o),
(592,308,qs),
(543,308,o),
(481,345,o),
(452,415,o),
(453,462,qs),
(454,538,o),
(521,617,o),
(592,618,q),
(668,617,o),
(730,528,o),
(730,463,qs),
(730,463,l)
);
},
{
closed = 1;
nodes = (
(449,936,o),
(243,812,o),
(137,599,o),
(136,464,qs),
(136,464,o),
(135,461,qs),
(135,461,o),
(136,461,q),
(135,414,o),
(68,340,o),
(23,340,qs),
(0,340,l),
(-41,298,o),
(-71,170,o),
(-41,41,o),
(0,0,q),
(23,0,l),
(110,0,o),
(235,70,o),
(288,137,q),
(341,64,o),
(486,-11,o),
(592,-11,qs),
(724,-11,o),
(932,110,o),
(1049,326,o),
(1049,463,qs),
(1048,599,o),
(933,813,o),
(725,935,o),
(594,937,qs),
(594,937,l)
);
}
);
width = 1157;
}
);
unicode = 65251;
},
